<?xml version="1.0" standalone="no"?>
<!DOCTYPE svg PUBLIC "-//W3C//DTD SVG 1.1//EN" "http://www.w3.org/Graphics/SVG/1.1/DTD/svg11.dtd" >
<!--
Aenniway, liebevoll fontifizierte Handschrift.

Perfectly different artifacts of a summer emerge from the glyphs, from their loveable, purple lines through their rough edges and spikes.

https://maybegeek.github.io/Aenniway/
-->
<svg xmlns="http://www.w3.org/2000/svg" xmlns:xlink="http://www.w3.org/1999/xlink" version="1.1">
<metadata>
Created by FontForge 20170731 at Tue Jul 10 18:40:26 2018
 By Christoph Pfeiffer,,,
Anna-Lisa Wehmann &#38; Christoph Pfeiffer
</metadata>
<defs>
<font id="Aenniway-Italic" horiz-adv-x="271" >
  <font-face 
    font-family="Aenniway"
    font-weight="400"
    font-style="italic"
    font-stretch="normal"
    units-per-em="1024"
    panose-1="3 0 5 0 0 0 0 0 0 0"
    ascent="819"
    descent="-205"
    x-height="295"
    cap-height="661"
    bbox="-75 -205 1379 782.619"
    underline-thickness="51"
    underline-position="-153"
    slope="-23.1"
    unicode-range="U+000D-10FFC2"
  />
<missing-glyph horiz-adv-x="372" 
d="M34 -20v682h271v-682h-271zM68 14h203v614h-203v-614z" />
    <glyph glyph-name="t_h.liga" unicode="th" horiz-adv-x="538" 
d="M426 140c-38.667 -48 -71.833 -83 -99.5 -105s-48.5 -33 -62.5 -33c-4.66699 0 -9.33301 3.33301 -14 10c-1.04199 2.08301 -1.5625 5.33887 -1.5625 9.76562c0 9.73926 2.52051 25.1514 7.5625 46.2344c20 86 100.333 266.667 241 542
c3.33301 6.66699 6.33301 12.333 9 17c14 26.667 23 40.333 27 41c13.333 0 19.333 -6.33301 18 -19c-0.666992 -2 -4.66699 -10 -12 -24c-22.667 -43.333 -47.667 -92.667 -75 -148c-36 -71.333 -71.667 -147.333 -107 -228c-35.333 -82.667 -56.333 -141.667 -63 -177
c-0.704102 -3.5752 -1.05664 -6.59766 -1.05664 -9.06836c0 -5.52441 1.76074 -8.28613 5.28223 -8.28613c14.2852 0 57.543 45.4512 129.774 136.354c0.666992 0.666992 2.66699 3.66699 6 9c6 8.66699 12.333 12.667 19 12c2.66699 0 5 -0.333008 7 -1
c4 -1.33301 5.66699 -8.33301 5 -21c-0.507812 -7.36523 -0.761719 -14.585 -0.761719 -21.6602c0 -30.0674 4.58691 -57.5146 13.7617 -82.3398c18.75 -44.375 28.125 -70 28.125 -76.875c0 -7.62402 -7.72461 -11.8252 -18.125 -13.125c-0.666992 0 -3.66699 1 -9 3
c-6 2 -9.33301 3.66699 -10 5c-22 50 -35.333 95.333 -40 136c0 1.33301 -0.666992 1.66699 -2 1c-0.666992 0 -1 -0.333008 -1 -1zM259 152v0zM100 103c10 41.333 34 97 72 167c0.666992 0.666992 0.666992 1.33301 0 2c-28.667 -2 -52.667 -7.66699 -72 -17
c-2.66699 -1.33301 -5.66699 -3.66699 -9 -7c-4 -4 -8 -6 -12 -6c-9.33301 0 -12.667 5.33301 -10 16c0 1.33301 0.333008 2.66699 1 4c7.33301 24.667 39.333 41.333 96 50c3.33301 0.666992 6.66699 1 10 1c2.66699 0.666992 5.33301 1 8 1h2h9h1
c28 51.333 52.667 93 74 125c0.666992 0.666992 0.666992 1 0 1h-1l-17 -14l-44 -42l6 9l21 30c19.333 25.333 31.667 40.667 37 46c34.667 39.333 59 59.333 73 60c2.66699 0 4.66699 -1 6 -3c2 -2 2.66699 -4 2 -6c0 -0.666992 -0.333008 -1.66699 -1 -3
c-21.333 -31.333 -50 -78 -86 -140c-12.667 -22 -24 -43.333 -34 -64c-0.666992 -0.666992 -0.666992 -1.33301 0 -2h3c33.333 0 62 -4.33301 86 -13c8 -3.33301 15.667 -8 23 -14l1 -1c-4.66699 -0.666992 -16.333 -1.33301 -35 -2
c-14.667 -0.666992 -28.667 -1.33301 -42 -2l-58 -6c-0.666992 0 -0.666992 -0.333008 0 -1c-8.66699 -14 -18 -30.667 -28 -50c-15.333 -31.333 -26.333 -55.667 -33 -73c-5.33301 -15.333 -9.66699 -29 -13 -41c-2.88867 -12.4443 -4.33301 -23.2227 -4.33301 -32.333
c0 -18.2227 5.77734 -29.7783 17.333 -34.667c3.33301 -1.33301 6.33301 -2 9 -2c14.667 0 32.333 11 53 33c18 20 33.667 46.667 47 80v1h1c0.666992 0 0.666992 -0.333008 0 -1c0 -6 -0.666992 -12.667 -2 -20c-3.33301 -14 -10 -30.333 -20 -49
c-17.333 -30 -34 -50.667 -50 -62c-18 -12.667 -34.667 -19 -50 -19h-4h-7c-16 2.66699 -26 15.667 -30 39c-0.599609 5.59961 -0.900391 11.3799 -0.900391 17.3398c0 13.9072 1.63379 28.7939 4.90039 44.6602z" />
    <glyph glyph-name="T_h.liga" unicode="Th" horiz-adv-x="772" 
d="M622 140c-38.667 -48 -71.833 -83 -99.5 -105s-48.5 -33 -62.5 -33c-4.66699 0 -9.33301 3.33301 -14 10c-1.04199 2.08301 -1.5625 5.33887 -1.5625 9.76562c0 9.73926 2.52051 25.1514 7.5625 46.2344c20 86 100.333 266.667 241 542
c3.33301 6.66699 6.33301 12.333 9 17c14 26.667 23 40.333 27 41c13.333 0 19.333 -6.33301 18 -19c-0.666992 -2 -4.66699 -10 -12 -24c-22.667 -43.333 -47.667 -92.667 -75 -148c-36 -71.333 -71.667 -147.333 -107 -228c-35.333 -82.667 -56.333 -141.667 -63 -177
c-0.704102 -3.5752 -1.05664 -6.59766 -1.05664 -9.06836c0 -5.52441 1.76074 -8.28613 5.28223 -8.28613c14.2852 0 57.543 45.4512 129.774 136.354c0.666992 0.666992 2.66699 3.66699 6 9c6 8.66699 12.333 12.667 19 12c2.66699 0 5 -0.333008 7 -1
c4 -1.33301 5.66699 -8.33301 5 -21c-0.507812 -7.36523 -0.761719 -14.585 -0.761719 -21.6602c0 -30.0674 4.58691 -57.5146 13.7617 -82.3398c18.75 -44.375 28.125 -70 28.125 -76.875c0 -7.62402 -7.72461 -11.8252 -18.125 -13.125c-0.666992 0 -3.66699 1 -9 3
c-6 2 -9.33301 3.66699 -10 5c-22 50 -35.333 95.333 -40 136c0 1.33301 -0.666992 1.66699 -2 1c-0.666992 0 -1 -0.333008 -1 -1zM798 687c10.0117 0 15.0176 -1.07227 15.0176 -3.21777c0 -1.99805 -4.33887 -4.9248 -13.0176 -8.78223h-1
c-16.667 -8 -30.333 -14 -41 -18c-42 -16.667 -100 -38.333 -174 -65c-16.667 -6 -53.333 -19 -110 -39c-20 -49.333 -42.667 -106 -68 -170c-7.33301 -33.333 -12 -56 -14 -68c0 -0.666992 -1.66699 -9.16699 -5 -25.5s-6 -28.167 -8 -35.5
c-7.33301 -31.333 -13.333 -55.333 -18 -72c-15.333 -50.667 -30.333 -90.667 -45 -120c-13.333 -26.667 -24.667 -44.667 -34 -54c-2.66699 -2.66699 -5.83301 -4.66699 -9.5 -6s-7.33301 -2 -11 -2s-7 1.66699 -10 5c-3.76953 4.18848 -4.6543 11.0615 -4.6543 19.3906
c0 18.5088 7.38477 48.3789 22.1543 89.6094c27.333 74.667 70.333 186 129 334c1.51562 17.2725 2.27246 31.9971 2.27246 44.1738c0 14.6113 -1.09082 25.5537 -3.27246 32.8262c-2.66699 -1.33301 -4.5 -2.16699 -5.5 -2.5l-7.5 -2.5
c-12.667 -4.66699 -25.5 -9.16699 -38.5 -13.5s-26 -8.33301 -39 -12s-22.167 -6.5 -27.5 -8.5c-34 -11.333 -65 -19.333 -93 -24c-17.0664 -2.84473 -32.9951 -4.2666 -47.7871 -4.2666c-12.9414 0 -25.0127 1.08887 -36.2129 3.2666c-7.33301 1.33301 -15 4.5 -23 9.5
s-12.667 10.5 -14 16.5c-0.295898 2.96289 -0.444336 5.81055 -0.444336 8.54297c0 9.56445 1.81445 17.7158 5.44434 24.457c4.66699 8.66699 13.333 18.667 26 30c30 27.333 68 48 114 62c32 9.33301 64 14 96 14c62.667 -0.666992 100.667 -19.667 114 -57
c7.33301 2.66699 17.333 6.33301 30 11c3.33301 9.33301 6 16.667 8 22c5.33301 5.33301 11.667 8.66699 19 10s13 -2.33301 17 -11c0 -0.666992 -0.5 -1.66699 -1.5 -3s-1.5 -2.33301 -1.5 -3c12 4.66699 22.667 8.33301 32 11c117.333 40 190.333 64.333 219 73
c13.333 4 31 6.66699 53 8h3zM299 595h-16c-47.333 -3.33301 -91 -16.333 -131 -39c-6.66699 -4 -13.333 -8.33301 -20 -13s-13.5 -10.167 -20.5 -16.5s-11 -12.167 -12 -17.5s1.83301 -9.66699 8.5 -13c4.66699 -2 9.16699 -3.66699 13.5 -5s9.5 -2 15.5 -2h14.5
c3.66699 0 9 0.666992 16 2s11.833 2.33301 14.5 3s8.33301 2 17 4s14 3 16 3c39.333 8.66699 98 27.333 176 56c-13.333 25.333 -44 38 -92 38zM434 539c-4.66699 -2 -9 -3.66699 -13 -5l2 -24c4.66699 12 8.33301 21.667 11 29zM377 307
c-27.333 -70 -45.667 -117 -55 -141c-29.1035 -77.8057 -43.6543 -121.482 -43.6543 -131.028c0 -1.16895 0.217773 -1.82617 0.654297 -1.97168c2.66699 0 7.16699 5.33301 13.5 16s12.833 23.833 19.5 39.5s13.167 32.167 19.5 49.5s11.5 32.333 15.5 45
c10.667 36 20.667 77.333 30 124z" />
    <glyph glyph-name="c_k.liga" unicode="ck" horiz-adv-x="600" 
d="M523.335 318.625c8.62305 -0.643555 15.2246 -3.86133 19.8057 -9.6543c5.23926 -6.64746 8.16309 -14.6348 8.76953 -23.9639c0.0595703 -2.00488 0.208008 -4.25977 0.445312 -6.7666c-0.237305 -2.16016 -0.301758 -4.45117 -0.195312 -6.87305
c-1.44043 -16.2451 -8.12695 -33.6494 -20.0605 -52.2129c-17.3994 -26.1025 -46.377 -46.2373 -86.9326 -60.4023c-40.7783 -13.835 -60.2344 -26.3408 -58.3682 -37.5195c0.133789 -0.821289 0.0791016 -1.36816 -0.164062 -1.63965
c-0.422852 -9.72852 3.28906 -19.2607 11.1377 -28.5967c8.81836 -9.99707 20.0664 -18.6064 33.7432 -25.8271c20.1445 -11.6396 68.7012 -21.9365 145.669 -30.8906c18.5439 -2.18555 31.9141 -3.95215 40.1104 -5.30078
c7.80371 -1.31836 12.2061 -2.41211 13.208 -3.28027c1.37305 -2.47363 1.98828 -3.85352 1.84473 -4.13965c-39.2969 -12.4277 -75.6719 -18.6426 -109.123 -18.6426c-62.6523 0 -115.052 21.7988 -157.198 65.3945c-11.9697 12.9141 -19.4961 29.2471 -22.5791 49.001
c0.368164 5.79297 1.86133 11.5518 4.47852 17.2773c2.71582 5.6084 5.49121 10.4238 8.32617 14.4473c3.16504 3.97656 6.6875 7.57715 10.5674 10.8027c7.4541 6.1084 18.8125 11.9502 34.0771 17.5273c14.7354 5.75684 23.6709 9.3877 26.8066 10.8936
c2.86426 1.82715 7.31152 4.10059 13.3408 6.81934c5.9707 3.28125 9.67188 5.20996 11.1035 5.78711c1.90137 0.756836 5.33301 2.70215 10.2939 5.83789c5.03906 2.86426 8.63867 5.19238 10.7979 6.98242c1.17383 0.875977 2.4668 1.94531 3.87988 3.20703
c1.25391 1.40527 3.09375 2.85059 5.51855 4.33789c1.5752 1.17969 2.83496 2.22852 3.78125 3.14648c1.05371 1.08203 2.0625 2.07812 3.02539 2.98926c1.03711 1.08887 1.79102 2.02734 2.26074 2.81445c0.863281 1.21289 1.93359 2.75879 3.21191 4.63672
c1.38867 1.45508 2.62891 3.2373 3.7207 5.34766c4.24121 6.55664 6.97949 13.4805 8.21387 20.7715c0.0986328 0.708984 0.172852 1.41895 0.222656 2.13086c0.62207 5.33105 -0.53125 8.49121 -3.93066 8.49121c-5.87793 0 -18.0352 -6.04395 -36.4727 -18.1309
c-19.1143 -12.2852 -32.5029 -21.4209 -40.167 -27.4072c-9.66895 -7.34668 -20.457 -17.4912 -32.3623 -30.4316c-22.0947 -23.7256 -35.5674 -39.8467 -40.418 -48.3623c-0.482422 -0.817383 -0.924805 -0.897461 -1.32715 -0.240234
c-34.2646 -87.3242 -52.4287 -131.313 -54.4941 -131.969c-8.60156 -3.34473 -13.0137 -5.20215 -13.2363 -5.57031c-0.444336 -0.297852 -1.15234 -0.263672 -2.12402 0.104492c-5.69434 0.298828 -11.0254 1.95508 -15.9922 4.96777
c-4.36621 2.9873 -6.49219 5.97461 -6.37793 8.96191c-0.114258 1.0127 0.108398 1.8623 0.667969 2.55078c59.4404 133.312 109.575 254.502 150.405 363.571c39.8369 106.931 67.9131 191.426 84.2295 253.484c-0.983398 -0.725586 -1.9873 -1.7627 -3.0127 -3.1123
c-0.974609 -1.31738 -2.38574 -2.83105 -4.2334 -4.54297c-6.81934 -6.95508 -14.4785 -16.2363 -22.9785 -27.8428l-14.6094 -16.6895c-0.426758 -0.600586 -0.916016 -0.613281 -1.46777 -0.0390625c-0.115234 0.0927734 -0.201172 0.261719 -0.256836 0.508789
c0.0556641 0.419922 0.0673828 0.599609 0.0351562 0.539062c4.03223 11.3936 10.2734 22.5664 18.7227 33.5176c8.21777 11.0488 18.6035 22.2529 31.1572 33.6133c4.7793 3.97363 8.25195 6.95703 10.4189 8.95215c2.5 2.00488 4.14648 2.83105 4.93945 2.47754
c1.87402 -0.313477 3.83496 -1.41895 5.88379 -3.31738c1.50586 -1.20898 2.25879 -6.05078 2.25879 -14.5254c0 -6.25977 -0.411133 -14.502 -1.23242 -24.7256c-0.733398 -11.9346 -3.91699 -28.7852 -9.55078 -50.5518
c-5.69922 -21.5664 -13.4785 -48.2803 -23.3379 -80.1416c-20.1406 -63.4717 -41.0361 -120.55 -62.6865 -171.234c-19.6826 -46.6494 -41.6797 -100.317 -65.9893 -161.005c25.6436 52.6875 72.1143 102.072 139.414 148.154
c6.43262 4.40137 14.4082 6.24609 23.9277 5.53613zM226.62 286.27c13.7969 2.90527 26.4766 4.35742 38.0391 4.35742c7.22656 0 14.0166 -0.567383 20.3711 -1.70215c5.89941 -1.17969 8.84961 -3.24512 8.84961 -6.19434
c1.77051 -7.08008 1.17969 -14.1602 -1.76953 -21.2402c-1.18066 -1.77051 -2.06543 -3.24512 -2.65527 -4.4248c-1.27051 -2.22461 -5.19336 -3.33594 -11.7666 -3.33594c-5.63477 0 -13.2178 0.816406 -22.748 2.4502
c-3.54004 0.589844 -7.375 0.885742 -11.5059 0.885742h-8.84961c-31.2695 -3.54004 -59.5898 -23.3057 -84.96 -59.2959c-16.5195 -23.0098 -26.8447 -43.9541 -30.9746 -62.835c-1.78809 -7.33008 -2.68262 -14.2266 -2.68262 -20.6904
c0 -14.8652 4.72949 -27.4385 14.1875 -37.7188c2.35938 -2.9502 5.01465 -5.60547 7.96484 -7.96582c12.9795 -11.21 28.3203 -16.8145 46.0195 -16.8145c24.1904 0 46.9053 6.49023 68.1455 19.4697c15.9297 9.44043 30.6797 23.3047 44.25 41.5947
c-0.589844 -11.21 -11.21 -27.1396 -31.8604 -47.79c-10.6201 -10.0293 -21.5352 -18.585 -32.7451 -25.6641c-22.4854 -12.8496 -44.2568 -19.2734 -65.3145 -19.2734c-6.0166 0 -11.9756 0.524414 -17.875 1.57324c-7.08008 1.17969 -12.9805 3.54004 -17.7002 7.08008
c-19.4697 11.21 -33.04 25.0742 -40.71 41.5947c-4.62598 10.9033 -6.93848 23.0088 -6.93848 36.3174c0 10.457 1.42773 21.6562 4.2832 33.5977c28.3203 83.1895 74.6348 131.865 138.945 146.024z" />
    <glyph glyph-name="s_s.liga" unicode="ss" horiz-adv-x="362" 
d="M314 311c0.666667 0 1.33333 -0.333333 2 -1c20.6667 -1.33333 36.3333 -6.66667 47 -16c7.14286 -6.66667 10.7143 -14.8639 10.7143 -24.5918c0 -3.89116 -0.571429 -8.02721 -1.71429 -12.4082v-3c-2 -7.33333 -7.83333 -14.6667 -17.5 -22s-19.5 -13 -29.5 -17v4
c10.6667 12.6667 16.6667 21 18 25c0 0.666667 0.166667 1.33333 0.5 2l0.5 1c2 7.33333 0 13.6667 -6 19s-13.6667 8.66667 -23 10h-3h-4h-3c-5.33333 -0.666667 -8.66667 -2.33333 -10 -5v-2c1.33333 -15.3333 7.33333 -33.3333 18 -54c2.66667 -6 4 -10 4 -12
c0.666667 -2.66667 2.66667 -7.83333 6 -15.5s6.16667 -14.6667 8.5 -21s5.16667 -14.6667 8.5 -25s5.66667 -19.5 7 -27.5s2.33333 -17.3333 3 -28c0.666667 -9.33333 0.333333 -17.3333 -1 -24c0 -1.33333 -0.333333 -2.66667 -1 -4c-2 -7.33333 -5 -15.6667 -9 -25
c-12 -20.6667 -32.6667 -31 -62 -31h-8c-22.6667 1.33333 -42.6667 9 -60 23c-6.66667 5.33333 -12 11 -16 17c-0.666667 -2.66667 -1.66667 -5.33333 -3 -8c-12.6667 -21.3333 -33.3333 -32 -62 -32h-8c-22.6667 1.33333 -42.6667 8.66667 -60 22
c-15.3333 12 -23 24.3333 -23 37c0 2.66667 0.333333 6 1 10c0 1.33333 0.333333 2.66667 1 4c4.66667 17.3333 16 30.6667 34 40l6 4c10 4 19.6667 5.66667 29 5h4c3.33333 0 6.33333 -0.666667 9 -2c4.66667 -1.33333 7 -2.33333 7 -3l-24 -5
c-19.3333 -5.33333 -31 -15.3333 -35 -30v-2c0 -1.33333 -0.333333 -3 -1 -5c-0.666667 -5.33333 1.5 -11.3333 6.5 -18c5 -6.66667 11.6667 -12.6667 20 -18c8.33333 -5.33333 17.1667 -9 26.5 -11c4 -1.33333 8 -2 12 -2c4.66667 0 9.66667 1.33333 15 4
c8.66667 4 15.3333 11 20 21c1.33333 2.66667 2 5.66667 2 9c1.28205 5.38462 1.92308 11.4596 1.92308 18.2249c0 10.8245 -1.64103 23.4162 -4.92308 37.7751c-3.33333 14.6667 -10.6667 34.3333 -22 59s-18.6667 41 -22 49
c-5.55556 16.1111 -8.33333 30.1389 -8.33333 42.0833c0 2.38889 0.111111 4.69444 0.333333 6.91667v4c1.33333 6.66667 5.66667 12.6667 13 18c8 6.66667 17.3333 11 28 13c2 0.666667 4.33333 1 7 1h1c0.666667 0 1.66667 -0.333333 3 -1
c20.6667 -1.33333 36.3333 -6.66667 47 -16c7.14286 -6.66667 10.7143 -14.8639 10.7143 -24.5918c0 -3.89116 -0.571429 -8.02721 -1.71429 -12.4082c0 -1.33333 -0.333333 -2.33333 -1 -3c-2 -7.33333 -7.66667 -14.6667 -17 -22s-19 -13 -29 -17v4
c10.6667 12.6667 16.6667 21 18 25c0 0.666667 0.166667 1.33333 0.5 2l0.5 1c2 7.33333 0 13.6667 -6 19s-13.6667 8.66667 -23 10h-3h-4h-3c-5.33333 -0.666667 -8.66667 -2.33333 -10 -5v-2c1.33333 -14.6667 7.33333 -32.6667 18 -54c2.66667 -6 4 -9.66667 4 -11
c0.666667 -2.66667 2.66667 -8 6 -16s6.16667 -15.1667 8.5 -21.5s5.16667 -14.6667 8.5 -25s5.66667 -19.1667 7 -26.5c0.666667 -5.33333 1.33333 -11 2 -17c5.33333 6.66667 12.6667 12.3333 22 17c2 1.33333 4.33333 2.66667 7 4c10 4 19.3333 5.66667 28 5h4
c3.33333 0 6.33333 -0.666667 9 -2c4.66667 -1.33333 7 -2.33333 7 -3l-24 -5c-19.3333 -5.33333 -31 -15.3333 -35 -30v-2c0 -1.33333 -0.333333 -3 -1 -5c-0.666667 -5.33333 1.5 -11.3333 6.5 -18c5 -6.66667 11.6667 -12.6667 20 -18s17.1667 -9 26.5 -11
c4 -1.33333 7.66667 -2 11 -2c5.33333 0 10.6667 1.33333 16 4c8.66667 4 15.3333 11 20 21c1.33333 2.66667 2.33333 5.66667 3 9c1.19048 5 1.78571 10.5952 1.78571 16.7857c0 11.1429 -1.92857 24.2143 -5.78571 39.2143c-3.33333 14.6667 -10.6667 34.3333 -22 59
s-18.6667 41 -22 49c-5.55556 16.1111 -8.33333 30.1389 -8.33333 42.0833c0 2.38889 0.111111 4.69444 0.333333 6.91667v4c1.33333 6.66667 5.66667 12.6667 13 18c8 6.66667 17.3333 11 28 13c2 0.666667 4.33333 1 7 1h2z" />
    <glyph glyph-name="Q_u.liga" unicode="Qu" horiz-adv-x="828" 
d="M774 258c4.66699 10 10.667 14.667 18 14l6 -1c8.66699 -0.666992 11 -6 7 -16c-1.33301 -6 -3 -11.333 -5 -16c-0.666992 -1.33301 -1.33301 -3 -2 -5l-2 -4c-0.666992 -2 -1 -3.66699 -1 -5l-2 -4c-13.333 -39.333 -19.667 -60.333 -19 -63
c0 -0.666992 -0.333008 -1 -1 -1c-4 -19.333 -6.33301 -37 -7 -53c-0.295898 -6.37012 -0.444336 -12.5107 -0.444336 -18.4199c0 -20.6826 1.81445 -38.543 5.44434 -53.5801c4.66699 -19.333 11.667 -37 21 -53c-10.667 2 -20 4.33301 -28 7
c-19.333 6.66699 -31 47 -35 121c-59.333 -68 -116.667 -110 -172 -126c-8.66699 -2.66699 -16.333 -4 -23 -4c-12.667 0 -20.333 5 -23 15c-1.96387 9.70898 -2.94531 20.3281 -2.94531 31.8584c0 58.9307 25.6484 141.645 76.9453 248.142
c0.666992 1.33301 5 4.33301 13 9h1h1c2 0 4 -0.666992 6 -2c3.33301 -1.33301 6.66699 -6.66699 10 -16v-1c0 -0.666992 -0.333008 -1.33301 -1 -2c-0.666992 -1.33301 -1 -3 -1 -5c-12 -26 -23 -52.333 -33 -79c-16 -44.667 -25.667 -76.333 -29 -95
c-3.62988 -15.5557 -5.44434 -28.6914 -5.44434 -39.4072c0 -3.06152 0.148438 -5.92578 0.444336 -8.59277c0.666992 -6.66699 4.66699 -10 12 -10c6.66699 0 15.667 2.66699 27 8c20.667 10.667 38.5 21.667 53.5 33s29.833 25.667 44.5 43c14.667 16.667 29 37 43 61
c15.333 26.667 26 46 32 58zM125 253c-2.66699 -8.66699 -5 -17.333 -7 -26c-6.06055 -25.4541 -9.09082 -50.6338 -9.09082 -75.5371c0 -2.49023 0.0302734 -4.97852 0.0908203 -7.46289c1.33301 -36.667 10.333 -64 27 -82
c15.3604 -15.3604 32.8701 -23.04 52.5312 -23.04c0.819336 0 1.6416 0.0136719 2.46875 0.0400391c13.333 0 27.667 3.33301 43 10c17.333 8 38.333 19.333 63 34v1c1.33301 1.33301 5.16699 4.16699 11.5 8.5s12.333 8.66699 18 13s9.5 7.83301 11.5 10.5l1 1
c-8 36 -13.667 77 -17 123v13v10.5c0 3 0.333008 5.5 1 7.5v4c1.33301 4.66699 3 8.66699 5 12c2 4 4.66699 7 8 9h1l1 1l3 1h1c4 0 7.33301 -2.33301 10 -7c2.66699 -73.333 9.33301 -122 20 -146c0 -0.666992 0.333008 -0.666992 1 0c42.667 38 79 87.333 109 148
c26 53.333 44.333 104.667 55 154c1.33301 6.66699 3 13.333 5 20c3.04492 17.333 4.56738 33.5146 4.56738 48.5439c0 27.7451 -5.18945 51.5645 -15.5674 71.4561c-14.667 28.667 -39 43 -73 43c-3.33301 0 -6.66699 -0.333008 -10 -1c-30 -2 -62.5 -16 -97.5 -42
s-67 -57.833 -96 -95.5s-55.167 -77.833 -78.5 -120.5s-40.333 -82 -51 -118zM580 490c-2 -9.33301 -4 -18.333 -6 -27c-14.667 -64.667 -37.333 -128 -68 -190c-32.667 -67.333 -74 -122.333 -124 -165l-1 -1c6.66699 -22 13.667 -39.333 21 -52
c7.33301 -12 19.667 -23.333 37 -34c17.333 -10 41 -17.333 71 -22h1c1.33301 0 2.33301 0.333008 3 1c4 0 6.33301 -0.666992 7 -2c1.33301 -0.666992 1.66699 -2 1 -4v-1c0 -0.666992 -0.333008 -1 -1 -1c-3.125 -9.375 -12.4023 -14.0625 -27.832 -14.0625
c-1.02832 0 -2.08496 0.0205078 -3.16797 0.0625c-36 0.666992 -66.333 9.33301 -91 26c-22.667 15.333 -39.333 39.667 -50 73c0 0.666992 -0.666992 0.666992 -2 0c-62.667 -47.333 -116 -72.667 -160 -76c-4.66699 -0.666992 -9.33301 -0.666992 -14 0
c-18.667 0 -31.667 2.33301 -39 7c-27.333 18.667 -45.833 44.5 -55.5 77.5c-5.28906 18.0566 -7.93359 38.2588 -7.93359 60.6064c0 18.4951 1.81055 38.46 5.43359 59.8936c0.666992 0.666992 0.666992 1.66699 0 3c14 59.333 36 117.667 66 175
c30.667 57.333 64 106.333 100 147c36.667 40.667 75 73.667 115 99c36 22.667 72.333 35.333 109 38c3.33301 0 6.66699 0.333008 10 1c25.333 0 47 -8.66699 65 -26c20 -20 32.667 -43.667 38 -71c3.17676 -14.8232 4.76465 -29.46 4.76465 -43.9102
c0 -12.8438 -1.25488 -25.541 -3.76465 -38.0898z" />
    <glyph glyph-name="uniFB00" unicode="ff" horiz-adv-x="539" 
d="M406 397l18 -13c21.3333 48.6667 47.8333 95.6667 79.5 141c31.6667 45.3333 58.5 77.6667 80.5 97c36.6667 33.3333 63.6667 50 81 50c14.6667 -0.666667 23.6667 -14.6667 27 -42c0.571429 -5.33333 0.857143 -10.7347 0.857143 -16.2041
c0 -13.6735 -1.78571 -27.7721 -5.35714 -42.2959c-5 -20.3333 -9.83333 -35.6667 -14.5 -46s-8.33333 -18.1667 -11 -23.5s-5.33333 -10.5 -8 -15.5s-5.66667 -10.1667 -9 -15.5c-43.3333 -71.3333 -91.6667 -116.667 -145 -136c-14.6667 -5.33333 -27.3333 -8 -38 -8
s-19.6667 1.33333 -27 4c-4 -7.33333 -16 -39 -36 -95c40.6667 -15.3333 66.6667 -27.3333 78 -36c16.6667 -12 25.3333 -18.3333 26 -19c1.33333 -4 2 -8 2 -12c-0.666667 -1.33333 -1.33333 -2 -2 -2c-2 -1.33333 -5 -3.83333 -9 -7.5s-7 -5.5 -9 -5.5
c-2.66667 0 -7.33333 1.83333 -14 5.5s-15.6667 8.16667 -27 13.5c-22 10 -41.6667 17.3333 -59 22c-34.6667 -100 -63.6667 -196 -87 -288c-13.3333 -54.6667 -20 -84.3333 -20 -89s-0.333333 -7.33333 -1 -8c-2 -7.33333 -8.33333 -11 -19 -11
c-10.6667 0 -16.3333 1.33333 -17 4c-0.666667 4 -0.666667 7.5 0 10.5s1.33333 5.5 2 7.5l23 97c2.66667 11.3333 4.66667 20 6 26c16.6667 66.6667 43.3333 154.333 80 263c-64.6667 18.6667 -121.667 31.3333 -171 38c-34 -98 -65.6667 -205 -95 -321
c-13.3333 -54.6667 -20 -84.3333 -20 -89s-0.333333 -7.66667 -1 -9c-1.33333 -6 -5.66667 -8.66667 -13 -8c-15.3333 0.666667 -22.6667 5.66667 -22 15c0 2 0.333333 4 1 6s1.33333 3.66667 2 5l23 98c2 10 5.16667 23.3333 9.5 40
c4.33333 16.6667 9.16667 34.6667 14.5 54c0.410256 4.10256 0.615385 8.4497 0.615385 13.0414c0 25.2544 -6.20513 57.9073 -18.6154 97.9586c-9.25641 29.7179 -13.8846 53.0276 -13.8846 69.929c0 6.22682 0.628205 11.5838 1.88462 16.071
c2.66667 11.3333 8.33333 20.6667 17 28c20.5977 18.023 49.5854 27.0345 86.9631 27.0345c1.33492 0 2.68054 -0.0114943 4.03686 -0.0344828h7c18 45.3333 28 69.6667 30 73c-6.66667 4 -11.3333 9 -14 15c-4 8 -5.33333 14.6667 -4 20s4.16667 10 8.5 14s6.83333 6 7.5 6
c2 0 4 -1.33333 6 -4s3.66667 -4.5 5 -5.5s2.33333 -2.16667 3 -3.5l4 -4c20.6667 46.6667 46.6667 90.6667 78 132c47.3333 63.3333 89.3333 102.667 126 118c8.66667 3.33333 15.1667 5 19.5 5s9.16667 -0.666667 14.5 -2s9.66667 -6.66667 13 -16
c5.17241 -13.7931 7.75862 -29.3698 7.75862 -46.7301c0 -16.2029 -2.25287 -33.9596 -6.75862 -53.2699c-10 -40.6667 -29.6667 -80 -59 -118c-45.4889 -58.6741 -92.6076 -88.0111 -141.356 -88.0111c-0.547737 0 -1.09568 0.0037037 -1.64383 0.0111111
c-16 0.666667 -30.3333 4.33333 -43 11c-2 -4.66667 -9.66667 -23.3333 -23 -56c61.3333 -10 118.333 -23.3333 171 -40c9.33333 24 22.3333 57 39 99l-2 2l-3 3c-10 9.33333 -14.1667 17.1667 -12.5 23.5s4.83333 12 9.5 17s7.66667 7.5 9 7.5zM452 371
c6 -1.33333 14.1667 -2 24.5 -2s21.1667 2 32.5 6c61.3333 25.3333 107.333 80.3333 138 165c4 10.6667 6.83333 19.6667 8.5 27s2.83333 13 3.5 17c1.36111 8.55556 2.04167 15.8634 2.04167 21.9236c0 14.7176 -4.01389 22.0764 -12.0417 22.0764c-4 0 -9.33333 -2 -16 -6
c-38.6667 -28 -74 -65.6667 -106 -113c-32 -47.3333 -57 -93.3333 -75 -138zM236 380c16.6667 -5.33333 28 -8 34 -8c10.6667 0 19.6667 0.666667 27 2c55.3333 12.6667 98 60.6667 128 144c4 10 7 18.8333 9 26.5s3.33333 13.5 4 17.5
c1.25641 8.61538 1.88462 16.071 1.88462 22.3669c0 17.0888 -4.62821 25.6331 -13.8846 25.6331c-3.33333 0 -7.66667 -1 -13 -3c-66.6667 -38.6667 -125.667 -114.333 -177 -227zM150 248c-40 0 -63 -11.3333 -69 -34c-1.84615 -8 -2.76923 -17.6331 -2.76923 -28.8994
c0 -13.144 1.25641 -28.5108 3.76923 -46.1006c6 -36 9 -57.6667 9 -65c15.3333 47.3333 35 105.333 59 174z" />
    <glyph glyph-name="uniFB01" unicode="fi" horiz-adv-x="465" 
d="M468.351 302.742c0.735352 -1.25586 1.16699 -2.79688 1.2959 -4.62305c0.128906 -1.8252 -0.0185547 -3.88086 -0.442383 -6.16504c-0.424805 -2.28418 -1.11816 -4.88379 -2.08008 -7.79785c-4.16602 -11.8633 -9.06348 -24.4941 -14.6924 -37.8926
c-5.62988 -13.3984 -11.9951 -27.5762 -19.0967 -42.5342c-2.21191 -4.60742 -4.55273 -9.45117 -7.02539 -14.5312c-2.47168 -5.08008 -5.07129 -10.3877 -7.79688 -15.9248c-20.5879 -44.4717 -31.8506 -81.0078 -33.7881 -109.609
c-0.604492 -8.91797 -0.302734 -17.0645 0.90625 -24.4395c1.01562 -3.7334 1.17773 -7.62695 0.487305 -11.6807s-2.3418 -8.70312 -4.9541 -13.9473c-0.216797 -0.282227 -0.527344 -0.550781 -0.930664 -0.806641c-2.32422 -2.38184 -4.31738 -3.88281 -5.97949 -4.50195
c-3.44824 -1.66406 -7.38086 -1.81348 -11.7988 -0.450195c-8.30371 2.21484 -14.1699 7.56055 -17.5986 16.0391c-1.625 4.19043 -2.75391 9.04395 -3.3877 14.5596c-0.71875 6.26465 -0.794922 13.7148 -0.263672 21.5498c1.05273 15.5352 4.08301 31.1602 9.09082 46.876
c6.64453 20.9199 15.7393 43.7568 27.2852 68.5127l23.7061 51.1738c9.9541 21.252 17.8271 37.7705 23.6191 49.5547c5.79102 11.7852 9.61035 19.0381 11.4561 21.7598c7.77539 10.1309 14.6064 14.9961 20.4951 14.5967
c2.04199 -0.137695 3.9707 -0.90918 5.78516 -2.31348zM494.653 402.86l2.86719 -4.52832c7.90039 -12.7363 12.748 -21.0488 14.5439 -24.9375c1.30566 -2.8291 0.256836 -5.38672 -3.14551 -7.6748c-1.36133 -0.914062 -2.93848 -1.43555 -4.73145 -1.56445
c-8.18262 0.297852 -15.9492 2.3584 -23.2998 6.17969c-3.74121 1.94336 -7.18457 4.25 -10.3291 6.9209c-6.29395 5.3418 -11.2773 12.042 -14.9502 20.1025c-0.936523 2.05566 -1.48926 4.11816 -1.65723 6.18652c-0.167969 2.06934 0.0458984 4.16406 0.642578 6.28613
c1.19922 4.2666 3.64941 7.58594 7.34961 9.95898c5.16895 3.31152 10.873 3.39941 17.1143 0.263672c0.429688 -0.216797 0.857422 -0.458008 1.28516 -0.723633c0.414062 -0.258789 0.828125 -0.541992 1.24316 -0.848633
c4.23145 -3.53516 8.58691 -8.74219 13.0674 -15.6211zM468 668c8.66699 0 15 -4.33301 19 -13s6.5 -18.5 7.5 -29.5c0.428711 -4.71387 0.642578 -9.58203 0.642578 -14.6016c0 -6.69434 -0.380859 -13.6602 -1.14258 -20.8984c-1.33301 -10 -3.33301 -20 -6 -30
c-4 -15.333 -9.33301 -31 -16 -47c-2 -5.33301 -4.33301 -10.5 -7 -15.5s-5.5 -10.167 -8.5 -15.5s-6 -10.5 -9 -15.5s-6.16699 -10 -9.5 -15s-7 -10.167 -11 -15.5c-18 -25.333 -37.333 -47 -58 -65c-10.667 -9.33301 -21.5 -17.333 -32.5 -24s-22.5 -12 -34.5 -16
c-14.667 -5.33301 -28.667 -8 -42 -8c-4 0 -8 0.333008 -12 1c-3.33301 0.666992 -7 1.66699 -11 3c-0.666992 -1.33301 -1.66699 -4 -3 -8c-1.33301 -2 -2.66699 -4.66699 -4 -8s-2.66699 -7 -4 -11c-3.33301 -8 -7 -17.667 -11 -29
c-0.666992 -1.33301 -1.16699 -2.66699 -1.5 -4s-0.833008 -2.5 -1.5 -3.5s-1.16699 -2.16699 -1.5 -3.5l-1 -4c-0.333008 -1.33301 -0.833008 -2.66699 -1.5 -4s-1.16699 -2.66699 -1.5 -4s-0.833008 -2.66699 -1.5 -4s-1.16699 -2.66699 -1.5 -4
s-0.833008 -2.66699 -1.5 -4l-2 -4c4.66699 -2 9.33301 -3.83301 14 -5.5s8.83301 -3.33301 12.5 -5s7.16699 -3.16699 10.5 -4.5c10 -4 18 -7.66699 24 -11c4 -2 8.16699 -4.33301 12.5 -7s9 -5.83301 14 -9.5s10.5 -7.83301 16.5 -12.5h1l1 -5v-7l-1 -1v-1
c-1.33301 -0.666992 -2.66699 -1.5 -4 -2.5s-3 -2.5 -5 -4.5c-4.66699 -4.66699 -8.66699 -6.66699 -12 -6c-0.666992 0 -1.33301 0.166992 -2 0.5s-1.33301 0.833008 -2 1.5c-12 6.66699 -23.5 12.5 -34.5 17.5s-21.333 9.33301 -31 13s-19.167 6.5 -28.5 8.5
c-34.667 -100 -63.333 -195.667 -86 -287c-4 -15.333 -7.83301 -30.667 -11.5 -46s-7.16699 -30.333 -10.5 -45c0 -1.33301 0.333008 -2.66699 1 -4c0 -1.33301 -0.333008 -2.33301 -1 -3c-2 -7.33301 -8.66699 -11 -20 -11h-3c-8 0 -12.333 2 -13 6v5c0 2 0.333008 4 1 6
c0.666992 1.33301 1 3 1 5l24 98c2 10 4.33301 20 7 30c4.66699 18 9.66699 36.667 15 56c0.461914 6 0.692383 12 0.692383 18c0 20 -2.56445 40 -7.69238 60c-1.33301 5.33301 -2.5 10.167 -3.5 14.5s-2 8.33301 -3 12s-1.83301 6.66699 -2.5 9s-1 4.5 -1 6.5l-1 4
c-0.666992 4 -2 10.333 -4 19c-0.666992 4.66699 -1.33301 8.66699 -2 12c0 2 -0.166992 3.66699 -0.5 5s-0.833008 2.66699 -1.5 4c-0.666992 2.66699 -1 5.66699 -1 9v11c-0.666992 6 -0.333008 11.333 1 16c2 7.33301 5.33301 13 10 17c8 7.33301 21.333 12.333 40 15
c18 2.66699 31.333 4.33301 40 5h5h4h4l41 103h-1l-0.5 0.5c-0.333008 0.333008 -0.5 0.833008 -0.5 1.5c-0.666992 0.666992 -2 1.66699 -4 3l-2.5 2.5l-2.5 2.5l-4 4l-2 4c0 0.666992 -0.166992 1.5 -0.5 2.5s-0.5 1.83301 -0.5 2.5v4c2 6.66699 6.66699 14.333 14 23
c1.33301 1.33301 2.66699 2 4 2s3.66699 -1.33301 7 -4c1.33301 -1.33301 2.66699 -2.5 4 -3.5s2.33301 -1.83301 3 -2.5s1.5 -1.33301 2.5 -2l1.5 -1c3.33301 8 7 15.833 11 23.5s8 15.5 12 23.5c8 16 16.833 31.667 26.5 47s19.833 30.667 30.5 46c32 46 62.667 82 92 108
c14.667 13.333 27.833 23.333 39.5 30s21.833 10 30.5 10zM463 596c0 9.33301 -0.833008 16.333 -2.5 21s-4.5 7 -8.5 7c-1.33301 0 -2.5 -0.166992 -3.5 -0.5s-2.16699 -0.833008 -3.5 -1.5c-2.66699 -1.33301 -5.66699 -2.66699 -9 -4c-38.667 -28 -74.333 -66 -107 -114
c-32 -46.667 -57 -92.333 -75 -137c2 -0.666992 4 -1 6 -1s4 -0.166992 6 -0.5s4 -0.5 6 -0.5c1.39355 -0.0605469 2.78516 -0.0908203 4.17383 -0.0908203c13.8838 0 27.4932 3.03027 40.8262 9.09082c7.33301 3.33301 14.667 7.16699 22 11.5s14.667 9.5 22 15.5
c18 15.333 34 33.667 48 55c4.66699 7.33301 9.16699 14.667 13.5 22s8.5 15.167 12.5 23.5s7.66699 17.167 11 26.5c1.33301 2.66699 2.33301 5.33301 3 8c2 5.33301 3.83301 10.333 5.5 15s3.16699 9.33301 4.5 14c1.33301 6 2.33301 11.667 3 17
c0.666992 2.66699 1 5.16699 1 7.5v6.5zM436 618v0zM435 618zM153 198c-0.666992 0.666992 -3.33301 1.33301 -8 2c-2 0.666992 -4.16699 1 -6.5 1s-4.66699 -0.166992 -7 -0.5s-4.83301 -0.833008 -7.5 -1.5s-5.33301 -1.66699 -8 -3
c-1.33301 -0.666992 -2.66699 -1.16699 -4 -1.5s-2.66699 -0.833008 -4 -1.5c-2 -0.666992 -3.66699 -2.16699 -5 -4.5s-2.33301 -5.5 -3 -9.5c-2.08301 -8.75 -3.125 -21.1455 -3.125 -37.1875c0 -9.625 0.375 -20.5625 1.125 -32.8125
c1.33301 -17.333 2.33301 -32.333 3 -45v-7.5v-6.5c0 -2 0.166992 -3.83301 0.5 -5.5s0.5 -3.5 0.5 -5.5c8.66699 28.667 25.333 81 50 157z" />
    <glyph glyph-name="uniFB02" unicode="fl" horiz-adv-x="535" 
d="M463.643 349.492l94.7256 141.56c11.334 17.3301 17.0234 26.2871 17.0684 26.8711c0.674805 1.12207 1.32715 1.95312 1.95703 2.49219c0.944336 0.807617 0.944336 0.807617 1.88965 1.61621c1.25977 1.07715 2.49609 1.86328 3.71094 2.35742l3.64453 1.48145
c9.58301 2.20117 16.1533 -0.356445 19.71 -7.67285c0.540039 -0.628906 0.787109 -1.23438 0.743164 -1.81836l-0.336914 -4.37695c-0.0673828 -0.875 -0.0673828 -0.875 -0.134766 -1.75098l-15.7207 -20.8096c-7.24121 -10.0127 -15.1582 -21.1465 -23.749 -33.4043
c-8.59082 -12.2568 -17.7109 -25.6475 -27.3584 -40.1709c-9.64844 -14.5244 -19.8242 -30.1826 -30.5293 -46.9736c-79.6104 -124.812 -128.386 -215.885 -146.324 -273.215c-4.15723 -13.249 -6.58496 -24.4268 -7.28516 -33.5342
c-0.875 -11.3838 0.951172 -19.5312 5.47656 -24.4443c5.35645 -6.86719 13.1406 -8.93164 23.3545 -6.19141c25.2402 6.87305 54.0342 17.876 86.3828 33.0098l6.41113 3.03125c3.01367 0.943359 5.28613 1.79688 6.81543 2.55957
c1.53027 0.763672 2.58691 1.12305 3.17188 1.07812c4.67969 -0.358398 6.21094 -3.41016 4.5918 -9.15723c-0.0449219 -0.583008 -0.224609 -1.00977 -0.539062 -1.2793c-0.31543 -0.269531 -0.495117 -0.696289 -0.540039 -1.2793
c-0.674805 -1.12305 -1.32715 -1.95312 -1.95703 -2.49219c-0.628906 -0.539062 -1.12402 -1.23438 -1.48438 -2.08789c-0.359375 -0.852539 -0.854492 -1.54883 -1.4834 -2.08789c-0.629883 -0.538086 -1.28223 -1.36914 -1.95703 -2.49121
c-1.30469 -1.66113 -4.2627 -3.7832 -8.87402 -6.36523c-6.91699 -3.87305 -6.91699 -3.87305 -17.9844 -10.0693c-3.68848 -2.06641 -7.81641 -4.09766 -12.3828 -6.09668c-4.56738 -1.99805 -9.61719 -4.54688 -15.1504 -7.64551
c-16.4668 -7.54395 -30.4141 -12.9336 -41.8418 -16.168c-12.209 -3.81934 -22.873 -5.38086 -31.9941 -4.68164c-11.1475 0.853516 -19.9893 5.08203 -26.5244 12.6855c-5.94141 6.91309 -8.66602 17.3945 -8.17383 31.4463
c0.0537109 1.56055 0.144531 3.16309 0.270508 4.80566c1.01074 13.1416 4.3125 28.8916 9.90723 47.248c14.209 39.418 35.0088 84.2012 62.3984 134.35c27.3896 50.1494 50.7549 90.04 70.0957 119.672zM606.62 510.251v0zM468 668c8.66699 0 15 -4.33301 19 -13
s6.5 -18.5 7.5 -29.5c0.428711 -4.71387 0.642578 -9.58203 0.642578 -14.6016c0 -6.69434 -0.380859 -13.6602 -1.14258 -20.8984c-1.33301 -10 -3.33301 -20 -6 -30c-4 -15.333 -9.33301 -31 -16 -47c-2 -5.33301 -4.33301 -10.5 -7 -15.5s-5.5 -10.167 -8.5 -15.5
s-6 -10.5 -9 -15.5s-6.16699 -10 -9.5 -15s-7 -10.167 -11 -15.5c-18 -25.333 -37.333 -47 -58 -65c-10.667 -9.33301 -21.5 -17.333 -32.5 -24s-22.5 -12 -34.5 -16c-14.667 -5.33301 -28.667 -8 -42 -8c-4 0 -8 0.333008 -12 1c-3.33301 0.666992 -7 1.66699 -11 3
c-0.666992 -1.33301 -1.66699 -4 -3 -8c-1.33301 -2 -2.66699 -4.66699 -4 -8s-2.66699 -7 -4 -11c-3.33301 -8 -7 -17.667 -11 -29c-0.666992 -1.33301 -1.16699 -2.66699 -1.5 -4s-0.833008 -2.5 -1.5 -3.5s-1.16699 -2.16699 -1.5 -3.5l-1 -4
c-0.333008 -1.33301 -0.833008 -2.66699 -1.5 -4s-1.16699 -2.66699 -1.5 -4s-0.833008 -2.66699 -1.5 -4s-1.16699 -2.66699 -1.5 -4s-0.833008 -2.66699 -1.5 -4l-2 -4c4.66699 -2 9.33301 -3.83301 14 -5.5s8.83301 -3.33301 12.5 -5s7.16699 -3.16699 10.5 -4.5
c10 -4 18 -7.66699 24 -11c4 -2 8.16699 -4.33301 12.5 -7s9 -5.83301 14 -9.5s10.5 -7.83301 16.5 -12.5h1l1 -5v-7l-1 -1v-1c-1.33301 -0.666992 -2.66699 -1.5 -4 -2.5s-3 -2.5 -5 -4.5c-4.66699 -4.66699 -8.66699 -6.66699 -12 -6
c-0.666992 0 -1.33301 0.166992 -2 0.5s-1.33301 0.833008 -2 1.5c-12 6.66699 -23.5 12.5 -34.5 17.5s-21.333 9.33301 -31 13s-19.167 6.5 -28.5 8.5c-34.667 -100 -63.333 -195.667 -86 -287c-4 -15.333 -7.83301 -30.667 -11.5 -46s-7.16699 -30.333 -10.5 -45
c0 -1.33301 0.333008 -2.66699 1 -4c0 -1.33301 -0.333008 -2.33301 -1 -3c-2 -7.33301 -8.66699 -11 -20 -11h-3c-8 0 -12.333 2 -13 6v5c0 2 0.333008 4 1 6c0.666992 1.33301 1 3 1 5l24 98c2 10 4.33301 20 7 30c4.66699 18 9.66699 36.667 15 56
c0.461914 6 0.692383 12 0.692383 18c0 20 -2.56445 40 -7.69238 60c-1.33301 5.33301 -2.5 10.167 -3.5 14.5s-2 8.33301 -3 12s-1.83301 6.66699 -2.5 9s-1 4.5 -1 6.5l-1 4c-0.666992 4 -2 10.333 -4 19c-0.666992 4.66699 -1.33301 8.66699 -2 12
c0 2 -0.166992 3.66699 -0.5 5s-0.833008 2.66699 -1.5 4c-0.666992 2.66699 -1 5.66699 -1 9v11c-0.666992 6 -0.333008 11.333 1 16c2 7.33301 5.33301 13 10 17c8 7.33301 21.333 12.333 40 15c18 2.66699 31.333 4.33301 40 5h5h4h4l41 103h-1l-0.5 0.5
c-0.333008 0.333008 -0.5 0.833008 -0.5 1.5c-0.666992 0.666992 -2 1.66699 -4 3l-2.5 2.5l-2.5 2.5l-4 4l-2 4c0 0.666992 -0.166992 1.5 -0.5 2.5s-0.5 1.83301 -0.5 2.5v4c2 6.66699 6.66699 14.333 14 23c1.33301 1.33301 2.66699 2 4 2s3.66699 -1.33301 7 -4
c1.33301 -1.33301 2.66699 -2.5 4 -3.5s2.33301 -1.83301 3 -2.5s1.5 -1.33301 2.5 -2l1.5 -1c3.33301 8 7 15.833 11 23.5s8 15.5 12 23.5c8 16 16.833 31.667 26.5 47s19.833 30.667 30.5 46c32 46 62.667 82 92 108c14.667 13.333 27.833 23.333 39.5 30
s21.833 10 30.5 10zM463 596c0 9.33301 -0.833008 16.333 -2.5 21s-4.5 7 -8.5 7c-1.33301 0 -2.5 -0.166992 -3.5 -0.5s-2.16699 -0.833008 -3.5 -1.5c-2.66699 -1.33301 -5.66699 -2.66699 -9 -4c-38.667 -28 -74.333 -66 -107 -114c-32 -46.667 -57 -92.333 -75 -137
c2 -0.666992 4 -1 6 -1s4 -0.166992 6 -0.5s4 -0.5 6 -0.5c1.39355 -0.0605469 2.78516 -0.0908203 4.17383 -0.0908203c13.8838 0 27.4932 3.03027 40.8262 9.09082c7.33301 3.33301 14.667 7.16699 22 11.5s14.667 9.5 22 15.5c18 15.333 34 33.667 48 55
c4.66699 7.33301 9.16699 14.667 13.5 22s8.5 15.167 12.5 23.5s7.66699 17.167 11 26.5c1.33301 2.66699 2.33301 5.33301 3 8c2 5.33301 3.83301 10.333 5.5 15s3.16699 9.33301 4.5 14c1.33301 6 2.33301 11.667 3 17c0.666992 2.66699 1 5.16699 1 7.5v6.5zM436 618v0z
M435 618zM153 198c-0.666992 0.666992 -3.33301 1.33301 -8 2c-2 0.666992 -4.16699 1 -6.5 1s-4.66699 -0.166992 -7 -0.5s-4.83301 -0.833008 -7.5 -1.5s-5.33301 -1.66699 -8 -3c-1.33301 -0.666992 -2.66699 -1.16699 -4 -1.5s-2.66699 -0.833008 -4 -1.5
c-2 -0.666992 -3.66699 -2.16699 -5 -4.5s-2.33301 -5.5 -3 -9.5c-2.08301 -8.75 -3.125 -21.1455 -3.125 -37.1875c0 -9.625 0.375 -20.5625 1.125 -32.8125c1.33301 -17.333 2.33301 -32.333 3 -45v-7.5v-6.5c0 -2 0.166992 -3.83301 0.5 -5.5s0.5 -3.5 0.5 -5.5
c8.66699 28.667 25.333 81 50 157z" />
    <glyph glyph-name="uniFB03" unicode="ffi" horiz-adv-x="703" 
d="M406 397l18 -13c21.333 48.667 47.833 95.667 79.5 141s58.5 77.667 80.5 97c36.667 33.333 63.667 50 81 50c14.667 -0.666992 23.667 -14.667 27 -42c0.571289 -5.33301 0.857422 -10.7344 0.857422 -16.2041c0 -13.6738 -1.78613 -27.7725 -5.35742 -42.2959
c-5 -20.333 -9.83301 -35.667 -14.5 -46s-8.33301 -18.167 -11 -23.5s-5.33301 -10.5 -8 -15.5s-5.66699 -10.167 -9 -15.5c-43.333 -71.333 -91.667 -116.667 -145 -136c-14.667 -5.33301 -27.333 -8 -38 -8s-19.667 1.33301 -27 4c-4 -7.33301 -16 -39 -36 -95
c40.667 -15.333 66.667 -27.333 78 -36c16.667 -12 25.333 -18.333 26 -19c1.33301 -4 2 -8 2 -12c-0.666992 -1.33301 -1.33301 -2 -2 -2c-2 -1.33301 -5 -3.83301 -9 -7.5s-7 -5.5 -9 -5.5c-2.66699 0 -7.33301 1.83301 -14 5.5s-15.667 8.16699 -27 13.5
c-22 10 -41.667 17.333 -59 22c-34.667 -100 -63.667 -196 -87 -288c-13.333 -54.667 -20 -84.333 -20 -89s-0.333008 -7.33301 -1 -8c-2 -7.33301 -8.33301 -11 -19 -11s-16.333 1.33301 -17 4c-0.666992 4 -0.666992 7.5 0 10.5s1.33301 5.5 2 7.5l23 97
c2.66699 11.333 4.66699 20 6 26c16.667 66.667 43.333 154.333 80 263c-64.667 18.667 -121.667 31.333 -171 38c-34 -98 -65.667 -205 -95 -321c-13.333 -54.667 -20 -84.333 -20 -89s-0.333008 -7.66699 -1 -9c-1.33301 -6 -5.66699 -8.66699 -13 -8
c-15.333 0.666992 -22.667 5.66699 -22 15c0 2 0.333008 4 1 6s1.33301 3.66699 2 5l23 98c2 10 5.16699 23.333 9.5 40s9.16699 34.667 14.5 54c0.410156 4.10254 0.615234 8.44922 0.615234 13.041c0 25.2549 -6.20508 57.9072 -18.6152 97.959
c-9.25684 29.7178 -13.8848 53.0273 -13.8848 69.9287c0 6.22754 0.62793 11.584 1.88477 16.0713c2.66699 11.333 8.33301 20.667 17 28c20.5977 18.0234 49.585 27.0342 86.9629 27.0342c1.33496 0 2.68066 -0.0107422 4.03711 -0.0341797h7c18 45.333 28 69.667 30 73
c-6.66699 4 -11.333 9 -14 15c-4 8 -5.33301 14.667 -4 20s4.16699 10 8.5 14s6.83301 6 7.5 6c2 0 4 -1.33301 6 -4s3.66699 -4.5 5 -5.5s2.33301 -2.16699 3 -3.5l4 -4c20.667 46.667 46.667 90.667 78 132c47.333 63.333 89.333 102.667 126 118
c8.66699 3.33301 15.167 5 19.5 5s9.16699 -0.666992 14.5 -2s9.66699 -6.66699 13 -16c5.17285 -13.793 7.75879 -29.3701 7.75879 -46.7305c0 -16.2021 -2.25293 -33.959 -6.75879 -53.2695c-10 -40.667 -29.667 -80 -59 -118
c-45.4893 -58.6738 -92.6074 -88.0107 -141.356 -88.0107c-0.547852 0 -1.0957 0.00292969 -1.64355 0.0107422c-16 0.666992 -30.333 4.33301 -43 11c-2 -4.66699 -9.66699 -23.333 -23 -56c61.333 -10 118.333 -23.333 171 -40c9.33301 24 22.333 57 39 99l-2 2l-3 3
c-10 9.33301 -14.167 17.167 -12.5 23.5s4.83301 12 9.5 17s7.66699 7.5 9 7.5zM452 371c6 -1.33301 14.167 -2 24.5 -2s21.167 2 32.5 6c61.333 25.333 107.333 80.333 138 165c4 10.667 6.83301 19.667 8.5 27s2.83301 13 3.5 17
c1.36133 8.55566 2.04199 15.8633 2.04199 21.9238c0 14.7178 -4.01465 22.0762 -12.042 22.0762c-4 0 -9.33301 -2 -16 -6c-38.667 -28 -74 -65.667 -106 -113s-57 -93.333 -75 -138zM236 380c16.667 -5.33301 28 -8 34 -8c10.667 0 19.667 0.666992 27 2
c55.333 12.667 98 60.667 128 144c4 10 7 18.833 9 26.5s3.33301 13.5 4 17.5c1.25684 8.61523 1.88477 16.0713 1.88477 22.3672c0 17.0889 -4.62793 25.6328 -13.8848 25.6328c-3.33301 0 -7.66699 -1 -13 -3c-66.667 -38.667 -125.667 -114.333 -177 -227zM150 248
c-40 0 -63 -11.333 -69 -34c-1.8457 -8 -2.76953 -17.6328 -2.76953 -28.8994c0 -13.1436 1.25684 -28.5107 3.76953 -46.1006c6 -36 9 -57.667 9 -65c15.333 47.333 35 105.333 59 174zM662.589 262.188c0.708008 -1.27148 1.10742 -2.82129 1.19629 -4.65039
c0.0898438 -1.82715 -0.101562 -3.87891 -0.573242 -6.15332c-0.473633 -2.27539 -1.22266 -4.85938 -2.24707 -7.75195c-4.41895 -11.7715 -9.58496 -24.2949 -15.499 -37.5693c-5.91504 -13.2754 -12.583 -27.3145 -20.0029 -42.1162
c-2.30859 -4.55957 -4.75391 -9.35156 -7.33398 -14.3779c-2.58008 -5.02539 -5.29199 -10.2773 -8.13574 -15.7539c-21.5342 -44.0215 -33.5752 -80.3086 -36.125 -108.862c-0.794922 -8.90332 -0.666992 -17.0547 0.383789 -24.4531
c0.935547 -3.75391 1.01465 -7.64941 0.237305 -11.6875s-2.52734 -8.65137 -5.25098 -13.8389c-0.222656 -0.277344 -0.539062 -0.540039 -0.947266 -0.786133c-2.375 -2.33203 -4.40039 -3.79004 -6.0752 -4.37402c-3.48242 -1.58887 -7.41797 -1.6543 -11.8057 -0.197266
c-8.25488 2.3916 -14.0049 7.8623 -17.251 16.4121c-1.53516 4.22461 -2.56055 9.10059 -3.07617 14.6279c-0.584961 6.2793 -0.500977 13.7285 0.197266 21.5508c1.38477 15.5088 4.74902 31.0664 10.0918 46.6709c7.08984 20.7734 16.6709 43.4111 28.7441 67.9131
l24.7949 50.6553c10.4062 21.0352 18.6309 37.3809 24.6738 49.0391c6.04199 11.6582 10.0146 18.8281 11.9189 21.5098c7.98926 9.96191 14.9238 14.6797 20.8018 14.1553c2.03906 -0.182617 3.9502 -0.995117 5.73535 -2.4375zM691.026 361.721l2.77051 -4.58887
c7.62598 -12.9014 12.2949 -21.3154 14.0068 -25.2422c1.24512 -2.85645 0.141602 -5.3916 -3.30859 -7.60547c-1.38086 -0.884766 -2.96875 -1.37207 -4.76465 -1.46289c-8.17383 0.472656 -15.8945 2.69824 -23.1621 6.67578
c-3.69824 2.02344 -7.0918 4.40332 -10.1787 7.14062c-6.17773 5.47461 -11.0166 12.2803 -14.5166 20.418c-0.892578 2.0752 -1.40137 4.14844 -1.52441 6.2207c-0.124023 2.07227 0.134766 4.16211 0.776367 6.27051c1.29004 4.23926 3.81055 7.50586 7.56152 9.7998
c5.23828 3.19922 10.9434 3.16504 17.1152 -0.102539c0.424805 -0.226562 0.848633 -0.476562 1.26953 -0.750977c0.40918 -0.267578 0.817383 -0.55957 1.22461 -0.875c4.15527 -3.625 8.39844 -8.92383 12.7305 -15.8975z" />
    <glyph glyph-name="u10FFC0" unicode="ei" horiz-adv-x="370" 
d="M410 387h4c6 -2 9 -8 9 -18c0 -4 -0.333333 -7.66667 -1 -11c-1.33333 -6 -4 -11.3333 -8 -16c-5.33333 -6 -9.66667 -9 -13 -9c-7.33333 0 -14 3.33333 -20 10c-4 4.66667 -5 12.3333 -3 23c0 1.33333 0.333333 2.33333 1 3c1.33333 4.66667 5.5 8.83333 12.5 12.5
s13.1667 5.5 18.5 5.5zM264 312c27.5977 0 41.3966 -8.5648 41.3966 -25.6944c0 -3.14625 -0.465517 -6.58145 -1.39655 -10.3056c-1.33333 -5.33333 -11.3333 -19.6667 -30 -43c-13.3333 -16.6667 -28.3333 -31 -45 -43c-43.3333 -31.3333 -84.6667 -47.3333 -124 -48
c-0.666667 -3.33333 -1.33333 -6.33333 -2 -9c-1.77778 -7.77778 -2.66667 -15.2222 -2.66667 -22.3333c0 -14.2222 3.55556 -27.1111 10.6667 -38.6667c14 -22 35 -33 63 -33h7c16 0.666667 29.3333 3 40 7c18.6667 6 32.3333 13 41 21c16 14 28 30.6667 36 50
c12 30 26.3333 68.6667 43 116c8.66667 24.6667 16.3333 41 23 49l6 6h1c1.33333 0.666667 2.5 1.33333 3.5 2l3 2c1 0.666667 1.83333 1.66667 2.5 3c0.666667 0.666667 2 1.33333 4 2c0.666667 0.666667 1.33333 1 2 1c4.66667 -2 5 -11.3333 1 -28c-2 -8 -5 -18 -9 -30
c-4 -12.6667 -12.5 -37.6667 -25.5 -75c-13 -37.3333 -21.5 -64 -25.5 -80c-0.666667 -1.33333 -1 -2.66667 -1 -4c-2.66667 -12 -3.33333 -21.3333 -2 -28s4 -10.3333 8 -11h1c4.66667 0.666667 10.3333 3.33333 17 8c4.66667 4 8 6 10 6
c0.666667 0 0.666667 -0.333333 0 -1c-0.666667 -1.33333 -1.33333 -3.66667 -2 -7s-1.5 -6.66667 -2.5 -10s-1.5 -5.33333 -1.5 -6c-3.33333 -6.66667 -9.66667 -13 -19 -19c-7.33333 -5.33333 -13.6667 -7.66667 -19 -7h-3c-11.3333 2 -20 16.3333 -26 43
c-12 -14.6667 -29.1667 -26.1667 -51.5 -34.5c-22.3333 -8.33333 -43.8333 -12.5 -64.5 -12.5c-16.6667 0 -31.3333 2.66667 -44 8c-12 4 -23.6667 11.3333 -35 22c-10 9.33333 -17.3333 21.3333 -22 36c-4.90909 14.7273 -7.36364 28.562 -7.36364 41.5041
c0 2.87603 0.121212 5.70799 0.363636 8.49587c1.33333 10.6667 3 20.3333 5 29c-3.33333 2 -6.66667 4.66667 -10 8c0 6.66667 0.333333 12.6667 1 18c1.33333 6.66667 3.33333 12 6 16c6 -3.33333 11 -5.33333 15 -6c12.6667 24 28.6667 44.6667 48 62
c42 39.3333 82.3333 61.3333 121 66c5.33333 0.666667 10.3333 1 15 1zM237 274c-21.3333 0 -45.3333 -11.3333 -72 -34c-29.3333 -25.3333 -45.6667 -45.6667 -49 -61l-1 -3c35.3333 0 73.3333 16.6667 114 50c18.6667 15.3333 30 28 34 38v1c2 6 -6.66667 9 -26 9z" />
    <glyph glyph-name="u10FFC1" unicode="Unicorns" horiz-adv-x="1168" 
d="M176 -171c-10 3.33333 -15.6667 9 -17 17c-1.33333 6 -1.33333 12.3333 0 19l2 6c1.33333 4 2.66667 8.33333 4 13s2 9.33333 2 14c0.666667 9.33333 -1.33333 17 -6 23c0 1.33333 0.333333 3.33333 1 6c2 9.33333 8 27.3333 18 54c4 10 6.66667 18.3333 8 25
c2.66667 12.6667 1.66667 19 -3 19h-1c-4 0 -10 -3 -18 -9h-5c-8 0 -16.6667 -2 -26 -6c-11.3333 -4.66667 -21.1667 -10 -29.5 -16c-8.33333 -6 -17.6667 -11.8333 -28 -17.5s-19.1667 -8.83333 -26.5 -9.5c2.66667 6 4.33333 10.6667 5 14
c0.666667 4 0.333333 6.66667 -1 8c-1.33333 1.33333 -3.33333 2 -6 2s-6 -0.666667 -10 -2c-4 -1.33333 -8 -2 -12 -2s-8.33333 1 -13 3c-2.66667 6.66667 -3.33333 12.6667 -2 18c1.33333 5.33333 4.16667 9.83333 8.5 13.5s9.5 7 15.5 10s12.6667 5.66667 20 8
s14.3333 4.5 21 6.5s13.3333 4.16667 20 6.5c6.66667 2.33333 12 4.83333 16 7.5c8 4.66667 15 10 21 16s10.6667 12.6667 14 20c3.33333 7.33333 6.33333 14.3333 9 21c1.33333 2.66667 2.33333 6 3 10s1.33333 8.66667 2 14l3 22.5c0.666667 5 1.16667 12.8333 1.5 23.5
s0.5 17.6667 0.5 21c-1.52381 6.47619 -2.28571 12.8435 -2.28571 19.102c0 4.69388 0.428571 9.32653 1.28571 13.898c3.33333 15.3333 12.3333 30.3333 27 45c24 25.3333 50.6667 41.6667 80 49c18 5.33333 37.3333 14.3333 58 27s41.6667 26.1667 63 40.5
s40.3333 24.8333 57 31.5c15.3333 4 34.3333 6.16667 57 6.5c22.6667 0.333333 44.3333 1.66667 65 4s39.6667 7.83333 57 16.5c64.6667 42.6667 102.333 86.6667 113 132v3c5.33333 -3.33333 11 -5 17 -5c4.66667 0 9.33333 1.33333 14 4c8.66667 6 14.3333 14 17 24
c0 0.666667 0.333333 1.33333 1 2c0.6 3.4 0.9 6.74 0.9 10.02c0 7.65333 -1.63333 14.98 -4.9 21.98c4 -1.33333 7.66667 -2 11 -2c4.66667 0 8.66667 1 12 3c6.66667 4 11.8333 9.66667 15.5 17s8.5 14.6667 14.5 22s12.6667 12 20 14c5.33333 -3.33333 10.3333 -5 15 -5
c2.66667 0 4.66667 0.666667 6 2c5.33333 3.33333 8.83333 8 10.5 14s4.33333 11.8333 8 17.5s8.5 8.5 14.5 8.5c5.33333 -6 10 -8.66667 14 -8c2 0 3.66667 0.333333 5 1c5.33333 3.33333 9.5 8.66667 12.5 16s7.5 14 13.5 20c4.66667 4.66667 9.66667 7 15 7
c2 0 3.66667 -0.333333 5 -1c-4.66667 -6 -7.33333 -10.6667 -8 -14c-1.33333 -5.33333 1.33333 -8 8 -8c2 0 14.6667 2.33333 38 7c4 -6 9.33333 -9 16 -9h4c8 1.33333 15.5 4.66667 22.5 10s14.5 8.33333 22.5 9h1c7.33333 0 13.3333 -4.33333 18 -13
c-1.38889 -8.05556 -2.08333 -14.6644 -2.08333 -19.8264c0 -7.22685 1.36111 -11.6181 4.08333 -13.1736c1.33333 -0.666667 2.66667 -0.666667 4 0c6 0 16.3333 4.33333 31 13c10 6 16.6667 8.66667 20 8c0.666667 0 1 -0.333333 1 -1
c-0.666667 -1.33333 -7 -9.66667 -19 -25c-4.66667 -5.33333 -7 -9.33333 -7 -12c-0.666667 -1.33333 -0.333333 -2 1 -2h1c1.33333 0 3.66667 0.666667 7 2c25.3333 1.33333 64.1667 3 116.5 5s92.1667 3.66667 119.5 5c-4.66667 -4 -12.1667 -7.5 -22.5 -10.5
s-20.8333 -5.66667 -31.5 -8s-22.6667 -4.83333 -36 -7.5s-23.6667 -5.33333 -31 -8c-10 -4 -25.6667 -7.66667 -47 -11s-40 -7.83333 -56 -13.5s-27.6667 -13.8333 -35 -24.5c-3.33333 -7.33333 -6 -15 -8 -23c-1.33333 -6 -2.33333 -12.3333 -3 -19
c-1.5 -11.5 -2.25 -22.4375 -2.25 -32.8125c0 -3.45833 0.0833333 -6.85417 0.25 -10.1875c0.666667 -10 0 -20 -2 -30c-0.666667 -3.33333 -2 -7 -4 -11c-4.66667 -14.6667 -12.6667 -27.3333 -24 -38c-9.33333 -6.66667 -17 -10 -23 -10h-2
c-6.66667 0.666667 -11.5 3.33333 -14.5 8s-5.5 11.1667 -7.5 19.5s-3.5 16.5 -4.5 24.5s-3.16667 16 -6.5 24s-7.66667 13.6667 -13 17c-6 13.3333 -12.3333 20 -19 20c-6 0 -12 -4.66667 -18 -14c-8.66667 -12 -14.6667 -24.6667 -18 -38c-1.33333 -6 -2 -12.3333 -2 -19
c-15.3333 -52 -29 -103.333 -41 -154c-1.33333 -4.66667 -2.33333 -9.33333 -3 -14c0.666667 -10 4.16667 -20.1667 10.5 -30.5s13.1667 -19 20.5 -26s15.6667 -15.3333 25 -25c9.33333 -9.66667 16.3333 -18.1667 21 -25.5c3.33333 -12.6667 9.33333 -28 18 -46
c8.66667 -18 15.8333 -35.3333 21.5 -52c5.66667 -16.6667 8.5 -33.3333 8.5 -50c7.33333 -10.6667 10 -19.6667 8 -27c-1.33333 -4.66667 -4.33333 -8.5 -9 -11.5s-9 -4.5 -13 -4.5c-5.33333 0 -11 2.33333 -17 7c-6 6 -9.33333 13.3333 -10 22
c0.666667 2 1.33333 4.33333 2 7c1.12994 5.08475 1.69492 10.3897 1.69492 15.915c0 27.0736 -13.565 59.4353 -40.6949 97.085c-5.33333 -7.33333 -12.3333 -18.1667 -21 -32.5s-15.8333 -25.8333 -21.5 -34.5c-5.66667 -8.66667 -13.5 -18.3333 -23.5 -29
c-10 -10.6667 -20.3333 -19.6667 -31 -27c-8.66667 -15.3333 -17.6667 -23 -27 -23c-2 0 -4 0.333333 -6 1c-8.66667 4 -12 12.3333 -10 25v2c2 9.33333 8 17.6667 18 25c10 0 21.5 5.33333 34.5 16s24.1667 23 33.5 37c6.66667 10.6667 11.3333 21 14 31
c0.882726 4.41363 1.21053 10.1241 1.21053 15.2659c0 11.6473 -5.07018 19.5586 -15.2105 23.7341c-9.33333 1.33333 -20.6667 4.33333 -34 9s-24.6667 8.66667 -34 12s-21 6 -35 8c-4.66667 0.666667 -9.33333 1 -14 1c-8 0 -15.3333 -1 -22 -3
c-17.3333 -1.33333 -36.3333 -5 -57 -11s-42.1667 -12.5 -64.5 -19.5s-41.5 -11.8333 -57.5 -14.5h-6c-9.33333 0 -20 1.33333 -32 4c-15.3333 4 -28.3333 7.33333 -39 10c-4 0.666667 -8 1 -12 1c-7.33333 0 -15.3333 -1.66667 -24 -5
c-13.3333 -4.66667 -25.6667 -14.6667 -37 -30c-17.3333 -14.6667 -43.5 -32.3333 -78.5 -53c-35 -20.6667 -56.1667 -33.3333 -63.5 -38c-10.6667 -11.3333 -19 -23.6667 -25 -37c-3.33333 -6.66667 -6 -14 -8 -22c-1.33333 -7.33333 -2.33333 -14.6667 -3 -22
c-0.333333 -8 -0.5 -15.25 -0.5 -21.75s0.166667 -12.25 0.5 -17.25c0.666667 -10 2 -24 4 -42c0.666667 -4 1 -7 1 -9c-0.666667 -3.33333 -1.33333 -6.33333 -2 -9c-2 -8.66667 -4.33333 -13 -7 -13s-7.66667 8.66667 -15 26c-6 12.6667 -11 19 -15 19
c-2 0 -4 -1.66667 -6 -5c-0.666667 -0.666667 -1.33333 -1.66667 -2 -3v-1c-1.33333 -5.33333 -1.66667 -13 -1 -23c0.666667 -10.6667 1.16667 -20.5 1.5 -29.5s-0.166667 -18.1667 -1.5 -27.5c0 -2 -0.333333 -3.66667 -1 -5c-1.33333 -6.66667 -4 -11.6667 -8 -15
s-9.33333 -4.66667 -16 -4c-2.66667 -0.666667 -5.33333 -0.666667 -8 0zM233 146c0.666667 -3.33333 2.66667 -4.66667 6 -4c8.66667 0 26.3333 12 53 36c7.33333 9.33333 12.6667 21.3333 16 36c0.666667 2 1 4.33333 1 7
c1.11111 5.77778 1.66667 11.3333 1.66667 16.6667c0 10.6667 -2.22222 20.4444 -6.66667 29.3333c-4 8.66667 -9.66667 13 -17 13c-4 0 -8.33333 -1.33333 -13 -4c-0.666667 -2 -3 -7.33333 -7 -16c-4 -8.66667 -6.5 -14.1667 -7.5 -16.5s-3.16667 -7.33333 -6.5 -15
c-3.33333 -7.66667 -5.5 -13.3333 -6.5 -17s-2.5 -8.83333 -4.5 -15.5c-2 -5.33333 -3.33333 -9.66667 -4 -13c0 -1.33333 -0.333333 -2.66667 -1 -4c-0.666667 -4.66667 -1.5 -10 -2.5 -16s-1.5 -11.6667 -1.5 -17z" />
    <glyph glyph-name="t_t.liga" unicode="tt" horiz-adv-x="431" 
d="M316 103c10 41.333 34 97 72 167c0.666992 0.666992 0.666992 1 0 1c-28.667 -2 -52.667 -7.66699 -72 -17c-2.66699 -1.33301 -5.66699 -3.66699 -9 -7c-4 -4 -8 -6 -12 -6c-9.33301 0 -12.667 5.66699 -10 17c0 1.33301 0.333008 2.33301 1 3
c7.33301 24.667 39.333 41.333 96 50c3.33301 0.666992 6.66699 1 10 1c2.66699 0.666992 5.33301 1 8 1h2h9h1c28 51.333 52.667 93.333 74 126c0.666992 0.666992 0.666992 1 0 1h-1l-17 -15l-44 -41l6 9l21 30c19.333 25.333 31.333 40.667 36 46
c34.667 39.333 59.333 59.333 74 60c2.66699 0 4.66699 -1 6 -3c2 -2 2.66699 -4.33301 2 -7c0 -0.666992 -0.333008 -1.33301 -1 -2c-21.333 -31.333 -50 -78.333 -86 -141c-12.667 -22 -24.333 -43.333 -35 -64c-0.666992 -0.666992 -0.333008 -1 1 -1h3
c33.333 0 62 -4.66699 86 -14c8 -3.33301 15.667 -8 23 -14l1 -1c-4.66699 -0.666992 -16.333 -1.33301 -35 -2c-14.667 -0.666992 -28.667 -1.33301 -42 -2l-58 -6h-1c-8.66699 -14 -18 -31 -28 -51c-15.333 -31.333 -26 -55.333 -32 -72
c-5.33301 -15.333 -9.66699 -29 -13 -41c-2.88867 -12.4443 -4.33301 -23.2227 -4.33301 -32.333c0 -18.2227 5.77734 -29.7783 17.333 -34.667c3.33301 -1.33301 6.33301 -2 9 -2c14.667 0 32.333 11 53 33c18 20 33.333 46.333 46 79l1 2h1
c0.666992 0 0.666992 -0.333008 0 -1c0 -6 -0.666992 -12.667 -2 -20c-3.33301 -14 -10 -30.667 -20 -50c-17.333 -30 -34 -50.667 -50 -62c-17.0996 -12.0332 -32.9971 -18.0498 -47.6904 -18.0498c-0.772461 0 -1.54297 0.0166016 -2.30957 0.0498047h-4h-7
c-16 2.66699 -26 15.667 -30 39c-0.599609 5.59961 -0.900391 11.3799 -0.900391 17.3398c0 13.9072 1.63379 28.7939 4.90039 44.6602zM110 103c10 41.333 34 97 72 167c0.666992 0.666992 0.666992 1 0 1c-28.667 -2 -52.667 -7.66699 -72 -17
c-2.66699 -1.33301 -5.66699 -3.66699 -9 -7c-4 -4 -8 -6 -12 -6c-9.33301 0 -12.667 5.66699 -10 17c0 1.33301 0.333008 2.33301 1 3c7.33301 24.667 39.333 41.333 96 50c3.33301 0.666992 6.66699 1 10 1c2.66699 0.666992 5.33301 1 8 1h2h9h1
c28 51.333 52.667 93.333 74 126c0.666992 0.666992 0.666992 1 0 1h-1l-17 -15l-44 -41l6 9l21 30c19.333 25.333 31.333 40.667 36 46c34.667 39.333 59.333 59.333 74 60c2.66699 0 4.66699 -1 6 -3c2 -2 2.66699 -4.33301 2 -7c0 -0.666992 -0.333008 -1.33301 -1 -2
c-21.333 -31.333 -50 -78.333 -86 -141c-12.667 -22 -24.333 -43.333 -35 -64c-0.666992 -0.666992 -0.333008 -1 1 -1h3c33.333 0 62 -4.66699 86 -14c8 -3.33301 15.667 -8 23 -14l1 -1c-4.66699 -0.666992 -16.333 -1.33301 -35 -2
c-14.667 -0.666992 -28.667 -1.33301 -42 -2l-58 -6h-1c-8.66699 -14 -18 -31 -28 -51c-15.333 -31.333 -26 -55.333 -32 -72c-5.33301 -15.333 -9.66699 -29 -13 -41c-2.88867 -12.4443 -4.33301 -23.2227 -4.33301 -32.333c0 -18.2227 5.77734 -29.7783 17.333 -34.667
c3.33301 -1.33301 6.33301 -2 9 -2c14.667 0 32.333 11 53 33c18 20 33.333 46.333 46 79l1 2h1c0.666992 0 0.666992 -0.333008 0 -1c0 -6 -0.666992 -12.667 -2 -20c-3.33301 -14 -10 -30.667 -20 -50c-17.333 -30 -34 -50.667 -50 -62
c-17.0996 -12.0332 -32.9971 -18.0498 -47.6904 -18.0498c-0.772461 0 -1.54297 0.0166016 -2.30957 0.0498047h-4h-7c-16 2.66699 -26 15.667 -30 39c-0.599609 5.59961 -0.900391 11.3799 -0.900391 17.3398c0 13.9072 1.63379 28.7939 4.90039 44.6602z" />
    <glyph glyph-name=".notdef" horiz-adv-x="372" 
d="M34 -20v682h271v-682h-271zM68 14h203v614h-203v-614z" />
    <glyph glyph-name=".null" horiz-adv-x="256" 
 />
    <glyph glyph-name=".null" horiz-adv-x="256" 
 />
    <glyph glyph-name="nonmarkingreturn" horiz-adv-x="340" 
 />
    <glyph glyph-name="CR" unicode="&#xd;" horiz-adv-x="256" 
 />
    <glyph glyph-name="space" unicode=" " horiz-adv-x="287" 
 />
    <glyph glyph-name="exclam" unicode="!" horiz-adv-x="201" 
d="M59 27v3c2 8.66667 10 14 24 16c2 0.666667 4.33333 1 7 1c12 0 20.6667 -6 26 -18c4.66667 -10.6667 6.66667 -17.3333 6 -20c-0.666667 -2.66667 -6.66667 -5 -18 -7c-3.33333 -0.666667 -6.33333 -1 -9 -1c-8 0 -15.6667 2 -23 6
c-9.33333 4.66667 -13.6667 11.3333 -13 20zM116 29v0zM242 646c6 14.6667 12 22 18 22h1c2.66667 -1.33333 3.66667 -5 3 -11c-0.666667 -6.66667 0 -12.3333 2 -17c2 -4 3 -7 3 -9c-9.33333 -36 -25.3333 -85.6667 -48 -149c-27.3333 -77.3333 -47 -142 -59 -194
c-6.66667 -29.3333 -10.6667 -54.3333 -12 -75c-0.666667 -6.66667 -0.333333 -11.6667 1 -15v-1c1.33333 -1.33333 1.66667 -3.5 1 -6.5s-2.33333 -6.83333 -5 -11.5c-2.66667 -5.33333 -5.5 -8.16667 -8.5 -8.5s-6.5 2.5 -10.5 8.5
c-6.20513 9.58974 -9.30769 24.1913 -9.30769 43.8047c0 3.56607 0.102564 7.29783 0.307692 11.1953c4 26 9.33333 53.6667 16 83c10 42.6667 23 88.6667 39 138c26.6667 84 49.3333 147.667 68 191zM119 234v0z" />
    <glyph glyph-name="comma" unicode="," horiz-adv-x="130" 
d="M42 -1c12.6667 26 23 42.6667 31 50c7.33333 6.66667 14.6667 10 22 10c5.33333 0 6.66667 -5.66667 4 -17c-1.33333 -4.66667 -5 -13.6667 -11 -27c-1.33333 -2.66667 -12 -20.6667 -32 -54c-4 -6.66667 -7.33333 -11.6667 -10 -15s-5.33333 -7 -8 -11l-8 -7
c-2 -2 -4 -3 -6 -3c-7.33333 0 -9 8 -5 24c1.33333 5.33333 9 22 23 50z" />
    <glyph glyph-name="period" unicode="." horiz-adv-x="166" 
d="M46 20v7c1.33333 4.66667 2.33333 7.66667 3 9c2.66667 4 5.66667 7 9 9c2 1.33333 6.33333 3.33333 13 6c7.33333 2.66667 13.6667 4 19 4c4 0 6.33333 -0.333333 7 -1c4.66667 -2.66667 7.83333 -7 9.5 -13s1.83333 -11 0.5 -15
c0.666667 -0.666667 0.666667 -1.66667 0 -3c-8.66667 -12 -17.6667 -19 -27 -21c-3.33333 -0.666667 -6 -1.33333 -8 -2h-7c-8.66667 -0.666667 -14.6667 1.33333 -18 6l-1 2v4c0 1.33333 -0.166667 2.5 -0.5 3.5s-0.166667 2.5 0.5 4.5z" />
    <glyph glyph-name="question" unicode="?" horiz-adv-x="358" 
d="M146 28c0.666667 4 1.33333 6.66667 2 8c1.33333 1.33333 3.66667 3.33333 7 6l12 3l23 -1l11 -8c0 -1.33333 -0.666667 -6 -2 -14c-2 -9.33333 -10.6667 -14.3333 -26 -15c-17.3333 0 -26.6667 0.666667 -28 2c-1.33333 0.666667 -2 2 -2 4v5
c1.33333 3.33333 2.33333 6.66667 3 10zM378 667c28 0 48.3333 -6.66667 61 -20c6.62745 -6.62745 9.94118 -15.9839 9.94118 -28.0692c0 -3.71857 -0.313725 -7.6955 -0.941176 -11.9308c-4 -18.6667 -12 -36.3333 -24 -53c-13.3333 -19.3333 -31 -39.6667 -53 -61
c-16.6667 -16.6667 -38.3333 -36.6667 -65 -60c-18 -15.3333 -33.6667 -30.3333 -47 -45c-19.3333 -20.6667 -34.3333 -39.3333 -45 -56c-13.3636 -22.2727 -20.0455 -43.0269 -20.0455 -62.2624c0 -14.7038 4.56782 -24.1318 17.0455 -30.7376c8 -4.66667 22 -7 42 -7
c12 0 23.3333 1.33333 34 4l54 16c2 0.666667 3.66667 0.833333 5 0.5s2.33333 -0.5 3 -0.5c2 -1.33333 1.66667 -7 -1 -17c0 -1.33333 -0.333333 -2.33333 -1 -3c-16.6667 -12.6667 -36 -21.6667 -58 -27c-21.3333 -5.33333 -45.3333 -8 -72 -8
c-15.3333 0 -27.6667 2.33333 -37 7c-8 4 -13.6667 10 -17 18c-4.24561 9.26316 -6.36842 20.0905 -6.36842 32.482c0 9.012 1.12281 18.8513 3.36842 29.518c3.33333 14.6667 9 30.6667 17 48c6.66667 14.6667 19.3333 32 38 52c22.6667 24 53.6667 52 93 84
c26.6667 21.3333 50.6667 44.3333 72 69c16.6667 20.6667 27 37.6667 31 51c2 6.66667 2.33333 12.6667 1 18c-2 10 -6.33333 18 -13 24c-7.33333 7.33333 -19.6667 11 -37 11c-8.66667 0 -18 -1.33333 -28 -4c-30.6667 -7.33333 -62 -18 -94 -32
c-31.3333 -13.3333 -49.6667 -21 -55 -23c-2.66667 -1.33333 -6.33333 1 -11 7c-2 2.66667 -2.66667 6.33333 -2 11c8.66667 7.33333 19 14.3333 31 21c16 8.66667 35.6667 16.6667 59 24c20.6667 7.33333 40.3333 12.6667 59 16c20 4 39 6 57 6zM341 252v0zM448 607v0z
M348 231zM341 253zM449 607zM341 255zM341 257z" />
    <glyph glyph-name="A" unicode="A" horiz-adv-x="473" 
d="M165 193v12l5 8l1 1c48 3.33333 90 9.33333 126 18c22 22.6667 33.6667 36 35 40c10.6667 27.3333 20.3333 54 29 80c44 132.667 95.3333 233 154 301c26.6667 30 47.5 45 62.5 45c10.0746 0 15.1119 -7.51838 15.1119 -22.5551
c0 -7.3513 -1.20398 -16.4996 -3.61194 -27.4449c-8 -32 -17.6667 -59.6667 -29 -83c-28.6667 -58.6667 -53.3333 -103 -74 -133c-34.6667 -51.3333 -74.3333 -107 -119 -167c-2.66667 -8 -4.66667 -15.3333 -6 -22c12.6667 2 30 5.33333 52 10l62 13
c17.3333 3.33333 26.6667 5 28 5c26.0163 -1.95122 39.0244 -5.4888 39.0244 -10.6127c0 -4.21914 -69.4454 -21.8897 -192.024 -51.3873c-7.33333 -26 -14.3333 -54 -21 -84s-12.6667 -57.6667 -18 -83c-5.33333 -25.3333 -9.33333 -38.6667 -12 -40l-15 -2
c-5.33333 0 -8 1.66667 -8 5c0.666667 6.66667 2 16.3333 4 29c2 12.6667 3.66667 22.6667 5 30c1.64103 12.3077 2.46154 23.7318 2.46154 34.2722c0 6.58777 -0.320513 12.8304 -0.961538 18.7278c-1.66667 15.3333 -9.5 28 -23.5 38
c-45.3333 -44 -74.3333 -71.3333 -87 -82c-76 -62 -133.667 -93 -173 -93c-14 0 -26.3333 7.33333 -37 22c0 1.33333 0.333333 2.33333 1 3c2.66667 0.666667 4.66667 1.33333 6 2l15 -1c54 0 129.333 48 226 144l23 23c-18.9474 11.3684 -40.2881 17.0526 -64.0222 17.0526
c-1.31856 0 -2.64451 -0.0175439 -3.97784 -0.0526316c-3.33333 0 -4.66667 1 -4 3zM387 337c7.33333 10 18.3333 25.6667 33 47s30 43.6667 46 67s35.5 57.6667 58.5 103c23 45.3333 36.1667 75.3333 39.5 90c4 16 3.66667 24 -1 24c-5.33333 0 -12 -5 -20 -15
c-40.6667 -51.3333 -73 -105.333 -97 -162c-26.6667 -63.3333 -46.3333 -114.667 -59 -154zM261 195l7 6l-11 -1c-3.33333 0 -6 -0.333333 -8 -1c4.66667 -1.33333 8.66667 -2.66667 12 -4zM317 203l-7 -1l-24 -24c8 -8 14 -16 18 -24c1.33333 6 3.33333 13 6 21
c3.33333 12.6667 5.66667 22 7 28z" />
    <glyph glyph-name="B" unicode="B" horiz-adv-x="511" 
d="M448 678c86.4 0 129.6 -18.63 129.6 -55.89c0 -4.14 -0.533333 -8.51 -1.6 -13.11c-12 -40.6667 -70 -96 -174 -166c-84.6667 -57.3333 -127 -90.6667 -127 -100v-1c0 -0.666667 -1.33333 -2.5 -4 -5.5s-4.33333 -5 -5 -6l-3 -4.5c-1.33333 -2.66667 -2 -4.66667 -2 -6
s0.5 -3.16667 1.5 -5.5s2.16667 -4.5 3.5 -6.5c17.8119 -26.7179 48.4786 -43.3846 92 -50c44.6667 -10.6667 76 -19.6667 94 -27c33.3333 -13.3333 50 -42.3333 50 -87v-1c-11.3333 -34 -39.6667 -66 -85 -96s-103.333 -45 -174 -45h-9c-17.3333 0 -38 4.66667 -62 14
c-18.6667 7.33333 -35.6667 17.3333 -51 30c-29.2934 23.3016 -46.05 48.519 -46.05 75.66c0 10.8933 6.01667 29.0067 18.05 54.34l5 7l1 1c0.666667 -6.66667 2.5 -16.6667 5.5 -30c0.378885 -2.16392 2.21222 -9.16392 5.5 -21c1.33333 -4.66667 3.5 -9.83333 6.5 -15.5
s6.16667 -10.5 9.5 -14.5c0.603572 -0.724286 0.936905 -0.390953 1 1c136 318 206.667 484.667 212 500c0.666667 2 2 3.66667 4 5c4.66667 3.33333 9.33333 5 14 5c11.3333 0 15.6667 -5.66667 13 -17c-1.33333 -8 -8.33333 -24.3333 -21 -49
c-1.33333 -2.66667 -10.1667 -23.1667 -26.5 -61.5c-16.3333 -38.3333 -27.8333 -66.8333 -34.5 -85.5v-1h1c16.6667 12 41.3333 30.3333 74 55s54.3333 41 65 49c71.6312 53.7234 110.39 87.8233 110.39 108.093c0 9.44993 -11.1301 18.0855 -33.3902 25.9066
c-23.3333 8 -52 12 -86 12s-71.6667 -4.66667 -113 -14c-35.3333 -10.6667 -71 -23.5 -107 -38.5s-56.3333 -23.5 -61 -25.5c-14.4444 -6.35556 -25.757 -9.53333 -33.9378 -9.53333c-1.25858 0 -2.44302 0.0752137 -3.55335 0.225641
c-1.67258 0.205128 -3.84221 0.307692 -6.50888 0.307692c-12 1.33333 -20 4.33333 -24 9l-1 1c99.3333 46 184.333 76.6667 255 92c40.6667 8.66667 82 13 124 13zM236 277c-44.6667 -104 -72.3333 -168.667 -83 -194v-1c10.6667 -10.6667 26.1667 -20 46.5 -28
s38.1667 -12 53.5 -12c4.66667 0 9.59722 -0.166667 14.7917 -0.5c24.8056 0.333333 50.7083 4.5 77.7083 12.5c35.6667 11.3333 64.5 26.3333 86.5 45c19.3333 16.6667 31 33.3333 35 50c0.666667 2.66667 0.974359 5.2071 0.923077 7.6213
c0.0512821 16.2525 -9.25641 29.3787 -27.9231 39.3787c-10 5.33333 -44.6667 16.3333 -104 33c-39.3333 11.3333 -72.3333 27.6667 -99 49z" />
    <glyph glyph-name="C" unicode="C" horiz-adv-x="432" 
d="M458 666c14.6667 -4 26.3333 -9.33333 35 -16c20.2991 -14.4994 30.4486 -25.593 30.4486 -33.2811c0 -2.18019 -0.816214 -4.0865 -2.44864 -5.71892c-0.666667 -1.33333 -3.33333 -1.66667 -8 -1c-2 0.666667 -4.66667 1.5 -8 2.5s-7.33333 2.33333 -12 4
s-10 3.83333 -16 6.5c-4 2 -7.66667 3.66667 -11 5s-6 2.33333 -8 3s-3.66667 1 -5 1c-44 -4 -110 -54 -198 -150c-44 -48.6667 -79.6667 -100 -107 -154c-11.3333 -22 -20 -43.5 -26 -64.5s-9.66667 -41.5 -11 -61.5
c-0.461538 -8.61538 -0.692308 -16.9024 -0.692308 -24.8609c0 -26.5286 2.5641 -49.4083 7.69231 -68.6391c6.66667 -25 18.3333 -43.5 35 -55.5c11.7021 -8.86525 26.2336 -13.2979 43.5944 -13.2979c15.2775 0 32.746 3.43262 52.4056 10.2979l10 4l10 4
c6.66667 3.33333 13.5 7 20.5 11s13.8333 8 20.5 12s13.6667 8.5 21 13.5s14.1667 9.5 20.5 13.5s13.5 8.66667 21.5 14s14.6667 9.66667 20 13c2 1.33333 4.16667 2.66667 6.5 4s4.33333 2.66667 6 4s3.5 2.83333 5.5 4.5s4 2.83333 6 3.5c4 2 9.66667 4.66667 17 8
c2.66667 1.33333 5.33333 2.33333 8 3c0.666667 0 1 -0.333333 1 -1v-1c-1.33333 -1.33333 -3 -3.33333 -5 -6c-102.84 -102.84 -186.078 -154.26 -249.714 -154.26c-17.1929 0 -32.9549 3.7534 -47.286 11.2602c-18.6667 9.33333 -33.8333 24.5 -45.5 45.5
c-11.6667 21 -19.1667 44.6667 -22.5 71c-1.51515 11.9697 -2.27273 24.3182 -2.27273 37.0455c0 15.2727 1.09091 31.0909 3.27273 47.4545l1 5c7.33333 44 21.3333 86.6667 42 128c28 56 64 108.333 108 157c59.3333 65.3333 116.333 113.333 171 144
c14 8 26.1667 13.6667 36.5 17s18.8333 4.33333 25.5 3zM436 150z" />
    <glyph glyph-name="D" unicode="D" horiz-adv-x="625" 
d="M457 670c97.3333 0 164 -38.6667 200 -116c18.1275 -37.9412 27.1912 -78.4149 27.1912 -121.421c0 -25.0036 -3.06373 -50.8632 -9.19118 -77.5789c-19.3333 -82 -60.3333 -147.667 -123 -197c-27.3333 -21.3333 -50.6667 -36.6667 -70 -46
c-57.3333 -27.3333 -117.833 -51.1667 -181.5 -71.5c-63.6667 -20.3333 -119.167 -32.8333 -166.5 -37.5c-12 -1.33333 -22 -2 -30 -2c-14.5376 0 -21.8065 5.39299 -21.8065 16.179c0 2.07423 0.268817 4.3479 0.806452 6.82102c0.666667 3.33333 3.5 6.16667 8.5 8.5
c5 2.33333 13 4.83333 24 7.5s17.1667 4.33333 18.5 5c14 4 33.6667 8.16667 59 12.5s43.3333 7.5 54 9.5c42 10 78 20.6667 108 32c58 20.6667 98 37.3333 120 50c35.3333 20.6667 67 45 95 73s48.6667 70.6667 62 128c3.33333 14 5.66667 28.6667 7 44
c1.58824 11.1176 2.38235 22.0718 2.38235 32.8625c0 29.974 -6.12745 58.6866 -18.3824 86.1375c-20 44.6667 -44.3333 74.6667 -73 90c-34.1176 17.6471 -68.4948 26.4706 -103.131 26.4706c-4.61822 0 -9.24106 -0.156863 -13.8685 -0.470588
c-80.6667 -6 -159.667 -33.3333 -237 -82c-32.6667 -21.3333 -53 -32.3333 -61 -33c-6.66667 0 -9.66667 2.66667 -9 8c2 10 13.6667 24 35 42c42.6667 40 105.333 70.3333 188 91c42 10 78 15 108 15zM386 511c8.66667 14 14.3333 21 17 21s4 -4 4 -12
s-1.33333 -16.6667 -4 -26c-4 -16.6667 -11 -35 -21 -55l-2 -4c-76.6667 -145.333 -127 -258.333 -151 -339c-2 -5.33333 -3.33333 -9 -4 -11s-1.66667 -3.66667 -3 -5h-1c-1.33333 0 -2 0.666667 -2 2c-1.33333 2.66667 -2.66667 7 -4 13
c-2.04167 7 -3.0625 15.0846 -3.0625 24.2539c0 11.7891 1.6875 25.3711 5.0625 40.7461l2 7c22 67.3333 58 149 108 245c31.3333 54.6667 51 87.6667 59 99z" />
    <glyph glyph-name="E" unicode="E" horiz-adv-x="432" 
d="M260 579c8 15.3333 36.3333 35 85 59c54 26 95 39 123 39c22.6667 0 42 -8 58 -24c10 -10 14.6667 -16.3333 14 -19l-1 -1c-2 0.666667 -8.66667 2 -20 4c-15.3333 2.66667 -31.3333 4 -48 4c-15.3333 0 -37.6667 -5 -67 -15c-2 -0.666667 -7.16667 -2.66667 -15.5 -6
s-16.6667 -6.16667 -25 -8.5s-12.5 -5.5 -12.5 -9.5l-109 -216c3.85185 -7.15344 13.2107 -10.7302 28.0766 -10.7302c21.1553 0 53.4631 7.24339 96.9234 21.7302c2 0.666667 3 0 3 -2c0 -0.666667 -0.333333 -1.33333 -1 -2c-5.33333 -8 -9.16667 -14 -11.5 -18
c-2.98622 -5.11924 -26.4862 -16.8586 -70.5 -35.218c-45.3333 -19.188 -79.1667 -41.188 -101.5 -66c-23 -24.5213 -49.5 -75.782 -79.5 -153.782c-6.88077 -17.89 -10.3211 -32.5795 -10.3211 -44.0684c0 -20.6211 11.0833 -30.9316 33.2498 -30.9316
c1.35703 0.000676263 2.71423 3.55428e-05 4.07132 3.55428e-05c20.6667 0 48.3333 11.6667 83 35c23.3333 16 44 33 62 51c4 4 8.5 8.33333 13.5 13s8.83333 8.33333 11.5 11s5.5 5.16667 8.5 7.5s5.16667 4 6.5 5s2.66667 1.5 4 1.5c4.66667 0 6 -3 4 -9
c-2 -8 -14 -23.3333 -36 -46c-22 -23.3333 -43.6667 -43.6667 -65 -61c-42.6667 -34 -78.3333 -51 -107 -51c-28.6667 0 -47.6667 15.6667 -57 47c-2.37897 7.98655 -3.56846 16.4798 -3.56846 25.4798s1.18949 18.5067 3.56846 28.5202
c3.86427 17.6039 65.8643 144.604 186 381c20.6667 40.6667 36.56 70 47.68 88c3.54667 5.33333 -1.68 4.33333 -15.68 -3c-4.2217 -2.48335 -7.88837 -4.50418 -11 -6.06248c-5.24168 -2.62502 -8.90834 -3.93752 -11 -3.93752c-2.66667 0 -3.33333 2 -2 6
c0.666667 4 2.33333 8.66667 5 14z" />
    <glyph glyph-name="F" unicode="F" horiz-adv-x="458" 
d="M658 676h17c44.6667 0 67 -10.6667 67 -32c-0.666667 -4.66667 -1 -8.66667 -1 -12c-1.33333 -6 -4 -9 -8 -9c-4.66667 0 -10.3333 3 -17 9c-7.27273 6.06061 -21.9835 9.09091 -44.1322 9.09091c-2.21488 0 -4.50413 -0.030303 -6.86777 -0.0909091h-23
c-25.3333 -1.33333 -58.3333 -5.16667 -99 -11.5c-40.6667 -6.33333 -74.6667 -13.1667 -102 -20.5c-0.666667 -1.33333 -4.66667 -8.66667 -12 -22c-6 -10.6667 -20.1667 -35.8333 -42.5 -75.5c-22.3333 -39.6667 -39.8333 -70.1667 -52.5 -91.5
c50 13.3333 93.3333 22.6667 130 28c11.3333 2 21.3333 2.66667 30 2c14 0 23.6667 -2 29 -6c1.33333 -1.33333 2 -2.66667 2 -4c-0.666667 -2 -4.33333 -4 -11 -6c-1.33333 0 -2.66667 -0.333333 -4 -1c-4 -1.33333 -26.1667 -7.33333 -66.5 -18s-70.1667 -19 -89.5 -25
c-21.3333 -6.66667 -37 -12.6667 -47 -18c-21.3333 -34 -46 -72 -74 -114c-70 -108 -108.333 -176.333 -115 -205c-1.33333 -5.33333 -1.33333 -10.6667 0 -16c1.33333 -4.66667 1.66667 -8.66667 1 -12c-2 -8.66667 -6 -15 -12 -19s-13 -5.66667 -21 -5
c-9.48387 0 -14.2258 7.03642 -14.2258 21.1093c0 6.70135 1.07527 14.9983 3.22581 24.8907c10.6667 32 25.5 64.1667 44.5 96.5c19 32.3333 43.1667 70 72.5 113s49.6667 74.1667 61 93.5l-76 -36c-42.6667 -20 -68.6667 -30 -78 -30h-2h-1
c-4.66667 2.66667 -6 7.33333 -4 14c1.33333 5.33333 10.6667 13.6667 28 25c18 10 47.6667 24.6667 89 44c36.6667 16.6667 62 29 76 37c52 88.6667 88.6667 152.667 110 192c-38.6667 -12 -75 -24.3333 -109 -37c-59.3333 -22 -96.3333 -33 -111 -33c-4 0 -6.66667 2 -8 6
c-0.666667 2 -1 4 -1 6c1.33333 6.66667 8.66667 13.6667 22 21c8.66667 4.66667 20.6667 9.33333 36 14c64.6667 20.6667 115.333 36.3333 152 47s82.5 22 137.5 34s103.167 19.3333 144.5 22z" />
    <glyph glyph-name="G" unicode="G" horiz-adv-x="501" 
d="M508 657c19.3333 9.33333 37.3333 14 54 14c26 0 39.6667 -13.6667 41 -41c0.666667 -6.66667 0.666667 -12.3333 0 -17c-1.33333 -6 -4.33333 -9.66667 -9 -11c-0.666667 -0.666667 -1.33333 -1 -2 -1c-5.33333 0 -11.6667 4.33333 -19 13
c-7.33333 10.6667 -17 16.3333 -29 17c-28.6667 0 -73 -25 -133 -75c-72.6667 -62 -136 -132 -190 -210c-56.6667 -82 -93 -153 -109 -213c-2.07692 -9.23077 -3.11538 -17.7825 -3.11538 -25.6553c0 -14.8708 3.70513 -27.319 11.1154 -37.3447
c12.5714 -17.1429 28.5714 -25.7143 48 -25.7143c3.2381 0 6.57143 0.238095 10 0.714286c24.6667 4 52.6667 22.6667 84 56c24.6667 26.6667 42.5 46 53.5 58s25.8333 30 44.5 54s37 50.3333 55 79c26.6667 42 48.3333 71.6667 65 89c4.66667 6 9.66667 9 15 9h2
c5.33333 -1.33333 9 -4.33333 11 -9c1.33333 -2 1.66667 -4.33333 1 -7s-1.33333 -4.33333 -2 -5c-27.3333 -44.6667 -48 -79.3333 -62 -104c-14 -24.6667 -28.6667 -54.3333 -44 -89c-19.3333 -44 -30.6667 -77.6667 -34 -101c-0.666667 -4.44444 -1 -9.2963 -1 -14.5556
c0 -10.5185 1.33333 -22.6667 4 -36.4444c3.33333 -12.6667 4.33333 -21.6667 3 -27l-1 -2c0.666667 -4 -1.33333 -6 -6 -6c-10.6667 0 -19 6 -25 18c-6.62745 14.7843 -9.94118 31.323 -9.94118 49.6159c0 5.6286 0.313725 11.4233 0.941176 17.3841
c0 4.66667 1.16667 11 3.5 19s4.33333 14.5 6 19.5s4 11.5 7 19.5s5.16667 14 6.5 18v1c-4.66667 -5.33333 -13.3333 -15 -26 -29s-21 -23.3333 -25 -28c-11.3333 -12 -25.8333 -26 -43.5 -42c-17.6667 -16 -34.6667 -28 -51 -36s-31.5 -12 -45.5 -12
c-32 0 -57.6667 11.3333 -77 34c-12.6569 13.6496 -18.9854 32.1957 -18.9854 55.6383c0 39.5306 17.9951 92.9845 53.9854 160.362c38 70.6667 85.3333 138.333 142 203c82.6667 95.3333 164 162 244 200zM366 -11v0zM573 614v0z" />
    <glyph glyph-name="H" unicode="H" horiz-adv-x="592" 
d="M448 633c6.82667 0 10.24 -5.18827 10.24 -15.5648c0 -5.8368 -1.08 -13.3152 -3.24 -22.4352c-9.33333 -32.6667 -20.5 -65.8333 -33.5 -99.5c-13 -33.6667 -23.8333 -59.6667 -32.5 -78s-23 -47.5 -43 -87.5c-0.666667 -0.666667 -0.333333 -1 1 -1
c14.6667 6.66667 33.6667 14.8333 57 24.5s45 19.1667 65 28.5l1 1c24 42 36.3333 63.3333 37 64c49.3333 84.6667 92.6667 143.333 130 176c36.6667 33.3333 77 50 121 50c24 0 44.3333 -7.33333 61 -22c11.5628 -11.0601 17.3443 -24.3001 17.3443 -39.72
c0 -5.02822 -0.614754 -10.2882 -1.84426 -15.78c-5 -22.3333 -22.1667 -45.8333 -51.5 -70.5c-69.3333 -58 -165.667 -115.667 -289 -173h-1c-45.3333 -95.3333 -73 -163 -83 -203c-4.94017 -22.0855 -7.41026 -40.7508 -7.41026 -55.9961
c0 -19.7291 4.13675 -33.7304 12.4103 -42.0039c1.33333 -1.33333 4.5 -4.33333 9.5 -9s9.5 -9 13.5 -13c3.33333 -4 4.66667 -7 4 -9c-1.33333 -4.66667 -4.33333 -8.33333 -9 -11c-2.66667 -0.666667 -5 -1 -7 -1h-4c-37.7857 7.11905 -56.6786 30.6569 -56.6786 70.6135
c0 8.68622 0.892857 18.1484 2.67857 28.3865c1.33333 7.33333 3 15 5 23c7.33333 32.6667 19.3333 70 36 112c10 29.3333 22.3333 60.3333 37 93c0 0.666667 -0.333333 1 -1 1c-12.6667 -5.33333 -34 -14.5 -64 -27.5s-47.6667 -20.5 -53 -22.5v-1
c-11.3333 -21.3333 -29 -56 -53 -104c-17.3333 -34.6667 -37.6667 -70.3333 -61 -107c-23.3333 -36.6667 -41 -59 -53 -67c-7.33333 -4.66667 -12.3333 -7 -15 -7c-18.6667 0 -35.6667 8.66667 -51 26c-24.1071 26.7857 -36.1607 56.8001 -36.1607 90.043
c0 8.12606 0.720238 16.445 2.16071 24.957v2c4 16.6667 17.3333 36 40 58c30 27.3333 73 54 129 80l32 14c10.6667 4.66667 19.1667 8.33333 25.5 11s11.1667 4.66667 14.5 6v1c22 42.6667 45.1667 92.3333 69.5 149c24.3333 56.6667 40.8333 102 49.5 136
c5.33333 23.3333 14.3333 35 27 35zM101 201v0zM433 9v0zM442 20v0zM455 595v0zM518 401c50 18.6667 106.667 47.3333 170 86c30 18 56 37.3333 78 58c20.6667 18.6667 32.6667 35.6667 36 51c0.761905 3.2381 1.14286 6.39456 1.14286 9.46939
c0 7.68707 -2.38095 14.8639 -7.14286 21.5306c-8.66667 10 -25.3333 15 -50 15s-50.6667 -11 -78 -33c-54 -43.3333 -104.333 -112.333 -151 -207c-0.666667 -0.666667 -0.666667 -1.33333 0 -2zM279 267c-47.3333 -12.6667 -93.3333 -35.3333 -138 -68
c-26.6667 -20 -42.3333 -40.6667 -47 -62c-0.96 -4.32 -1.44 -8.8512 -1.44 -13.5936c0 -15.0176 4.81333 -32.1531 14.44 -51.4064c4 -7.33333 9.5 -14.6667 16.5 -22s12.5 -11 16.5 -11c8.66667 0 16 3 22 9c16.6667 21.3333 32.8333 45.8333 48.5 73.5
c15.6667 27.6667 28 51 37 70s19.8333 43.8333 32.5 74.5c0 0.666667 -0.333333 1 -1 1z" />
    <glyph glyph-name="I" unicode="I" horiz-adv-x="276" 
d="M135 133c8 23.3333 15.3333 44.6667 22 64c6.66667 18.6667 26 64.6667 58 138c32.6667 74 62.6667 146.667 90 218c24 62 37.6667 97.3333 41 106c0.666667 0 1.66667 0.333333 3 1h3c1.33333 0 3 0.333333 5 1h5h1h2c0.666667 0 1.33333 -0.166667 2 -0.5l1 -0.5
c0.666667 -0.666667 1.33333 -2 2 -4c0.666667 -2.66667 0 -7.33333 -2 -14c-6.66667 -28 -28.3333 -86.6667 -65 -176c-48 -114.667 -82.6667 -200 -104 -256s-34.3333 -93.6667 -39 -113c-7.33333 -30.6667 -12.3333 -55.3333 -15 -74v-4c-1.33333 -6 -3.66667 -10 -7 -12
c-1.33333 -1.33333 -3.33333 -2.5 -6 -3.5s-5.66667 -1.5 -9 -1.5c-13.3333 0 -19 5.33333 -17 16c2.66667 12 6.33333 28.3333 11 49c0.666667 2 1 4 1 6c4 18.6667 9.66667 38.6667 17 60zM106 18v0zM105 18zM104 18zM102 18zM101 18z" />
    <glyph glyph-name="J" unicode="J" horiz-adv-x="362" 
d="M377 624c2.66667 12.6667 4.66667 20.3333 6 23c5.33333 11.3333 12 17 20 17c1.33333 0 2.66667 -0.333333 4 -1c8.66667 -1.33333 12 -6 10 -14l-2 -6c-1.33333 -3.33333 -3.66667 -11.3333 -7 -24v-1c-3.33333 -12 -6.66667 -24.6667 -10 -38
c-14.6667 -62 -28 -150.333 -40 -265c-12 -114.667 -25.3333 -204.333 -40 -269c-10 -42.6667 -20.3333 -74.3333 -31 -95c-28 -46.6667 -61 -70 -99 -70l-14 1c-28 4 -53 14.5 -75 31.5s-38.5 37.8333 -49.5 62.5c-7.7234 17.3191 -11.5851 33.3237 -11.5851 48.0136
c0 6.23208 0.695035 12.2276 2.08511 17.9864c9.33333 40 31.3333 64.3333 66 73c4 1.33333 7.66667 2 11 2l5 -1c6.66667 -5.33333 9.66667 -10 9 -14c-0.666667 -2 -2 -3.66667 -4 -5c-28.6667 -15.3333 -45 -32.6667 -49 -52v-1
c-0.153846 -2.61538 -0.230769 -5.20217 -0.230769 -7.76036c0 -30.6982 11.0769 -57.2781 33.2308 -79.7396c24 -24.3333 51.3333 -36.8333 82 -37.5c13.3333 0 26.6667 5.33333 40 16c22.6667 18.6667 43.3333 68.3333 62 149c8.66667 37.3333 14 67.6667 16 91
s8 81.6667 18 175c12.6667 97.3333 28.6667 188.667 48 274zM117 117v0zM174 -118v0zM188 -119v0zM287 -49v0z" />
    <glyph glyph-name="K" unicode="K" horiz-adv-x="468" 
d="M205 345c8 -8.66667 16.3333 -29 25 -61c56.6667 43.3333 105 88.6667 145 136c2 2 4.66667 5 8 9c71.3333 77.3333 125.333 153.333 162 228c2 4.66667 4.33333 9 7 13c5.33333 13.3333 13.3333 18.3333 24 15c3.33333 -0.666667 6.16667 -2.83333 8.5 -6.5
s1.83333 -9.16667 -1.5 -16.5c-26.6667 -53.3333 -60.3333 -105.667 -101 -157c-70.6667 -89.3333 -131 -155.667 -181 -199c-24.6667 -21.3333 -45.6667 -39 -63 -53c22 -84 44.3333 -141.333 67 -172c4 -5.33333 6.66667 -9 8 -11
c32.6667 -42.6667 66.6667 -68.6667 102 -78c3.33333 -0.666667 6.33333 -2 9 -4c8.66667 -5.33333 9 -13.3333 1 -24c-3.33333 -4 -8.33333 -6 -15 -6s-15.3333 2 -26 6c-40.6667 16.6667 -73.6667 44.3333 -99 83l-16 25c-22 36.6667 -42.3333 90 -61 160
c-30.6667 -20.6667 -55 -31.3333 -73 -32c-33.3333 -66.6667 -58.3333 -121.333 -75 -164c6.66667 -8.66667 5 -17.3333 -5 -26c-6 -5.33333 -12 -8 -18 -8c-4 0 -8 1.16667 -12 3.5c-4 2.33333 -4.83333 6.16667 -2.5 11.5s6.66667 16.1667 13 32.5
c6.33333 16.3333 11.5 29.1667 15.5 38.5c12 28 31 68 57 120c-8.59524 7.69048 -12.8929 18.2972 -12.8929 31.8202c0 6.40561 0.964286 13.4656 2.89286 21.1798c6.66667 28 22.3333 54 47 78c12.6667 12 24.3333 18 35 18c32 70.6667 52.6667 123.333 62 158
c6 22.6667 11 42 15 58c5.37778 23.9556 8.06667 41.0993 8.06667 51.4311c0 3.75704 -0.355556 6.61333 -1.06667 8.56889c-2.66667 9.33333 -1.33333 16.5 4 21.5s11.6667 7.83333 19 8.5c8.06667 -0.733333 12.1 -9.23083 12.1 -25.4925
c0 -13.305 -2.7 -31.8075 -8.1 -55.5075c-4 -16 -9 -34.6667 -15 -56c-14 -46.6667 -37.6667 -107 -71 -181zM157 306c-11.3333 -12.6667 -18 -22.6667 -20 -30c-4 -12 -6.33333 -20.3333 -7 -25c8.66667 16.6667 17.6667 35 27 55zM185 302c-10.6667 -22 -21 -43 -31 -63
c12.6667 4 27.6667 11.6667 45 23c-5.33333 17.3333 -10 30.6667 -14 40z" />
    <glyph glyph-name="L" unicode="L" horiz-adv-x="451" 
d="M163 262c-2.66667 -1.33333 -5.66667 -3.66667 -9 -7c-6 -6 -13.6667 -16.3333 -23 -31c-8 -12.6667 -16.6667 -28.3333 -26 -47c-10 -18.6667 -18.3333 -35.3333 -25 -50c-14.6667 -32 -22.3333 -54 -23 -66c0 -1.33333 0.666667 -2 2 -2c8 4 19.6667 15 35 33
c12 13.3333 24.3333 28 37 44c12 15.3333 23.6667 32 35 50c7.33333 11.3333 11.3333 17 12 17l-1 6c-3.33333 34 -7 51.3333 -11 52l-1 1h-2zM445 629c0.666667 1.33333 1.66667 3 3 5c1.33333 2.66667 2.33333 4.83333 3 6.5s1.66667 3.5 3 5.5
c0.666667 1.33333 0.666667 2.66667 0 4c0 0.666667 -0.666667 1.33333 -2 2c-3.33333 0 -11.3333 -3.33333 -24 -10c-1.33333 3.33333 0.666667 7.66667 6 13c6 6 12.6667 11 20 15c10.6667 6 19.3333 8 26 6c4.66667 -1.33333 8 -4 10 -8c2 -2.66667 3 -5.66667 3 -9
s-0.666667 -6 -2 -8c-15.3333 -26.6667 -30 -52 -44 -76c-16.6667 -28.6667 -32.3333 -56.3333 -47 -83c-14 -24 -28 -47.3333 -42 -70c-16 -26.6667 -31.3333 -51.6667 -46 -75c-12.6667 -20 -24.6667 -39 -36 -57c-21.3333 -34 -41.6667 -64.3333 -61 -91
c0 -13.3333 1 -25.6667 3 -37c4.66667 -38.6667 15 -67.3333 31 -86c4 -4.66667 9 -9 15 -13c5.33333 -4 11 -8 17 -12c5.33333 -3.33333 11.3333 -6.33333 18 -9c20 -8 40 -12 60 -12c19.3333 0.666667 35.6667 2.66667 49 6c2 0.666667 2.66667 0 2 -2
c-2.66667 -5.33333 -6.33333 -10 -11 -14c-4 -4 -9 -7.33333 -15 -10c-12 -5.33333 -22.6667 -8.33333 -32 -9c-26 0 -49 3.33333 -69 10c-20 6.66667 -37.6667 17.3333 -53 32c-7.33333 7.33333 -13.6667 15.3333 -19 24c-8.66667 13.3333 -15.6667 28.3333 -21 45
c-4 13.3333 -6.33333 27.3333 -7 42c-26.6667 -34.6667 -41.6667 -54.3333 -45 -59c-30 -38 -59 -67.3333 -87 -88c-8.66667 -6.66667 -15.6667 -10 -21 -10c-2.66667 0 -5 1 -7 3c-2.79793 1.86529 -3.08333 5.45119 -3.08333 10.1528
c0 12.1204 3.36111 30.4028 10.0833 54.8472c4 14 12.6667 36 26 66c6 13.3333 13.3333 28.6667 22 46c10.6667 22.6667 24.6667 46.6667 42 72c16.6667 24 29.6667 41.3333 39 52c6.34667 7.70667 12.6933 11.56 19.04 11.56l8.96 -2.56
c2.66667 -1.33333 5.33333 -3.66667 8 -7c1.33333 -2 2.33333 -4 3 -6c1.33333 -2.66667 2.66667 -6 4 -10s2 -7.66667 2 -11c0.666667 -3.33333 1.33333 -7.33333 2 -12c0.666667 -4 1.33333 -7.33333 2 -10v-4c0 -2.66667 0.333333 -4 1 -4
c11.3333 16.6667 22.8333 33.3333 34.5 50s22.8333 33.6667 33.5 51c16 24.6667 32 49.6667 48 75l44 72c16 26.6667 31.3333 53.6667 46 81z" />
    <glyph glyph-name="M" unicode="M" horiz-adv-x="444" 
d="M531 672c9.33333 8.66667 16.6667 13 22 13c2.66667 0 5 -1 7 -3c-12 -37.3333 -30.3333 -80.6667 -55 -130c-15.3333 -36 -40 -87.8333 -74 -155.5s-62.6667 -128.833 -86 -183.5c-21.3333 -49.3333 -36.6667 -94.6667 -46 -136c-0.666667 -4 -1.66667 -8 -3 -12
c-1.33333 -9 -2 -16.6667 -2 -23c0 -6.33333 0.666667 -11.3333 2 -15c2.66667 -8 9 -11.3333 19 -10c6.66667 0.666667 9.33333 -0.333333 8 -3c-1.33333 -7.33333 -8.66667 -11.3333 -22 -12c-2.66667 0 -5 -0.333333 -7 -1c-11.3333 0 -20 3 -26 9
c-5.63333 5.2 -8.45 13.2167 -8.45 24.05c0 5.83333 0.816667 12.4833 2.45 19.95c0.666667 3.33333 1.33333 6.33333 2 9c12 51.3333 25.6667 95.3333 41 132c16.6667 38.6667 48 104.333 94 197c0.666667 0.666667 0.666667 1 0 1h-1
c-14.6667 -20.6667 -27.6667 -38.1667 -39 -52.5s-24.6667 -29.8333 -40 -46.5s-30.6667 -29.5 -46 -38.5s-30.3333 -13.8333 -45 -14.5h-2c-10.6667 0 -19.3333 3.66667 -26 11c-7.33333 8 -12 18.5 -14 31.5s-3 25 -3 36s0.333333 22.1667 1 33.5v1
c-0.666667 0 -1 -0.333333 -1 -1c-41.3333 -92.6667 -81.3333 -203.333 -120 -332c-6.66667 -12.6667 -14 -19.6667 -22 -21h-2c-8 0 -11 7 -9 21c0.666667 4.66667 1.66667 10.3333 3 17c32.6667 121.333 85.3333 259.333 158 414c32.6667 68.6667 56 121 70 157
c13.3333 34.6667 24.3333 52.6667 33 54c8 1.33333 11.6667 -0.666667 11 -6c-1.33333 -9.33333 -3.33333 -19.6667 -6 -31c-7.33333 -33.3333 -20.3333 -75.3333 -39 -126c-20 -55.3333 -33.3333 -97 -40 -125c-1.33333 -7.33333 -2.33333 -13.6667 -3 -19
c-1.92063 -14.4921 -2.88095 -27.0864 -2.88095 -37.7829c0 -30.1447 7.62698 -45.2171 22.881 -45.2171c8 0 18.3333 4.33333 31 13c34 22.6667 72.6667 65.6667 116 129c28 44 55 91.3333 81 142c25.3333 51.3333 47.3333 89.6667 66 115z" />
    <glyph glyph-name="N" unicode="N" horiz-adv-x="538" 
d="M378 27c-18.6667 -18.023 -34.8474 -27.0345 -48.5422 -27.0345c-0.4891 0 -0.97503 0.0114943 -1.45779 0.0344828c-2.66667 0 -5.33333 0.333333 -8 1c-16.6667 4 -30.1667 16.3333 -40.5 37c-10.3333 20.6667 -17.8333 45.6667 -22.5 75
c-4.66667 29.3333 -7.66667 62.3333 -9 99c-0.761905 18.4762 -1.14286 36.9796 -1.14286 55.5102c0 46.3265 2.38095 92.8231 7.14286 139.49c-94.6667 -168 -155.667 -294.667 -183 -380c-10 -31.3333 -21 -47.6667 -33 -49h-1c-3.33333 0 -6.33333 1.66667 -9 5
c-3.33333 4 -3.5 12.5 -0.5 25.5s14 42.8333 33 89.5c19 46.6667 57.1667 123 114.5 229c56 103.333 88 172 96 206v2c0.666667 2 1.33333 4.33333 2 7c1.52381 6.47619 2.28571 13.0612 2.28571 19.7551c0 5.02041 -0.428571 10.102 -1.28571 15.2449
c-1.33333 8.66667 -4.66667 13 -10 13c-3.33333 0 -7 -1.66667 -11 -5c-2 -2 -4.66667 -5 -8 -9l-2 -2c-0.666667 0 -0.666667 1.66667 0 5v1c5.33333 20.6667 14.3333 38.1667 27 52.5s22.3333 21.8333 29 22.5h1c6 0 10 -7.33333 12 -22
c0.26087 -2 0.391304 -4.73724 0.391304 -8.21172c0 -23.1632 -5.7971 -79.0926 -17.3913 -167.788c-10.0465 -56.3721 -15.0698 -112.861 -15.0698 -169.467c0 -11.0067 0.189922 -22.0178 0.569767 -33.0333c2.33333 -67.6667 9.16667 -120.5 20.5 -158.5
c10.6667 -36 22 -54.3333 34 -55c0.666667 0 1.33333 0.333333 2 1c18.6667 4.66667 37.6667 24.3333 57 59c23.3333 41.3333 41.5 79.3333 54.5 114s23.1667 62.3333 30.5 83s16.3333 47 27 79c14.6667 46.6667 27 86.3333 37 119c26.6667 88.6667 42.1667 136 46.5 142
s7.83333 10.3333 10.5 13s5 4.66667 7 6s4.66667 2.5 8 3.5s5.5 1.66667 6.5 2s3.66667 0.833333 8 1.5s8.16667 1.33333 11.5 2s6.33333 1.33333 9 2l-4 -4c-17.3333 -12.6667 -27 -22.3333 -29 -29s-11.6667 -38.5 -29 -95.5s-32.3333 -105.833 -45 -146.5
c-38.6667 -122 -75.6667 -219 -111 -291c-13.3333 -28.6667 -31.3333 -53.6667 -54 -75z" />
    <glyph glyph-name="O" unicode="O" horiz-adv-x="405" 
d="M399 673c51.3333 0 84.6667 -22 100 -66c3.62963 -10.3704 5.44444 -21.749 5.44444 -34.1358c0 -3.53909 -0.148148 -7.16049 -0.444444 -10.8642c-8 -76.6667 -34.6667 -163.667 -80 -261c-30 -63.3333 -66.6667 -122.333 -110 -177c-28 -35.3333 -53 -61.6667 -75 -79
c-37.3333 -29.3333 -67.3333 -44 -90 -44c-21.3333 0 -39.3333 8 -54 24c-16.9312 20.3175 -25.3968 52.5943 -25.3968 96.8304c0 25.4358 2.79894 54.8256 8.39683 88.1696c1.33333 8.66667 3 17.3333 5 26c20.6667 90.6667 74.3333 185.667 161 285
c32.6667 36.6667 63.3333 62.3333 92 77c12.6667 8 23.1667 12 31.5 12s14.5 -1 18.5 -3c7.33333 -4.66667 12.6667 -12 16 -22c1.33333 -3.33333 1 -7.33333 -1 -12c-2 -10 -8.33333 -23.3333 -19 -40c-15.3333 -23.3333 -25.3333 -35 -30 -35
c-0.666667 0.666667 -0.5 3 0.5 7s2.83333 10 5.5 18c6 14.6667 10 25.6667 12 33v3c0.666667 6.66667 -3.33333 10 -12 10h-4c-11.3333 -0.666667 -27.8333 -10.3333 -49.5 -29s-40.8333 -39 -57.5 -61c-66.6667 -86 -108.333 -165 -125 -237
c-8 -36 -12.5 -64.5 -13.5 -85.5c-0.142857 -3 -0.214286 -6.0102 -0.214286 -9.03061c0 -18.1224 2.57143 -36.6122 7.71429 -55.4694c8 -28.6667 19.6667 -44.6667 35 -48c1.93798 -0.387597 3.98414 -0.581395 6.13845 -0.581395
c16.3728 0 38.9933 11.1938 67.8615 33.5814c39.3333 30 80 78.6667 122 146c32.6667 52 62.3333 120 89 204c10.6667 34 19 62.6667 25 86l3 14c2.17778 10.8889 3.26667 21.0519 3.26667 30.4889c0 31.0074 -11.7556 54.1778 -35.2667 69.5111
c-11.3333 8 -27.5 12 -48.5 12s-35.5 -2.5 -43.5 -7.5s-14.1667 -9.66667 -18.5 -14s-7.5 -8.5 -9.5 -12.5c-9.33333 -14.6667 -16 -24 -20 -28c0 1.33333 0.333333 3.66667 1 7c1.33333 4.66667 4 11.6667 8 21l12 28c4.66667 11.3333 15.3333 20.6667 32 28
c16 8 34 12 54 12zM312 605v0zM386 607v0z" />
    <glyph glyph-name="P" unicode="P" horiz-adv-x="512" 
d="M133 47c-7.33333 -30.6667 -17.6667 -46 -31 -46c-7.33333 0 -11.6667 3.66667 -13 11c-0.380952 2.28571 -0.571429 4.81633 -0.571429 7.59184c0 6.93878 1.19048 15.4082 3.57143 25.4082c6.66667 28 14.3333 52 23 72c5.33333 10.6667 11 21.5 17 32.5
s12.6667 23 20 36s13.3333 23.5 18 31.5c-31.3333 6.66667 -52.3333 14.6667 -63 24c-5.33333 4.66667 -5.33333 14.3333 0 29c2.66667 4.66667 4.66667 7.33333 6 8c26.6667 -14.6667 52.3333 -23.3333 77 -26c3.33333 4.66667 12 18 26 40
c62.6667 96 101.667 161.667 117 197c0.666667 2 1.66667 4.33333 3 7c4 9.33333 6.83333 16.3333 8.5 21s3.83333 9.66667 6.5 15s5.33333 8.66667 8 10c2 2 3.66667 3 5 3c5.33333 0 9 -5.66667 11 -17c0.666667 -5.33333 1 -10.1667 1 -14.5
c0 -4.33333 -0.333333 -8.5 -1 -12.5c-7.33333 -17.3333 -15.5 -34.6667 -24.5 -52s-19.1667 -35.3333 -30.5 -54s-20.8333 -34.1667 -28.5 -46.5s-18.5 -29.5 -32.5 -51.5s-23.6667 -37.3333 -29 -46c54.6667 3.33333 115.333 20.3333 182 51c13.3333 6 26 12.5 38 19.5
s23.5 14.3333 34.5 22s21.5 15.6667 31.5 24s19.6667 16.8333 29 25.5c29.3333 30.6667 48.3333 63.6667 57 99c3.21905 13.1238 4.82857 25.6038 4.82857 37.44c0 20.0305 -4.60952 38.2171 -13.8286 54.56c-12.6667 21.3333 -34 35.3333 -64 42
c-8.66667 2 -17.6667 3.66667 -27 5c-10.7018 0.877193 -21.3804 1.31579 -32.036 1.31579c-29.8356 0 -59.4903 -3.4386 -88.964 -10.3158c-30 -8 -53.1667 -14.6667 -69.5 -20s-36.3333 -14.1667 -60 -26.5c-23.6667 -12.3333 -45.5 -27.8333 -65.5 -46.5
c-2.66667 -2.66667 -4.83333 -5.16667 -6.5 -7.5s-2.83333 -4.5 -3.5 -6.5c-0.666667 -1.33333 -0.666667 -3 0 -5c0 -0.666667 0.333333 -1 1 -1l2.5 -2.5l4 -4c1.66667 -1.66667 3.83333 -3.5 6.5 -5.5c0.666667 -0.666667 2.16667 -2 4.5 -4s3.83333 -3.33333 4.5 -4
s1.33333 -1.66667 2 -3l2 -4v-2c-0.666667 -1.33333 -1.66667 -2.33333 -3 -3s-3.66667 -0.333333 -7 1s-7.33333 3.33333 -12 6c-5.33333 3.33333 -9.83333 6 -13.5 8s-5.83333 3.33333 -6.5 4c-2 0.666667 -4 1.66667 -6 3c-1.33333 0.666667 -2.66667 2 -4 4
c-0.666667 2 -1.66667 4.66667 -3 8c-2 7.33333 -0.666667 13.3333 4 18c3.33333 2.66667 11.3333 10 24 22c27.3333 25.3333 56.6667 46.5 88 63.5c31.3333 17 65 30.1667 101 39.5c20 5.33333 38.8333 9.33333 56.5 12s34.1667 4 49.5 4
c8.66667 0 16.6667 -0.333333 24 -1c27.3333 -2 51 -7 71 -15s35.1667 -17.5 45.5 -28.5s18.1667 -24.1667 23.5 -39.5s8 -30.1667 8 -44.5s-1.33333 -29.8333 -4 -46.5c-9.33333 -40.6667 -31.3333 -78.6667 -66 -114s-73.3333 -65.3333 -116 -90
c-42 -24 -85 -42.8333 -129 -56.5s-84.3333 -20.5 -121 -20.5c-40.6667 -73.3333 -65.3333 -129 -74 -167z" />
    <glyph glyph-name="Q" unicode="Q" horiz-adv-x="489" 
d="M125 253c-2.66667 -8.66667 -5 -17.3333 -7 -26c-6.06061 -25.4545 -9.09091 -50.6336 -9.09091 -75.5372c0 -2.49036 0.030303 -4.97796 0.0909091 -7.46281c1.33333 -36.6667 10.3333 -64 27 -82c15.36 -15.36 32.8704 -23.04 52.5312 -23.04
c0.8192 0 1.64213 0.0133333 2.4688 0.04c13.3333 0 27.6667 3.33333 43 10c17.3333 8 38.3333 19.3333 63 34v1c1.33333 1.33333 5.16667 4.16667 11.5 8.5s12.3333 8.66667 18 13s9.5 7.83333 11.5 10.5l1 1c-8 36 -13.6667 77 -17 123v13v10.5c0 3 0.333333 5.5 1 7.5v4
c1.33333 4.66667 3 8.66667 5 12c2 4 4.66667 7 8 9h1l1 1l3 1h1c4 0 7.33333 -2.33333 10 -7c2.66667 -73.3333 9.33333 -122 20 -146c0 -0.666667 0.333333 -0.666667 1 0c42.6667 38 79 87.3333 109 148c26 53.3333 44.3333 104.667 55 154
c1.33333 6.66667 3 13.3333 5 20c3.04505 17.3333 4.56757 33.5145 4.56757 48.5435c0 27.7458 -5.18919 51.5646 -15.5676 71.4565c-14.6667 28.6667 -39 43 -73 43c-3.33333 0 -6.66667 -0.333333 -10 -1c-30 -2 -62.5 -16 -97.5 -42s-67 -57.8333 -96 -95.5
c-29 -37.6667 -55.1667 -77.8333 -78.5 -120.5s-40.3333 -82 -51 -118zM580 490c-2 -9.33333 -4 -18.3333 -6 -27c-14.6667 -64.6667 -37.3333 -128 -68 -190c-32.6667 -67.3333 -74 -122.333 -124 -165l-1 -1c6.66667 -22 13.6667 -39.3333 21 -52
c7.33333 -12 19.6667 -23.3333 37 -34c17.3333 -10 41 -17.3333 71 -22h1c1.33333 0 2.33333 0.333333 3 1c4 0 6.33333 -0.666667 7 -2c1.33333 -0.666667 1.66667 -2 1 -4v-1c0 -0.666667 -0.333333 -1 -1 -1c-3.125 -9.375 -12.4023 -14.0625 -27.832 -14.0625
c-1.02865 0 -2.08464 0.0208333 -3.16797 0.0625c-36 0.666667 -66.3333 9.33333 -91 26c-22.6667 15.3333 -39.3333 39.6667 -50 73c0 0.666667 -0.666667 0.666667 -2 0c-62.6667 -47.3333 -116 -72.6667 -160 -76c-4.66667 -0.666667 -9.33333 -0.666667 -14 0
c-18.6667 0 -31.6667 2.33333 -39 7c-27.3333 18.6667 -45.8333 44.5 -55.5 77.5c-5.28931 18.0566 -7.93396 38.2589 -7.93396 60.6068c0 18.4948 1.81132 38.4592 5.43396 59.8932c0.666667 0.666667 0.666667 1.66667 0 3c14 59.3333 36 117.667 66 175
c30.6667 57.3333 64 106.333 100 147c36.6667 40.6667 75 73.6667 115 99c36 22.6667 72.3333 35.3333 109 38c3.33333 0 6.66667 0.333333 10 1c25.3333 0 47 -8.66667 65 -26c20 -20 32.6667 -43.6667 38 -71c3.17647 -14.8235 4.76471 -29.4602 4.76471 -43.91
c0 -12.8443 -1.2549 -25.5409 -3.76471 -38.09z" />
    <glyph glyph-name="R" unicode="R" horiz-adv-x="540" 
d="M201 280c1.33333 2 2.66667 4.33333 4 7s3 5.66667 5 9s4 7 6 11l7 14c10.6667 20 19 35.6667 25 47c-3.33333 0 -6.5 -0.666667 -9.5 -2s-6.16667 -2.83333 -9.5 -4.5s-6.33333 -3.83333 -9 -6.5c-7.33333 -6 -13.6667 -14.6667 -19 -26
c-4.66667 -9.33333 -7 -17.6667 -7 -25c0 -3.33333 0.333333 -6.33333 1 -9s1.5 -5.33333 2.5 -8s2.16667 -5 3.5 -7zM274 361c-3.33333 -6.66667 -7.33333 -14.1667 -12 -22.5s-9.66667 -17.8333 -15 -28.5c-11.3333 -20.6667 -19.3333 -36 -24 -46
c10.3889 -5.35185 21.2238 -8.02778 32.5046 -8.02778c12.608 0 25.7731 3.34259 39.4954 10.0278c0 2.66667 -0.166667 6.16667 -0.5 10.5s-0.5 9.83333 -0.5 16.5c0 12.6667 -0.333333 22.8333 -1 30.5s-2.66667 15.5 -6 23.5c-1.33333 4 -3.16667 7 -5.5 9
s-4.83333 3.66667 -7.5 5zM99 20c-0.666667 -1.33333 -1.33333 -2.83333 -2 -4.5s-1.33333 -3.16667 -2 -4.5c-2.66667 -4 -10.3333 -7 -23 -9c-7.33333 -0.666667 -9.66667 4 -7 14c3.33333 10.6667 18.6667 43.6667 46 99c10.6667 21.3333 24.6667 47.3333 42 78
c16 29.3333 25.3333 46.3333 28 51c-4 5.33333 -7.33333 10 -10 14c-1.33333 2 -2.33333 3.83333 -3 5.5s-1.33333 3.16667 -2 4.5c-1.33333 3.33333 -2.33333 6.66667 -3 10c0 1.33333 -0.166667 2.83333 -0.5 4.5s-0.5 3.83333 -0.5 6.5
c-0.190476 2.09524 -0.285714 4.21088 -0.285714 6.34694c0 12.8163 3.42857 26.3673 10.2857 40.6531c7.33333 15.3333 18.6667 29.6667 34 43c9.33333 8 21.3333 14.6667 36 20c1.33333 0.666667 2.83333 1.16667 4.5 1.5s3.5 0.833333 5.5 1.5c4 0.666667 7.33333 1 10 1
h3l11 26c2 4.66667 3.66667 8.83333 5 12.5s2.33333 6.83333 3 9.5c0.666667 2 1.33333 4.16667 2 6.5s1.5 5 2.5 8l3.5 10.5c3.33333 11.3333 6 20 8 26c3.33333 8.66667 5.33333 13.6667 6 15c1.33333 2 4.33333 3 9 3s8 -0.333333 10 -1s3.33333 -2.16667 4 -4.5
s0.333333 -6.16667 -1 -11.5c-3.33333 -12.6667 -8 -27.6667 -14 -45s-13.3333 -37 -22 -59c9.33333 -2.66667 16.6667 -9.66667 22 -21c4 -8.66667 6.83333 -20.3333 8.5 -35s2.5 -29 2.5 -43v-8v-6.5v-4.5v-3c8.66667 4 17.1667 8.33333 25.5 13s16.5 9.5 24.5 14.5
s15.6667 10 23 15s14.6667 10.3333 22 16s14.3333 11.5 21 17.5s13 12 19 18c38.6667 38 64.6667 81.3333 78 130c3.4386 16.4561 5.15789 31.4192 5.15789 44.8892c0 23.0914 -5.05263 41.795 -15.1579 56.1108c-16 22.6667 -45 34.3333 -87 35
c-59.3333 0 -126.667 -25.6667 -202 -77c-13.3333 -8.66667 -31 -23.6667 -53 -45c-18 -20 -32.3333 -35.6667 -43 -47s-19.3333 -20 -26 -26l-12 -9c-1.33333 -1.33333 -2.33333 -1.33333 -3 0c-0.666667 0.666667 -0.666667 2 0 4c8 33.3333 34 70.6667 78 112
c39.3333 36.6667 84.6667 67.3333 136 92c24 11.3333 46.8333 19.8333 68.5 25.5s41.8333 8.5 60.5 8.5h7c6.66667 0 13.3333 -0.5 20 -1.5s13.1667 -2.33333 19.5 -4s12.5 -3.5 18.5 -5.5c14.6667 -4.66667 27.3333 -12.6667 38 -24c10 -12 17.3333 -25 22 -39
c2 -7.33333 3.66667 -14.8333 5 -22.5s2.33333 -15.8333 3 -24.5c0.0952381 -2.38095 0.142857 -4.7619 0.142857 -7.14286c0 -14.2857 -1.71429 -28.5714 -5.14286 -42.8571c-8 -35.3333 -23.6667 -70 -47 -104c-38.6667 -56.6667 -104.667 -108.333 -198 -155
c6.66667 -48.6667 15 -90.1667 25 -124.5c10 -34.3333 21.3333 -62.1667 34 -83.5c6 -9.33333 14 -15.3333 24 -18c1.33333 -0.666667 3.33333 -1.16667 6 -1.5s5.66667 -0.833333 9 -1.5c11.3333 -1.33333 17.3333 -2.66667 18 -4c1.33333 -2.66667 -2 -5.66667 -10 -9
c-0.666667 0 -1.33333 -0.333333 -2 -1l-3 -1c-10.4167 -4.16667 -19.5312 -6.25 -27.3438 -6.25c-4.6875 0 -8.90625 0.75 -12.6562 2.25c-14.6667 5.33333 -25.8333 12.8333 -33.5 22.5s-16.1667 27.5 -25.5 53.5c-12.6667 39.3333 -23.6667 92.6667 -33 160
c-20 -7.33333 -36.8333 -11.1667 -50.5 -11.5c-0.719298 -0.0175439 -1.43906 -0.0263158 -2.15928 -0.0263158c-12.964 0 -26.0776 2.84211 -39.3407 8.52632c-45.3333 -82 -79.3333 -149 -102 -201c-1.33333 -4 -2.66667 -7.33333 -4 -10z" />
    <glyph glyph-name="S" unicode="S" horiz-adv-x="425" 
d="M378 404c2.66667 18 5 33.8333 7 47.5s4.66667 28.8333 8 45.5c1.33333 5.33333 2.33333 10.3333 3 15c2.66667 10.6667 5.33333 20.6667 8 30c5.33333 16.6667 10.6667 30 16 40c14 30 31.6667 52.6667 53 68c19.8056 14.6944 38.3866 22.0417 55.7431 22.0417
c0.75463 0 1.50694 -0.0138889 2.25694 -0.0416667h2h3c17.3333 -2.66667 27.6667 -10 31 -22c1.38889 -5.27778 2.08333 -11.3657 2.08333 -18.2639c0 -9.65741 -1.36111 -20.9028 -4.08333 -33.7361c-3.33333 -14 -8.33333 -29 -15 -45
c-18 -42 -50.6667 -91.3333 -98 -148c-24.6667 -29.3333 -39.6667 -47.3333 -45 -54c-2 -13.3333 -3.66667 -25 -5 -35c-2.66667 -18 -4.83333 -31.3333 -6.5 -40s-4.16667 -22.3333 -7.5 -41c-2 -11.3333 -4 -21.3333 -6 -30c-1.33333 -6 -2.66667 -11 -4 -15
c-1.33333 -6 -3.16667 -12.6667 -5.5 -20s-4.5 -15.3333 -6.5 -24c-13.3333 -41.3333 -29 -73.6667 -47 -97c-9.33333 -13.3333 -20.3333 -23.6667 -33 -31c-18 -11.3333 -35 -17 -51 -17h-1c-16 0 -33 6 -51 18c-16 10.6667 -32 29.3333 -48 56
c0 0.666667 -0.666667 0.666667 -2 0c-26.6667 -24 -49.3333 -42.6667 -68 -56c-18 -13.3333 -38.6667 -25.3333 -62 -36h-1h-3c-4.66667 0 -7 2.66667 -7 8v1l1 1c14 14 36.6667 34 68 60c29.3333 24.6667 50.3333 43 63 55c0.666667 0.666667 0.666667 1 0 1
c-2 6.66667 -3.83333 13 -5.5 19s-2.83333 12.1667 -3.5 18.5s-1 13.1667 -1 20.5c0 10.6667 1 21 3 31c2.66667 11.3333 6.66667 22 12 32c12.6667 22.6667 29.6667 41 51 55c1.33333 0.666667 2.66667 0.666667 4 0c2.66667 0 4.66667 -1.33333 6 -4
c0.666667 -2.66667 1.16667 -5.66667 1.5 -9s0.5 -7.66667 0.5 -13c-0.111111 -4.88889 -0.166667 -9.50926 -0.166667 -13.8611c0 -21.7593 1.38889 -36.8056 4.16667 -45.1389c2.66667 -9.33333 5.33333 -15 8 -17h2c77.3333 80.6667 132.333 139.667 165 177h1
c0.666667 6 1.66667 12.6667 3 20s2.33333 15.3333 3 24zM378 404v0zM190 281v0zM536 672v0zM517 637c-39.3333 0 -68.6667 -41.6667 -88 -125c-0.666667 -2 -1 -4 -1 -6c-8 -36 -14.3333 -71 -19 -105c0 -0.666667 0.333333 -0.666667 1 0c36 38.6667 64.6667 74 86 106
c18 28 30.3333 56.6667 37 86c1.33333 4.66667 2.33333 9 3 13c1.33333 9.33333 1 16.3333 -1 21c-4 6.66667 -10 10 -18 10zM367 307c-11.3333 -12.6667 -31.3333 -33.6667 -60 -63c-15.3333 -16 -33.6667 -34.3333 -55 -55h-1
c-0.666667 -1.33333 -3.66667 -4.66667 -9 -10c-2 -2 -4 -4.33333 -6 -7c-4.66667 -4.66667 -7.66667 -7.33333 -9 -8c-0.666667 -0.666667 -0.666667 -1.33333 0 -2c14 -9.33333 38 -14 72 -14c10 0 20.6667 0.333333 32 1l2 -1c0 -0.666667 -1 -1.66667 -3 -3
c-16 -6 -29 -10.3333 -39 -13c-6.93333 -2.13333 -15.7867 -3.2 -26.56 -3.2c-2.69333 0 -5.50667 0.0666667 -8.44 0.2h-4c-16.6667 0 -32.6667 3.33333 -48 10h-1c-10 -9.33333 -22.6667 -21 -38 -35c-0.666667 -0.666667 -0.666667 -1 0 -1c22 -47.3333 47 -71 75 -71
c7.33333 0 14.6667 1.66667 22 5c37.3333 14.6667 66.3333 67.3333 87 158c2.66667 10.6667 5.16667 22 7.5 34s4.5 24.3333 6.5 37c2.66667 18 4.66667 31.6667 6 41c0 0.666667 -0.333333 1 -1 1zM164 238c-1.33333 0 -2.66667 -1.33333 -4 -4
c-6.66667 -10 -11.3333 -20.3333 -14 -31c-1.33333 -6 -2 -12 -2 -18c-0.0606061 -2 -0.0909091 -3.95868 -0.0909091 -5.87603c0 -19.1736 3.0303 -34.2149 9.09091 -45.124c0 -0.666667 0.333333 -0.666667 1 0c4.66667 3.33333 9.33333 7 14 11
c3.33333 2.66667 6 5.16667 8 7.5s3.33333 4.16667 4 5.5v1c-6.66667 8.66667 -11.6667 19.3333 -15 32c-1.18519 5.03704 -1.77778 10.6008 -1.77778 16.6914c0 7.61317 0.925926 16.0494 2.77778 25.3086c0 2.66667 -0.333333 4.33333 -1 5h-1z" />
    <glyph glyph-name="T" unicode="T" horiz-adv-x="542" 
d="M798 687c10.0119 0 15.0179 -1.0727 15.0179 -3.21811c0 -1.99745 -4.33929 -4.92474 -13.0179 -8.78189h-1c-16.6667 -8 -30.3333 -14 -41 -18c-42 -16.6667 -100 -38.3333 -174 -65c-16.6667 -6 -53.3333 -19 -110 -39c-20 -49.3333 -42.6667 -106 -68 -170
c-7.33333 -33.3333 -12 -56 -14 -68c0 -0.666667 -1.66667 -9.16667 -5 -25.5s-6 -28.1667 -8 -35.5c-7.33333 -31.3333 -13.3333 -55.3333 -18 -72c-15.3333 -50.6667 -30.3333 -90.6667 -45 -120c-13.3333 -26.6667 -24.6667 -44.6667 -34 -54
c-2.66667 -2.66667 -5.83333 -4.66667 -9.5 -6c-3.66667 -1.33333 -7.33333 -2 -11 -2s-7 1.66667 -10 5c-3.76927 4.18808 -4.65385 11.0611 -4.65385 19.3905c0 18.5089 7.38462 48.3787 22.1538 89.6095c27.3333 74.6667 70.3333 186 129 334
c1.51515 17.2727 2.27273 31.9972 2.27273 44.1736c0 14.6116 -1.09091 25.5537 -3.27273 32.8264c-2.66667 -1.33333 -4.5 -2.16667 -5.5 -2.5l-7.5 -2.5c-12.6667 -4.66667 -25.5 -9.16667 -38.5 -13.5s-26 -8.33333 -39 -12s-22.1667 -6.5 -27.5 -8.5
c-34 -11.3333 -65 -19.3333 -93 -24c-17.0667 -2.84444 -32.9956 -4.26667 -47.7867 -4.26667c-12.9422 0 -25.0133 1.08889 -36.2133 3.26667c-7.33333 1.33333 -15 4.5 -23 9.5s-12.6667 10.5 -14 16.5c-0.296296 2.96296 -0.444444 5.8107 -0.444444 8.54321
c0 9.56379 1.81481 17.716 5.44444 24.4568c4.66667 8.66667 13.3333 18.6667 26 30c30 27.3333 68 48 114 62c32 9.33333 64 14 96 14c62.6667 -0.666667 100.667 -19.6667 114 -57c7.33333 2.66667 17.3333 6.33333 30 11c3.33333 9.33333 6 16.6667 8 22
c5.33333 5.33333 11.6667 8.66667 19 10s13 -2.33333 17 -11c0 -0.666667 -0.5 -1.66667 -1.5 -3s-1.5 -2.33333 -1.5 -3c12 4.66667 22.6667 8.33333 32 11c117.333 40 190.333 64.3333 219 73c13.3333 4 31 6.66667 53 8h3zM299 595h-16
c-47.3333 -3.33333 -91 -16.3333 -131 -39c-6.66667 -4 -13.3333 -8.33333 -20 -13c-6.66667 -4.66667 -13.5 -10.1667 -20.5 -16.5s-11 -12.1667 -12 -17.5c-1 -5.33333 1.83333 -9.66667 8.5 -13c4.66667 -2 9.16667 -3.66667 13.5 -5s9.5 -2 15.5 -2h14.5
c3.66667 0 9 0.666667 16 2s11.8333 2.33333 14.5 3s8.33333 2 17 4s14 3 16 3c39.3333 8.66667 98 27.3333 176 56c-13.3333 25.3333 -44 38 -92 38zM434 539c-4.66667 -2 -9 -3.66667 -13 -5l2 -24c4.66667 12 8.33333 21.6667 11 29zM377 307
c-27.3333 -70 -45.6667 -117 -55 -141c-29.103 -77.8061 -43.6545 -121.482 -43.6545 -131.028c0 -1.16893 0.218182 -1.82612 0.654545 -1.97157c2.66667 0 7.16667 5.33333 13.5 16s12.8333 23.8333 19.5 39.5c6.66667 15.6667 13.1667 32.1667 19.5 49.5
c6.33333 17.3333 11.5 32.3333 15.5 45c10.6667 36 20.6667 77.3333 30 124z" />
    <glyph glyph-name="U" unicode="U" horiz-adv-x="452" 
d="M243 93c-28 -33.3333 -59.3333 -59.3333 -94 -78c-18 -10 -33.3333 -15 -46 -15h-5c-17.3333 2 -28.6667 10.6667 -34 26c-2 6 -3.5 12.1667 -4.5 18.5s-1.5 13.3333 -1.5 21c0 7.66667 0.166667 14.1667 0.5 19.5s1.5 12.8333 3.5 22.5c2 9.66667 3.33333 16.5 4 20.5
c0.666667 2 1.33333 5.33333 2 10c0.666667 3.33333 1.66667 7.66667 3 13c2.66667 11.3333 4.33333 18.3333 5 21c7.33333 30.6667 17.3333 64.6667 30 102c54 160.667 101 275.667 141 345c3.33333 5.33333 6.33333 8.66667 9 10c2.66667 1.33333 7.33333 2.33333 14 3h4
c3.33333 0 5.33333 -0.333333 6 -1c1.33333 -1.33333 1.66667 -4.33333 1 -9c-1.33333 -3.33333 -9.66667 -22 -25 -56c-10.6667 -22 -37 -87.3333 -79 -196c-32.6667 -84 -56 -155 -70 -213c-7.51111 -36.4 -11.2667 -63.0356 -11.2667 -79.9067
c0 -2.59556 0.0888889 -4.96 0.266667 -7.09333c2 -16.6667 8 -25.6667 18 -27c1.33333 0 3 -0.333333 5 -1c13.3333 0 29.6667 7.33333 49 22c40.6667 30.6667 81.3333 80.3333 122 149c30 50.6667 55.3333 94.6667 76 132s36 66.3333 46 87s25.3333 53 46 97
c20.6667 43.3333 40.3333 83.6667 59 121c2.66667 2.66667 9 3.66667 19 3c9.33333 0 14 -2 14 -6c-3.33333 -7.33333 -8.66667 -18.3333 -16 -33c-35.3333 -78.6667 -70 -164.333 -104 -257c-5.33333 -14.6667 -13.3333 -37 -24 -67s-19 -53.5 -25 -70.5
s-13 -37.6667 -21 -62s-14.6667 -46.8333 -20 -67.5c-0.666667 -3.33333 -1.66667 -6.66667 -3 -10c-3.04762 -13.3333 -4.57143 -24.5986 -4.57143 -33.7959c0 -6.89796 0.857143 -12.6327 2.57143 -17.2041c4 -12 11.6667 -18 23 -18c2 0 4.33333 0.333333 7 1l-9 -9
c-6 -3.33333 -12.3333 -5 -19 -5h-7c-16 4 -25.3333 11 -28 21c-1.06667 3.73333 -1.6 8.16 -1.6 13.28c0 7.68 1.2 16.92 3.6 27.72c0 1.33333 0.333333 2.66667 1 4c6.66667 27.3333 12.6667 50 18 68c8 25.3333 17.6667 54 29 86
c3.33333 9.33333 7.83333 21.3333 13.5 36c5.66667 14.6667 12 30.8333 19 48.5s12.5 31.1667 16.5 40.5c0 1.33333 -0.333333 2 -1 2s-1.66667 -0.333333 -3 -1c-45.3333 -83.3333 -73.6667 -134.667 -85 -154c-12 -20 -23.8333 -38 -35.5 -54s-22.8333 -30.3333 -33.5 -43
zM330 -2v0zM247 619v0zM330 -3zM247 619z" />
    <glyph glyph-name="V" unicode="V" horiz-adv-x="335" 
d="M462 628c-40 -54.6667 -109.333 -184.667 -208 -390c-40 -84 -67 -140 -81 -168c-12.6667 -24 -23.8333 -41.5 -33.5 -52.5s-20.5 -16.5 -32.5 -16.5c-14 0 -22.5 20.1667 -25.5 60.5c-0.9 12.1 -1.35 24.86 -1.35 38.28c0 31.3133 2.45 66.22 7.35 104.72
c7 55 19 119.5 36 193.5s28.5 122.333 34.5 145s9 34.3333 9 35c2.66667 10 6.66667 15.3333 12 16c7.33333 0 11.6667 -6.33333 13 -19c-6 -30 -14.8333 -71.6667 -26.5 -125s-20.3333 -93.6667 -26 -121s-11 -62.1667 -16 -104.5c-5 -42.3333 -7.5 -83.8333 -7.5 -124.5
c0 -28.6667 2.66667 -43 8 -43h1c4.66667 0 13.3333 13.3333 26 40c21.3333 42.6667 45 90.3333 71 143c26 52.6667 47.1667 95.6667 63.5 129s30.1667 60.3333 41.5 81c38.6667 71.3333 65 118 79 140c1.33333 1.33333 3 3.66667 5 7l22.5 33
c5 7.33333 12.5 15.5 22.5 24.5s21.3333 16.1667 34 21.5c15.3333 6.66667 24 10.3333 26 11c0.666667 0 0.666667 -0.333333 0 -1c0 -0.666667 -3.66667 -4.33333 -11 -11c-19.3333 -18 -33.6667 -33.6667 -43 -47z" />
    <glyph glyph-name="W" unicode="W" horiz-adv-x="440" 
d="M569 655c-2 -8.66667 -5.83333 -20.1667 -11.5 -34.5s-20.8333 -56.1667 -45.5 -125.5c-6 -15.3333 -16 -41.6667 -30 -79s-26.5 -70.1667 -37.5 -98.5s-22.1667 -55.5 -33.5 -81.5c-38 -88.6667 -72.3333 -152 -103 -190c-13.3333 -16 -24.3333 -27.3333 -33 -34
c-8 -6 -17 -9 -27 -9h-2c-6 0 -11.3333 1.5 -16 4.5s-8.5 6.5 -11.5 10.5s-5.83333 9 -8.5 15s-4.66667 11 -6 15s-3 9.33333 -5 16c-3.62963 12.963 -5.44444 28.749 -5.44444 47.358c0 5.31687 0.148148 10.8642 0.444444 16.642c0 6 0.666667 12.8333 2 20.5
s2.16667 13.5 2.5 17.5s-0.166667 6.66667 -1.5 8h-1c-2 0 -5 -3 -9 -9c-7.33333 -10.6667 -15.3333 -24.6667 -24 -42c-34 -64.6667 -60.3333 -97 -79 -97h-2c-10.6667 1.33333 -18 12.5 -22 33.5c-1.5 7.875 -2.25 16.3828 -2.25 25.5234
c0 15.2344 2.08333 32.2266 6.25 50.9766c10 42 40.3333 124.5 91 247.5c50.6667 123 79 188.667 85 197s11 12.5 15 12.5c14 0 20 -4 18 -12c-12 -31.3333 -31.6667 -79 -59 -143c-38 -88.6667 -66 -157 -84 -205c-14.6667 -38 -25 -69.3333 -31 -94
c-1.33333 -6 -2.33333 -11.3333 -3 -16c-1.33333 -8 -2 -15.5 -2 -22.5s0.166667 -12.3333 0.5 -16s0.833333 -5.5 1.5 -5.5h1c2.66667 0 11.3333 13.3333 26 40v1c11.3333 20 20.3333 35.6667 27 47c10.6667 17.3333 18.6667 29.3333 24 36c17.3333 25.3333 32 38 44 38
c11.1111 -0.555556 16.6667 -11.2963 16.6667 -32.2222c0 -4.18519 -0.222222 -8.77778 -0.666667 -13.7778c-2.78161 -25.2874 -4.17241 -47.6492 -4.17241 -67.0856c0 -31.805 3.72414 -55.7765 11.1724 -71.9144c3.33333 -9.33333 9 -14 17 -14
c6.66667 0 19 12.3333 37 37c38.6667 51.3333 91.3333 165 158 341c6.66667 19.3333 18.5 51.6667 35.5 97c17 45.3333 30.1667 80.6667 39.5 106s15.1667 41.3333 17.5 48s5.5 11 9.5 13c2 0 3.66667 0.333333 5 1c2 0 4 -0.333333 6 -1
c2.66667 -0.666667 4.5 -1.83333 5.5 -3.5s1.5 -3.83333 1.5 -6.5s-0.333333 -5 -1 -7s-1.33333 -4.33333 -2 -7s-1 -4.33333 -1 -5z" />
    <glyph glyph-name="X" unicode="X" horiz-adv-x="452" 
d="M249 634c12.6667 -16 19.6667 -36.6667 21 -62c1.33333 -19.3333 2.83333 -41.1667 4.5 -65.5c1.66667 -24.3333 3.33333 -48.3333 5 -72s2.83333 -45.8333 3.5 -66.5c24.6667 25.3333 54.6667 53.3333 90 84c34 28.6667 68.6667 56 104 82c38 28 73.6667 52 107 72
c30 18 54.6667 28.6667 74 32c3.33333 0.666667 6 0.666667 8 0c3.33333 0 5 -0.666667 5 -2c-0.666667 -2 -4.33333 -5 -11 -9c-1.33333 -0.666667 -2.66667 -1.66667 -4 -3l-2 -1c-52.6667 -33.3333 -106 -71.6667 -160 -115c-35.3333 -28 -69.6667 -57 -103 -87
c-38 -34 -72.6667 -67.3333 -104 -100c1.33333 -50 3 -91 5 -123c2.66667 -42.6667 7 -81 13 -115c4 -25.3333 8.66667 -49 14 -71c-1.33333 -5.33333 -6.66667 -9.33333 -16 -12c-3.33333 -0.666667 -6.66667 -1 -10 -1c-5.33333 0 -9 1.66667 -11 5
c-4.66667 18.6667 -8.66667 39 -12 61c-4.66667 32.6667 -8.66667 72 -12 118c-0.666667 13.3333 -1.83333 31.8333 -3.5 55.5c-1.66667 23.6667 -2.5 40.1667 -2.5 49.5c-27.3333 -26 -51 -50 -71 -72c-20.6667 -23.3333 -38.3333 -46 -53 -68
c-4 -6.66667 -8 -13.1667 -12 -19.5c-4 -6.33333 -8 -12.8333 -12 -19.5s-7.33333 -12.6667 -10 -18s-5.83333 -12 -9.5 -20s-6.66667 -14.3333 -9 -19s-5.66667 -11.5 -10 -20.5c-4.33333 -9 -7.5 -16.1667 -9.5 -21.5c-5.33333 -7.33333 -12.6667 -11 -22 -11
c-2.66667 0 -5.16667 0.5 -7.5 1.5s-4.33333 2.5 -6 4.5s-2.5 4 -2.5 6c29.3333 65.3333 56.3333 115.667 81 151c17.3333 26 38.6667 53.3333 64 82c22.6667 26 50.6667 55.6667 84 89c-1.33333 21.3333 -4 74 -8 158c-3.42857 72 -5.14286 115.102 -5.14286 129.306
c0 7.14716 0.327971 15.6194 1.14286 19.6939c1.46032 5.84127 6.12698 3.84127 14 -6z" />
    <glyph glyph-name="Y" unicode="Y" horiz-adv-x="348" 
d="M169 140c-7.68627 -28 -11.5294 -54.1915 -11.5294 -78.5744c0 -5.22491 0.176471 -10.3668 0.529412 -15.4256c1.33333 -17.3333 3.33333 -30 6 -38c2 -6.66667 1 -10 -3 -10c-3.33333 0 -7.66667 2 -13 6c-2.66667 2 -7.33333 6.66667 -14 14
c-6.4 9.06667 -9.6 21.3333 -9.6 36.8c0 3.86667 0.2 7.93333 0.6 12.2c2 24.6667 6.33333 51.3333 13 80c7.33333 32 21.3333 71.6667 42 119c11.3333 27.3333 25 57.6667 41 91c-19.3333 5.33333 -35.3333 13 -48 23c-18.6667 14 -31 32.6667 -37 56
c-2.18803 7.93162 -3.28205 17.0134 -3.28205 27.2452c0 14.7083 2.26068 31.7932 6.78205 51.2548c7.66667 33 19.5 64.5 35.5 94.5c14.9926 28.6815 27.4357 43.0222 37.3294 43.0222c0.224856 0 0.448395 -0.00740741 0.670617 -0.0222222c8.66667 0 12 -4.66667 10 -14
c-16 -35.3333 -26.6667 -60 -32 -74c-12 -31.3333 -18.6667 -57.6667 -20 -79c-0.156863 -2.98039 -0.235294 -5.86851 -0.235294 -8.66436c0 -20.9689 4.41176 -36.7474 13.2353 -47.3356c16 -19.3333 35.3333 -29.3333 58 -30c23.3333 0 47 10.3333 71 31
c27.3333 26 48.6667 51.6667 64 77c16 26 27.6667 51 35 75c4.66667 14.6667 7.33333 33.6667 8 57v16c6.66667 10.6667 14 14.6667 22 12c5.33333 -1.33333 9.16667 -3.66667 11.5 -7s3.5 -8.66667 3.5 -16c-2 -23.3333 -4.66667 -41.3333 -8 -54
c-7.33333 -27.3333 -17.3333 -52.6667 -30 -76c-13.3333 -25.3333 -29 -48.6667 -47 -70c-21.3333 -25.3333 -42.3333 -45.3333 -63 -60c-16 -11.3333 -33.6667 -20 -53 -26c-15.3333 -28.6667 -31.3333 -63.6667 -48 -105c-17.3333 -43.3333 -30.3333 -81 -39 -113z" />
    <glyph glyph-name="Z" unicode="Z" horiz-adv-x="551" 
d="M173 136c-6.66667 6 -14.3333 13.6667 -23 23c-10.6667 11.3333 -17.3333 19.6667 -20 25c-0.666667 0 -1 -0.333333 -1 -1c-0.250945 -1.00378 -0.501889 -2.00378 -0.752834 -3l-9.24717 -35c-3.33333 -12 -7 -23 -11 -33c-8.66667 -24.6667 -18.6667 -47.3333 -30 -68
c20 16 38 32.3333 54 49c13.3333 12.6667 27 27 41 43zM506 570c-54.6 -6.53333 -98.2567 -9.8 -130.97 -9.8c-14.02 0 -26.03 0.6 -36.03 1.8c-16.6667 2 -33.3333 4.83333 -50 8.5s-32 8.16667 -46 13.5s-23.3333 10.6667 -28 16c-4 4 -7 9.66667 -9 17
c-0.666667 2 -1.16667 3.83333 -1.5 5.5s-0.5 3.33333 -0.5 5s0.166667 3.33333 0.5 5s0.833333 3.16667 1.5 4.5c4.66667 8.66667 11.3333 12.3333 20 11c2 -0.666667 3.66667 -2 5 -4c0.666667 -0.666667 1 -1.5 1 -2.5s0.166667 -2 0.5 -3s0.833333 -1.83333 1.5 -2.5
c0.666667 -2.66667 1.33333 -4.66667 2 -6c4 -7.33333 17 -14.6667 39 -22c20.6667 -6.66667 43.6667 -11.3333 69 -14c7.75758 -0.969697 16.8375 -1.45455 27.2397 -1.45455c18.2039 0 40.4573 1.48485 66.7603 4.45455c13.3333 1.33333 25.5 2.66667 36.5 4
s20.6667 2.66667 29 4s15.5 2.66667 21.5 4c8 13.3333 14.3333 22 19 26c4.66667 3.33333 9.33333 5.83333 14 7.5s9.33333 2.5 14 2.5c9.33333 0 16.3333 -3 21 -9c4.66667 -6.66667 6 -14 4 -22c-2.66667 -10 -9.33333 -19 -20 -27c-2.66667 -2 -5.66667 -4 -9 -6
s-7.16667 -3.66667 -11.5 -5s-9.16667 -2.66667 -14.5 -4c-5.33333 -6.66667 -12 -16 -20 -28c-10.6667 -16 -20.6667 -30.6667 -30 -44c-9.33333 -13.3333 -17.3333 -25.3333 -24 -36c-18.6667 -27.3333 -34.5 -50.3333 -47.5 -69s-22.8333 -32.6667 -29.5 -42
c1.33333 0 2.66667 -0.166667 4 -0.5s2.83333 -0.5 4.5 -0.5h5h5.5c8.66667 0 18.5 -0.166667 29.5 -0.5s20.8333 -0.833333 29.5 -1.5c21.3333 -0.666667 38.8333 -1.5 52.5 -2.5c13.6667 -1 23.5 -2.5 29.5 -4.5c24.6667 -7.33333 38 -14.6667 40 -22
c0.666667 -4 -3 -6 -11 -6h-8c-10 0 -21.5 0.166667 -34.5 0.5s-26.6667 0.666667 -41 1s-26.1667 0.833333 -35.5 1.5c-40.6667 1.33333 -71.6667 2 -93 2c-7.33333 -10 -14.5 -19.5 -21.5 -28.5s-13.6667 -17.5 -20 -25.5s-12.1667 -15.6667 -17.5 -23
c-32 -40 -60.3333 -72.6667 -85 -98c24 -18 69.6667 -40.3333 137 -67c90.6667 -34.6667 153.667 -54 189 -58c2.66667 0 5.33333 -1.16667 8 -3.5s4.66667 -4.5 6 -6.5c2 -2 2.83333 -3.5 2.5 -4.5s-0.833333 -1.83333 -1.5 -2.5l-1 -1
c-6.66667 -0.666667 -17.1667 -1 -31.5 -1s-24.5 0.333333 -30.5 1c-12.6667 1.33333 -27 3.83333 -43 7.5c-16 3.66667 -33.8333 8.66667 -53.5 15s-41.5 13.8333 -65.5 22.5c-66.6667 25.3333 -115 48 -145 68c-2.66667 -2.66667 -9.66667 -9.33333 -21 -20
c-12 -11.3333 -22 -20.6667 -30 -28c-16.6667 -15.3333 -31 -28 -43 -38c-8.66667 -6.66667 -14.8333 -11.5 -18.5 -14.5s-8.5 -5.83333 -14.5 -8.5c-6 -2.66667 -11.3333 -4 -16 -4c-2 0 -4.16667 0.666667 -6.5 2c-2.33333 1.33333 -4.16667 3 -5.5 5
c-3.33333 4 -4 7.66667 -2 11c15.3333 26 29.6667 57.6667 43 95c16.6667 44.6667 28 84.6667 34 120c1.33333 2.66667 3.33333 5 6 7c4 2.66667 6.33333 3.33333 7 2c18 -21.3333 32.3333 -37.6667 43 -49c6.66667 -7.33333 12.3333 -13.5 17 -18.5s8.33333 -8.5 11 -10.5
c24 23.3333 51.3333 53.3333 82 90c15.9317 19.4167 29.2607 36.4167 39.9871 51c3.63681 4.94448 6.97443 9.61115 10.0129 14l-32 1.54217l-17 0.819277l-5 0.240964l-29 1.39759c-1.77778 6 -2.66667 11.1481 -2.66667 15.4444
c0 8.59259 3.55556 13.7778 10.6667 15.5556c1.17573 0.54566 6.01359 0.81849 14.5136 0.81849s20.6621 -0.27283 36.4864 -0.81849c7.33333 0 14 -0.166667 20 -0.5s11.3333 -0.5 16 -0.5h12c26 34.6667 55.3333 76 88 124c14 19.3333 35 49.6667 63 91z" />
    <glyph glyph-name="a" unicode="a" horiz-adv-x="288" 
d="M288 206c0 -1.33333 -0.666667 -2 -2 -2h-1c0 6.66667 -4.66667 22 -14 46c-6.66667 17.3333 -19.6667 26 -39 26c-5.33333 0 -11 -0.666667 -17 -2c-14 -2.66667 -29 -9 -45 -19c-2.66667 -1.33333 -5.33333 -2.83333 -8 -4.5s-5 -3.5 -7 -5.5
c-13.3333 -10.6667 -24 -21.3333 -32 -32c-15.3333 -20 -26.3333 -41.3333 -33 -64c-1.33333 -4.66667 -2.33333 -9 -3 -13c-3.22667 -13.7867 -4.84 -26.2827 -4.84 -37.488c0 -14.2613 2.61333 -26.432 7.84 -36.512c1.33333 -3.33333 4.33333 -7.33333 9 -12
c6.66667 -6.66667 14.3333 -10.3333 23 -11c4.66667 0 9.33333 1 14 3c24.6667 8.66667 49.6667 27.6667 75 57c24.6667 29.3333 40.3333 56.3333 47 81c1.33333 5.33333 4.66667 9.66667 10 13c5.33333 2.66667 10.3333 4 15 4c5.33333 0 9.33333 -1 12 -3
c0.666667 -0.666667 1 -1.16667 1 -1.5v-0.5v-1c-5.33333 -12 -9.66667 -22.6667 -13 -32c-0.666667 -2.66667 -1.66667 -4.66667 -3 -6c-6.66667 -16.6667 -11 -30 -13 -40l-2 -4v-3c-2.38095 -11.9048 -3.57143 -21.4286 -3.57143 -28.5714
c0 -2.85714 0.190476 -5.33333 0.571429 -7.42857c0.666667 -2.66667 1 -5.66667 1 -9c0.666667 -2.66667 1 -5.33333 1 -8c0.666667 -2 1.33333 -4.33333 2 -7c4 -12.6667 7.33333 -23 10 -31s4 -13.6667 4 -17v-1v-3c-0.666667 -2.66667 -2.33333 -4.66667 -5 -6
c-1.33333 -0.666667 -2.66667 -1.16667 -4 -1.5s-3 0.166667 -5 1.5c-4 2 -9 5.33333 -15 10c-6.66667 5.33333 -12 19.3333 -16 42c-4 22.6667 -6.66667 34 -8 34c-18 -16.6667 -27.3333 -25.3333 -28 -26c-29.3333 -29.3333 -58.6667 -44.3333 -88 -45
c-41.3333 2 -63.3333 26 -66 72c-0.0833333 2.5 -0.125 4.99479 -0.125 7.48438c0 17.4271 2.04167 34.599 6.125 51.5156c4.66667 21.3333 12.6667 42.3333 24 63c9.33333 16 19.3333 29.6667 30 41c38 41.3333 80.3333 63 127 65h3h5c4 -0.666667 8.33333 -1.33333 13 -2
c4 -1.33333 7.66667 -3 11 -5c19.7531 -10.3704 29.6296 -28.0567 29.6296 -53.059c0 -8.7508 -1.20988 -18.3978 -3.62963 -28.941z" />
    <glyph glyph-name="b" unicode="b" horiz-adv-x="343" 
d="M142 280c45.3333 17.3333 86 26 122 26h2c16 0 30.3333 -2.33333 43 -7c13.3333 -4.66667 24.6667 -12 34 -22c13.7544 -14.7368 20.6316 -32.1884 20.6316 -52.3546c0 -7.20222 -0.877193 -14.7507 -2.63158 -22.6454l-2 -8l-4 -14c-1.33333 -4.66667 -3 -9 -5 -13
c-1.33333 -2 -2.5 -4.16667 -3.5 -6.5s-2.16667 -4.83333 -3.5 -7.5c-2.66667 -4.66667 -5.5 -9.16667 -8.5 -13.5s-6.33333 -8.83333 -10 -13.5c-3.66667 -4.66667 -7.5 -9.16667 -11.5 -13.5s-8.16667 -8.83333 -12.5 -13.5
c-4.33333 -4.66667 -9.16667 -9.33333 -14.5 -14c-31.3333 -28 -62.3333 -49 -93 -63c-37.2301 -17.7689 -67.8223 -26.6534 -91.7767 -26.6534c-33.0227 0 -53.4305 16.8845 -61.2233 50.6534c-2 8 -2 17 0 27v2c4 16 13 35.3333 27 58c22.6667 37.3333 38.6667 56 48 56
c4 0 6 -1.33333 6 -4v-3v-0.5v-1.5c-0.666667 -2.66667 -1.66667 -5 -3 -7c-2 -3.33333 -3.66667 -6 -5 -8c-17.3333 -30 -28.6667 -54 -34 -72v-3c-1.3908 -5.81609 -2.08621 -11.1526 -2.08621 -16.0095c0 -20.7523 12.6954 -32.7491 38.0862 -35.9905
c2 0 4.33333 -0.333333 7 -1c11.3333 0 26.6667 2.66667 46 8c12 3.33333 28.3333 11.6667 49 25c63.3333 42 100.667 87.3333 112 136c1.31579 5.70175 1.97368 11.0226 1.97368 15.9626c0 32.035 -27.6666 48.0525 -82.9999 48.0525
c-0.982553 0 -1.97383 -0.0050505 -2.97383 -0.0151515c-28 0 -53.3333 -5.33333 -76 -16c-24 -10.6667 -40.6667 -16 -50 -16c-4.66667 0 -8.5 0.666667 -11.5 2s-5.16667 3.5 -6.5 6.5c-1.33333 3 -2 6.5 -2 10.5c0 3.33333 0.333333 6.66667 1 10v2
c2.66667 8.66667 11.3333 30.3333 26 65c19.3333 44.6667 58 112.667 116 204c4 6 8.66667 9 14 9c2 0 3.66667 -0.333333 5 -1c2.66667 -2 5.33333 -3.66667 8 -5c1.33333 -0.666667 2 -2.33333 2 -5c0 -0.666667 -0.833333 -2.66667 -2.5 -6
c-0.333333 -0.666667 -0.833333 -1.5 -1.5 -2.5s-1.33333 -2.16667 -2 -3.5s-1.66667 -2.66667 -3 -4c-0.666667 -0.666667 -1.66667 -2.33333 -3 -5s-2.66667 -5 -4 -7c-10 -15.3333 -17.3333 -26.6667 -22 -34c-52 -82.6667 -82.3333 -142.333 -91 -179v-2
c-1.25 -8.75 -1.58333 -13.4167 -1 -14z" />
    <glyph glyph-name="c" unicode="c" horiz-adv-x="305" 
d="M212 302c15.5897 3.28205 29.9172 4.92308 42.9822 4.92308c8.16568 0 15.8383 -0.641026 23.0178 -1.92308c6.66667 -1.33333 10 -3.66667 10 -7c2 -8 1.33333 -16 -2 -24c-1.33333 -2 -2.33333 -3.66667 -3 -5c-1.4359 -2.51282 -5.86785 -3.76923 -13.2959 -3.76923
c-6.36686 0 -14.9349 0.923077 -25.7041 2.76923c-4 0.666667 -8.33333 1 -13 1h-10c-35.3333 -4 -67.3333 -26.3333 -96 -67c-18.6667 -26 -30.3333 -49.6667 -35 -71c-2.0202 -8.28283 -3.0303 -16.0759 -3.0303 -23.3792c0 -16.7977 5.34343 -31.0046 16.0303 -42.6208
c2.66667 -3.33333 5.66667 -6.33333 9 -9c14.6667 -12.6667 32 -19 52 -19c27.3333 0 53 7.33333 77 22c18 10.6667 34.6667 26.3333 50 47c-0.666667 -12.6667 -12.6667 -30.6667 -36 -54c-12 -11.3333 -24.3333 -21 -37 -29
c-25.4074 -14.5185 -50.0082 -21.7778 -73.8025 -21.7778c-6.79835 0 -13.5309 0.592593 -20.1975 1.77778c-8 1.33333 -14.6667 4 -20 8c-22 12.6667 -37.3333 28.3333 -46 47c-5.22667 12.32 -7.84 25.9989 -7.84 41.0368c0 11.8155 1.61333 24.4699 4.84 37.9632
c32 94 84.3333 149 157 165z" />
    <glyph glyph-name="d" unicode="d" horiz-adv-x="338" 
d="M288 332c24 60.6667 50.6667 118.833 80 174.5c29.3333 55.6667 57 100.167 83 133.5c24 30.6667 42.6667 46.3333 56 47c1.33333 0 2.66667 -0.333333 4 -1c3.28205 -2.87179 4.92308 -7.88955 4.92308 -15.0533c0 -4.47732 -0.641026 -9.7929 -1.92308 -15.9467
c-3.33333 -14.6667 -10.6667 -34 -22 -58c-23.3333 -50.6667 -50.6667 -102.833 -82 -156.5s-62 -107.5 -92 -161.5c-28.6667 -52 -45 -86.3333 -49 -103c0 -0.666667 -0.333333 -1.33333 -1 -2c-3.33333 -17.3333 -5 -30.6667 -5 -40c0 -9.33333 2.66667 -19.8333 8 -31.5
c5.33333 -11.6667 15 -21.8333 29 -30.5c4 -2.66667 5.83333 -4.83333 5.5 -6.5c-0.333333 -1.66667 -3.16667 -3.16667 -8.5 -4.5c-3.33333 -0.666667 -6.66667 -1 -10 -1c-10 0 -20 3.33333 -30 10c-14 9.33333 -21.6667 31.3333 -23 66l-25 -31
c-18 -22.6667 -32.3333 -39 -43 -49c-12.6667 -12 -23.3333 -21.5 -32 -28.5c-8.66667 -7 -20 -13.5 -34 -19.5c-9.33333 -4 -18 -6.33333 -26 -7c-4 0 -7.66667 0.666667 -11 2c-16.6667 8.09524 -25 25.3741 -25 51.8367c0 10.585 1.33333 22.6395 4 36.1633
c0.666667 3.33333 1.33333 6.33333 2 9c6 26.6667 15 50 27 70c17.3333 29.3333 38.3333 54.3333 63 75c24.6667 20.6667 50.3333 32.3333 77 35c18.6667 -0.666667 35 -11.3333 49 -32c6.66667 23.3333 16 51.3333 28 84zM489 649c-26.6667 -30.6667 -56 -75.3333 -88 -134
c-32 -58.6667 -57.3333 -109.667 -76 -153c-14.6667 -34 -22.6667 -55 -24 -63c-0.666667 -2 -0.666667 -3.33333 0 -4c118.667 205.333 181 322 187 350c0.666667 1.33333 1 2.66667 1 4zM232 200c0.166667 1.75 0.25 3.46354 0.25 5.14062
c0 11.7396 -4.08333 21.6927 -12.25 29.8594c-6 6.66667 -12 9.66667 -18 9c-6 0 -11 -0.666667 -15 -2c-10.6667 -4 -23.1667 -12.5 -37.5 -25.5s-26.1667 -26.1667 -35.5 -39.5c-16.6667 -22.6667 -28.6667 -49.6667 -36 -81c0 -0.666667 -0.333333 -1.33333 -1 -2
c-3.21905 -13.619 -4.82857 -24.7548 -4.82857 -33.4073c0 -14.6427 4.60952 -22.1736 13.8286 -22.5927c6 0 14.3333 3.66667 25 11c30.6667 20.6667 62.3333 54.6667 95 102l19 33c4 8 6.33333 13.3333 7 16z" />
    <glyph glyph-name="e" unicode="e" 
d="M220 254c1.33333 6.66667 -7 10 -25 10s-38.3333 -11 -61 -33c-22.6667 -22 -36 -42 -40 -60c0 -0.666667 -0.333333 -1.33333 -1 -2c31.3333 0 64.3333 16 99 48c16.6667 15.3333 26 27.6667 28 37zM269 78v-1c-5.33333 -23.3333 -20 -42 -44 -56s-48 -21 -72 -21
c-70.6728 1.32099 -106.009 37.324 -106.009 108.009c0 50.5574 17.0569 93.0211 50.0093 127.991c35.3333 38.6667 71 60 107 64c4.6087 0.521739 8.8828 0.782609 12.8223 0.782609c23.1919 0 34.7879 -9.04091 34.7879 -27.1227
c0 -2.39471 -0.20339 -4.948 -0.610169 -7.65987c-1.33333 -10.6667 -7.66667 -24.6667 -19 -42c-10.6667 -16 -23.3333 -30 -38 -42c-35.3333 -30.6667 -71 -46 -107 -46c-1.77778 -8.44444 -2.66667 -16.6667 -2.66667 -24.6667c0 -16 3.55556 -31.1111 10.6667 -45.3333
c10.6667 -21.3333 32.3333 -32 65 -32c1.13043 -0.0144928 2.25347 -0.0217391 3.36909 -0.0217391c50.2032 0 85.4135 14.6739 105.631 44.0217z" />
    <glyph glyph-name="f" unicode="f" horiz-adv-x="340" 
d="M468 668c8.66667 0 15 -4.33333 19 -13s6.5 -18.5 7.5 -29.5c0.428571 -4.71429 0.642857 -9.58163 0.642857 -14.602c0 -6.69388 -0.380952 -13.6599 -1.14286 -20.898c-1.33333 -10 -3.33333 -20 -6 -30c-4 -15.3333 -9.33333 -31 -16 -47
c-2 -5.33333 -4.33333 -10.5 -7 -15.5s-5.5 -10.1667 -8.5 -15.5s-6 -10.5 -9 -15.5s-6.16667 -10 -9.5 -15s-7 -10.1667 -11 -15.5c-18 -25.3333 -37.3333 -47 -58 -65c-10.6667 -9.33333 -21.5 -17.3333 -32.5 -24s-22.5 -12 -34.5 -16
c-14.6667 -5.33333 -28.6667 -8 -42 -8c-4 0 -8 0.333333 -12 1c-3.33333 0.666667 -7 1.66667 -11 3c-0.666667 -1.33333 -1.66667 -4 -3 -8c-1.33333 -2 -2.66667 -4.66667 -4 -8s-2.66667 -7 -4 -11c-3.33333 -8 -7 -17.6667 -11 -29
c-0.666667 -1.33333 -1.16667 -2.66667 -1.5 -4s-0.833333 -2.5 -1.5 -3.5s-1.16667 -2.16667 -1.5 -3.5l-1 -4c-0.333333 -1.33333 -0.833333 -2.66667 -1.5 -4s-1.16667 -2.66667 -1.5 -4s-0.833333 -2.66667 -1.5 -4s-1.16667 -2.66667 -1.5 -4
s-0.833333 -2.66667 -1.5 -4l-2 -4c4.66667 -2 9.33333 -3.83333 14 -5.5s8.83333 -3.33333 12.5 -5s7.16667 -3.16667 10.5 -4.5c10 -4 18 -7.66667 24 -11c4 -2 8.16667 -4.33333 12.5 -7s9 -5.83333 14 -9.5s10.5 -7.83333 16.5 -12.5h1l1 -5v-7l-1 -1v-1
c-1.33333 -0.666667 -2.66667 -1.5 -4 -2.5s-3 -2.5 -5 -4.5c-4.66667 -4.66667 -8.66667 -6.66667 -12 -6c-0.666667 0 -1.33333 0.166667 -2 0.5s-1.33333 0.833333 -2 1.5c-12 6.66667 -23.5 12.5 -34.5 17.5s-21.3333 9.33333 -31 13s-19.1667 6.5 -28.5 8.5
c-34.6667 -100 -63.3333 -195.667 -86 -287c-4 -15.3333 -7.83333 -30.6667 -11.5 -46c-3.66667 -15.3333 -7.16667 -30.3333 -10.5 -45c0 -1.33333 0.333333 -2.66667 1 -4c0 -1.33333 -0.333333 -2.33333 -1 -3c-2 -7.33333 -8.66667 -11 -20 -11h-3
c-8 0 -12.3333 2 -13 6v5c0 2 0.333333 4 1 6c0.666667 1.33333 1 3 1 5l24 98c2 10 4.33333 20 7 30c4.66667 18 9.66667 36.6667 15 56c0.461538 6 0.692308 12 0.692308 18c0 20 -2.5641 40 -7.69231 60c-1.33333 5.33333 -2.5 10.1667 -3.5 14.5s-2 8.33333 -3 12
s-1.83333 6.66667 -2.5 9s-1 4.5 -1 6.5l-1 4c-0.666667 4 -2 10.3333 -4 19c-0.666667 4.66667 -1.33333 8.66667 -2 12c0 2 -0.166667 3.66667 -0.5 5s-0.833333 2.66667 -1.5 4c-0.666667 2.66667 -1 5.66667 -1 9v11c-0.666667 6 -0.333333 11.3333 1 16
c2 7.33333 5.33333 13 10 17c8 7.33333 21.3333 12.3333 40 15c18 2.66667 31.3333 4.33333 40 5h5h4h4l41 103h-1l-0.5 0.5c-0.333333 0.333333 -0.5 0.833333 -0.5 1.5c-0.666667 0.666667 -2 1.66667 -4 3l-2.5 2.5l-2.5 2.5l-4 4l-2 4
c0 0.666667 -0.166667 1.5 -0.5 2.5s-0.5 1.83333 -0.5 2.5v4c2 6.66667 6.66667 14.3333 14 23c1.33333 1.33333 2.66667 2 4 2s3.66667 -1.33333 7 -4c1.33333 -1.33333 2.66667 -2.5 4 -3.5s2.33333 -1.83333 3 -2.5s1.5 -1.33333 2.5 -2l1.5 -1
c3.33333 8 7 15.8333 11 23.5s8 15.5 12 23.5c8 16 16.8333 31.6667 26.5 47s19.8333 30.6667 30.5 46c32 46 62.6667 82 92 108c14.6667 13.3333 27.8333 23.3333 39.5 30s21.8333 10 30.5 10zM463 596c0 9.33333 -0.833333 16.3333 -2.5 21s-4.5 7 -8.5 7
c-1.33333 0 -2.5 -0.166667 -3.5 -0.5s-2.16667 -0.833333 -3.5 -1.5c-2.66667 -1.33333 -5.66667 -2.66667 -9 -4c-38.6667 -28 -74.3333 -66 -107 -114c-32 -46.6667 -57 -92.3333 -75 -137c2 -0.666667 4 -1 6 -1s4 -0.166667 6 -0.5s4 -0.5 6 -0.5
c1.39394 -0.0606061 2.78512 -0.0909091 4.17355 -0.0909091c13.8843 0 27.4931 3.0303 40.8264 9.09091c7.33333 3.33333 14.6667 7.16667 22 11.5s14.6667 9.5 22 15.5c18 15.3333 34 33.6667 48 55c4.66667 7.33333 9.16667 14.6667 13.5 22s8.5 15.1667 12.5 23.5
s7.66667 17.1667 11 26.5c1.33333 2.66667 2.33333 5.33333 3 8c2 5.33333 3.83333 10.3333 5.5 15s3.16667 9.33333 4.5 14c1.33333 6 2.33333 11.6667 3 17c0.666667 2.66667 1 5.16667 1 7.5v6.5zM436 618v0zM435 618zM153 198c-0.666667 0.666667 -3.33333 1.33333 -8 2
c-2 0.666667 -4.16667 1 -6.5 1s-4.66667 -0.166667 -7 -0.5s-4.83333 -0.833333 -7.5 -1.5s-5.33333 -1.66667 -8 -3c-1.33333 -0.666667 -2.66667 -1.16667 -4 -1.5s-2.66667 -0.833333 -4 -1.5c-2 -0.666667 -3.66667 -2.16667 -5 -4.5s-2.33333 -5.5 -3 -9.5
c-2.08333 -8.75 -3.125 -21.1458 -3.125 -37.1875c0 -9.625 0.375 -20.5625 1.125 -32.8125c1.33333 -17.3333 2.33333 -32.3333 3 -45v-7.5v-6.5c0 -2 0.166667 -3.83333 0.5 -5.5s0.5 -3.5 0.5 -5.5c8.66667 28.6667 25.3333 81 50 157z" />
    <glyph glyph-name="g" unicode="g" horiz-adv-x="307" 
d="M195.018 284.004c-1.69076 -8.50065 0.0826823 -16.6706 5.32031 -24.5098c5.23763 -7.83919 8.83724 -11.9538 10.7988 -12.3438c1.96159 -0.390625 6.86198 2.03288 14.7012 7.27051c7.83984 5.23698 12.6051 12.1058 14.2959 20.6064
c1.69141 8.5 -0.0817057 16.6696 -5.31934 24.5088c-5.23763 7.83984 -8.83724 11.9548 -10.7988 12.3447c-1.96159 0.390625 -6.86198 -2.03288 -14.7012 -7.27051c-7.83984 -5.23828 -12.6055 -12.1071 -14.2969 -20.6064zM264.607 316.039
c7.46798 -10.1013 11.202 -20.5117 11.202 -31.2312c0 -3.11207 -0.314718 -6.25018 -0.944154 -9.41436c-2.33464 -11.7318 -8.99609 -23.8219 -19.9844 -36.2705c-8.4681 -9.56966 -20.3512 -18.4743 -35.6494 -26.7139
c0.117839 -0.367839 3.48145 -47.5999 10.0908 -141.696c2.64038 -36.6327 3.96057 -69.4065 3.96057 -98.3214c0 -39.8356 -2.50574 -72.3469 -7.51722 -97.5341c-6.72396 -33.7982 -17.9603 -54.4082 -33.709 -61.8301
c-9.46745 -4.46159 -19.2207 -5.69368 -29.2598 -3.69629c-28.1374 5.59831 -58.5195 36.5674 -91.1465 92.9072c-30.8278 53.2322 -46.2417 98.9469 -46.2417 137.144c0 8.58422 0.778485 16.7888 2.33545 24.6136c1.46354 7.35612 3.61491 14.377 6.4541 21.0625
c7.52313 18.3787 19.32 27.568 35.3907 27.568c3.08115 0 6.31939 -0.337785 9.71474 -1.01336c0.398438 -0.0794271 0.798503 -0.163411 1.2002 -0.251953c10.1725 -2.2487 14.502 -7.7487 12.9883 -16.5c-1.34766 -5.63346 -6.36491 -12.3441 -15.0518 -20.1318
c-8.46094 -7.58594 -13.8408 -17.1569 -16.1396 -28.7129c-0.0611979 -0.307943 -0.120768 -0.617513 -0.178711 -0.928711c-0.0273438 -0.134766 -0.054362 -0.269857 -0.0810547 -0.405273c-0.914259 -4.59519 -1.37139 -9.49645 -1.37139 -14.7038
c0 -27.1386 12.4161 -62.5902 37.2483 -106.355c28.1764 -46.7142 49.8812 -71.5869 65.1143 -74.6182c3.80859 -0.757812 7.21289 -0.149414 10.2129 1.8252c8.35352 5.01823 14.429 17.0726 18.2266 36.1631c3.16737 15.9184 4.75106 36.7286 4.75106 62.4303
c0 28.4427 -1.93948 62.8761 -5.81844 103.3c-8.625 88.541 -13.4007 138.171 -14.3271 148.891c-0.925781 10.7201 -2.44889 20.2585 -4.56934 28.6152c-5.62798 18.806 -8.44198 35.1565 -8.44198 49.0514c0 5.81609 0.493028 11.202 1.47909 16.1576
c3.56836 17.9349 13.5947 30.235 30.0791 36.9004c9.36674 3.89348 18.2412 5.84022 26.6234 5.84022c3.41799 0 6.75414 -0.323694 10.0084 -0.971082c12.2839 -2.44401 23.401 -9.50065 33.3516 -21.1699z" />
    <glyph glyph-name="h" unicode="h" horiz-adv-x="325" 
d="M214 140c-38.6667 -48 -71.8333 -83 -99.5 -105c-27.6667 -22 -48.5 -33 -62.5 -33c-4.66667 0 -9.33333 3.33333 -14 10c-1.04167 2.08333 -1.5625 5.33854 -1.5625 9.76562c0 9.73958 2.52083 25.151 7.5625 46.2344c20 86 100.333 266.667 241 542
c3.33333 6.66667 6.33333 12.3333 9 17c14 26.6667 23 40.3333 27 41c13.3333 0 19.3333 -6.33333 18 -19c-0.666667 -2 -4.66667 -10 -12 -24c-22.6667 -43.3333 -47.6667 -92.6667 -75 -148c-36 -71.3333 -71.6667 -147.333 -107 -228
c-35.3333 -82.6667 -56.3333 -141.667 -63 -177c-0.704167 -3.575 -1.05625 -6.59767 -1.05625 -9.06801c0 -5.52438 1.76076 -8.28657 5.28228 -8.28657c14.2849 0 57.5429 45.4515 129.774 136.355c0.666667 0.666667 2.66667 3.66667 6 9
c6 8.66667 12.3333 12.6667 19 12c2.66667 0 5 -0.333333 7 -1c4 -1.33333 5.66667 -8.33333 5 -21c-0.507937 -7.36508 -0.761905 -14.585 -0.761905 -21.6599c0 -30.068 4.5873 -57.5147 13.7619 -82.3401c18.75 -44.375 28.125 -70 28.125 -76.875
c0 -7.62426 -7.72485 -11.825 -18.125 -13.125c-0.666667 0 -3.66667 1 -9 3c-6 2 -9.33333 3.66667 -10 5c-22 50 -35.3333 95.3333 -40 136c0 1.33333 -0.666667 1.66667 -2 1c-0.666667 0 -1 -0.333333 -1 -1z" />
    <glyph glyph-name="i" unicode="i" horiz-adv-x="149" 
d="M160.55 309.573c0.818359 -1.20378 1.35352 -2.71224 1.60547 -4.52539c0.251953 -1.8125 0.243815 -3.87272 -0.0244141 -6.18066c-0.269531 -2.30794 -0.785807 -4.94824 -1.54883 -7.9209c-3.35417 -12.1178 -7.38639 -25.0508 -12.0967 -38.7988
c-4.71094 -13.7487 -10.1035 -28.3245 -16.1777 -43.7275c-1.89453 -4.74674 -3.90332 -9.73796 -6.02637 -14.9736c-2.12305 -5.23503 -4.3571 -10.7067 -6.70215 -16.415c-17.5341 -45.7619 -26.3012 -82.9764 -26.3012 -111.643
c0 -8.93847 0.852343 -17.0459 2.55703 -24.3224c1.26562 -3.6556 1.69076 -7.52897 1.27539 -11.6201c-0.414714 -4.09115 -1.74772 -8.84147 -3.99902 -14.251c-0.197917 -0.296224 -0.489258 -0.585286 -0.874023 -0.867188
c-2.1582 -2.53385 -4.04557 -4.16602 -5.66211 -4.89648c-3.32747 -1.89258 -7.24121 -2.30794 -11.7412 -1.24609c-8.4349 1.64779 -14.6491 6.58529 -18.6426 14.8125c-1.9043 4.07096 -3.35905 8.83659 -4.36426 14.2969
c-1.14094 6.2016 -1.72019 13.6295 -1.72019 21.4826c0 15.5707 1.96695 31.3652 5.90085 47.3836c5.21484 21.321 12.7451 44.721 22.5908 70.2002l20.1924 52.6592c8.49479 21.877 15.2331 38.89 20.2148 51.0391c4.98112 12.1491 8.30078 19.6439 9.95898 22.4844
c7.07185 10.6327 13.5588 15.949 19.4608 15.949c2.0466 0 4.02287 -0.639252 5.9288 -1.91776zM180.023 411.24l3.16699 -4.32422c8.74349 -12.1725 14.1423 -20.1383 16.1963 -23.8975c1.49414 -2.73372 0.621094 -5.35677 -2.61914 -7.86914
c-1.29622 -1.00391 -2.83464 -1.63086 -4.61523 -1.88086c-8.18359 -0.255859 -16.0716 1.27409 -23.6641 4.58984c-3.86393 1.6862 -7.45508 3.75521 -10.7734 6.20703c-6.64062 4.90365 -12.0654 11.2523 -16.2744 19.0459
c-1.07422 1.98763 -1.76497 4.00781 -2.07227 6.06055c-0.307292 2.05273 -0.235352 4.15755 0.21582 6.31445c0.908203 4.33789 3.12826 7.81576 6.66016 10.4336c4.93294 3.65299 10.6185 4.1263 17.0566 1.41992c0.443359 -0.1875 0.887044 -0.399089 1.33105 -0.634766
c0.43099 -0.230469 0.863607 -0.484701 1.29785 -0.762695c4.46076 -3.24096 9.15868 -8.14167 14.0938 -14.7021z" />
    <glyph glyph-name="j" unicode="j" horiz-adv-x="287" 
d="M326 511c7.33333 -0.666667 16.3333 -6 27 -16c10 -10 15.6667 -16.3333 17 -19s1.33333 -5 0 -7v-2c-3.13725 -10.0392 -11.2941 -15.0588 -24.4706 -15.0588c-0.823529 0 -1.66667 0.0196078 -2.52941 0.0588235h-2c-8 0.666667 -14.6667 1.33333 -20 2
c-4.66667 0.666667 -8 2.66667 -10 6c-8.04762 19.8095 -12.0714 31.5714 -12.0714 35.2857c0 9.92059 11.098 15.0965 24.0714 15.7143h3zM57 37c6.66667 0 9 -3 7 -9c0 -0.666667 -0.333333 -1.66667 -1 -3c-4 -11.3333 -10 -22.3333 -18 -33l-1 -1
c-0.641026 -2.94872 -0.961538 -6.26726 -0.961538 -9.95562c0 -15.4911 5.65385 -37.5059 16.9615 -66.0444c20 -52.6667 39.6667 -79 59 -79c6 0 12 2.66667 18 8c14.6667 13.3333 34.6667 75.3333 60 186c6 26 12.3333 54.6667 19 86c7.33333 34 14 64.3333 20 91
c21.3333 92.6667 36.6667 141.333 46 146c3.33333 2 6 2.66667 8 2h7c4.66667 0 7.33333 -1.33333 8 -4c0.666667 -1.33333 -0.333333 -6.66667 -3 -16c-1.33333 -4.66667 -2.66667 -10 -4 -16l-18 -66l-3 -13l-37 -163c-6.66667 -32 -12.6667 -59 -18 -81l-10 -40l-10 -40
c-13.3333 -50 -30.6667 -83.6667 -52 -101c-11.3333 -9.33333 -24 -14 -38 -14h-4c-24.6667 1.33333 -50 31.3333 -76 90c-7.33333 16.6667 -12.8333 31.1667 -16.5 43.5c-3.66667 12.3333 -5.5 22.1667 -5.5 29.5c0 14 0.666667 24.3333 2 31l1 1
c7.33333 26.6667 22 40.3333 44 41zM290 355v0z" />
    <glyph glyph-name="k" unicode="k" horiz-adv-x="398" 
d="M283.335 318.625c8.62274 -0.643488 15.2246 -3.86159 19.8057 -9.6543c5.23958 -6.64714 8.16276 -14.6351 8.76953 -23.9639c0.0598958 -2.00456 0.208333 -4.26009 0.445312 -6.7666c-0.236979 -2.16016 -0.302083 -4.45117 -0.195312 -6.87305
c-1.4401 -16.2448 -8.12695 -33.6491 -20.0605 -52.2129c-17.3997 -26.1029 -46.3773 -46.237 -86.9326 -60.4023c-40.778 -13.8346 -60.234 -26.3411 -58.3682 -37.5195c0.134115 -0.821615 0.0794271 -1.36816 -0.164062 -1.63965
c-0.423177 -9.72852 3.28939 -19.2607 11.1377 -28.5967c8.81836 -9.9974 20.0661 -18.6064 33.7432 -25.8271c20.145 -11.64 68.7013 -21.9369 145.669 -30.8906c18.5436 -2.18555 31.9137 -3.95247 40.1104 -5.30078c7.80339 -1.31836 12.2061 -2.41178 13.208 -3.28027
c1.373 -2.47373 1.98791 -3.85361 1.84473 -4.13965c-39.2973 -12.4281 -75.6718 -18.6422 -109.123 -18.6422c-62.6524 0 -115.052 21.798 -157.198 65.3941c-11.97 12.9137 -19.4963 29.2473 -22.5791 49.001c0.36849 5.79297 1.86133 11.5521 4.47852 17.2773
c2.71615 5.60807 5.49154 10.4238 8.32617 14.4473c3.16536 3.97656 6.68783 7.57747 10.5674 10.8027c7.45378 6.10807 18.8128 11.9505 34.0771 17.5273c14.7357 5.75651 23.6712 9.3877 26.8066 10.8936c2.86458 1.82747 7.31152 4.10059 13.3408 6.81934
c5.9707 3.28125 9.67188 5.21029 11.1035 5.78711c1.90169 0.75651 5.33301 2.70247 10.2939 5.83789c5.03906 2.86458 8.63835 5.19206 10.7979 6.98242c1.17383 0.876302 2.46712 1.94531 3.87988 3.20703c1.25391 1.40495 3.09342 2.85091 5.51855 4.33789
c1.57487 1.17969 2.83529 2.22852 3.78125 3.14648c1.05404 1.08203 2.0625 2.07845 3.02539 2.98926c1.03711 1.08919 1.79069 2.02734 2.26074 2.81445c0.863281 1.21289 1.93392 2.75846 3.21191 4.63672c1.38867 1.45508 2.62891 3.23763 3.7207 5.34766
c4.24154 6.55664 6.97949 13.4805 8.21387 20.7715c0.0989583 0.708984 0.173177 1.41927 0.222656 2.13086c0.622204 5.33139 -0.531496 8.49121 -3.93082 8.49121c-5.87779 0 -18.0353 -6.04362 -36.4725 -18.1309c-19.1139 -12.2852 -32.5029 -21.4209 -40.167 -27.4072
c-9.66927 -7.34701 -20.4567 -17.4909 -32.3623 -30.4316c-22.0944 -23.7259 -35.5671 -39.8467 -40.418 -48.3623c-0.482422 -0.817708 -0.924805 -0.897786 -1.32715 -0.240234c-34.2643 -87.3242 -52.429 -131.314 -54.4941 -131.969
c-8.60156 -3.34505 -13.0137 -5.20182 -13.2363 -5.57031c-0.44401 -0.298177 -1.15202 -0.263346 -2.12402 0.104492c-5.69466 0.298828 -11.0254 1.95475 -15.9922 4.96777c-4.36654 2.98698 -6.49251 5.97428 -6.37793 8.96191
c-0.114583 1.01237 0.108073 1.86263 0.667969 2.55078c59.4401 133.312 109.575 254.502 150.405 363.571c39.8366 106.931 67.9131 191.426 84.2295 253.484c-0.983073 -0.72526 -1.9873 -1.7627 -3.0127 -3.1123c-0.974609 -1.31706 -2.38574 -2.83138 -4.2334 -4.54297
c-6.81901 -6.95508 -14.4785 -16.236 -22.9785 -27.8428l-14.6094 -16.6895c-0.427083 -0.60026 -0.916341 -0.613281 -1.46777 -0.0390625c-0.115234 0.0924479 -0.200846 0.262044 -0.256836 0.508789c0.0559896 0.419922 0.0677083 0.599609 0.0351562 0.539062
c4.03255 11.3939 10.2734 22.5664 18.7227 33.5176c8.21745 11.0488 18.6032 22.2533 31.1572 33.6133c4.7793 3.97331 8.25228 6.95736 10.4189 8.95215c2.5 2.00521 4.14648 2.83105 4.93945 2.47754c1.8737 -0.313151 3.83496 -1.41895 5.88379 -3.31738
c1.5057 -1.20875 2.25855 -6.05058 2.25855 -14.5255c0 -6.25976 -0.410726 -14.5016 -1.23218 -24.7255c-0.733073 -11.9342 -3.91667 -28.7848 -9.55078 -50.5518c-5.69922 -21.5664 -13.4785 -48.2803 -23.3379 -80.1416
c-20.1406 -63.472 -41.0361 -120.55 -62.6865 -171.234c-19.6829 -46.6491 -41.6794 -100.317 -65.9893 -161.005c25.6432 52.6875 72.1146 102.072 139.414 148.154c6.43237 4.40116 14.4083 6.24654 23.9277 5.53613z" />
    <glyph glyph-name="l" unicode="l" horiz-adv-x="257" 
d="M182 408l95 169c11.3333 20.6667 17 31.3333 17 32c0.666667 1.33333 1.33333 2.33333 2 3l2 2c1.33333 1.33333 2.66667 2.33333 4 3l4 2c10.6667 3.33333 18.3333 1 23 -7c0.666667 -0.666667 1 -1.33333 1 -2v-5v-2l-16 -25c-7.33333 -12 -15.3333 -25.3333 -24 -40
s-17.8333 -30.6667 -27.5 -48c-9.66667 -17.3333 -19.8333 -36 -30.5 -56c-79.3333 -148.667 -126.667 -256.333 -142 -323c-3.55556 -15.4074 -5.33333 -28.3128 -5.33333 -38.716c0 -13.0041 2.77778 -22.0988 8.33333 -27.284c6.66667 -7.33333 15.6667 -9 27 -5
c28 10 59.6667 25 95 45l7 4c3.33333 1.33333 5.83333 2.5 7.5 3.5s2.83333 1.5 3.5 1.5c5.33333 0 7.33333 -3.33333 6 -10c0 -0.666667 -0.166667 -1.16667 -0.5 -1.5s-0.5 -0.833333 -0.5 -1.5c-0.666667 -1.33333 -1.33333 -2.33333 -2 -3s-1.16667 -1.5 -1.5 -2.5
s-0.833333 -1.83333 -1.5 -2.5s-1.33333 -1.66667 -2 -3c-1.33333 -2 -4.5 -4.66667 -9.5 -8l-19.5 -13c-4 -2.66667 -8.5 -5.33333 -13.5 -8s-10.5 -6 -16.5 -10c-18 -10 -33.3333 -17.3333 -46 -22c-13.5 -5.4 -25.4475 -8.1 -35.8425 -8.1
c-12.705 0 -23.0908 4.03333 -31.1575 12.1c-7.33333 7.33333 -11.3333 19 -12 35c-0.0740741 1.77778 -0.111111 3.60494 -0.111111 5.48148c0 15.0123 2.37037 33.1852 7.11111 54.5185c12.6667 46 32.3333 98.6667 59 158c26.6667 59.3333 49.6667 106.667 69 142z
M330 603v0z" />
    <glyph glyph-name="m" unicode="m" horiz-adv-x="524" 
d="M100 287c4 5.33333 7 8 9 8c7.33333 0 9.66667 -8.33333 7 -25c-2.66667 -16 -4.66667 -26 -6 -30c-24 -77.3333 -36 -130.815 -36 -160.444c0 -14.8148 3 -23.6667 9 -26.5556c1.16129 -0.602151 2.5085 -0.903226 4.04162 -0.903226
c22.2303 0 83.5498 63.3011 183.958 189.903c18 22.6667 32.3333 34.6667 43 36h1c9.33333 0 9.66667 -6.66667 1 -20c-2 -3.33333 -8.66667 -14.3333 -20 -33c-17.3333 -30 -31 -69.3333 -41 -118c-2 -10 -3.66667 -19 -5 -27c-0.666667 -4.66667 -1.16667 -9 -1.5 -13
s-0.5 -7.66667 -0.5 -11s0.333333 -6.33333 1 -9s1.66667 -5 3 -7c1.04595 -1.56893 3.04595 -2.2356 6 -2h2c27.3333 3.33333 110 79 248 227l19 21c3.33333 3.33333 6 5.33333 8 6c1.33333 0 2 -0.333333 2 -1c0.666667 -0.666667 1.33333 -1.66667 2 -3
c0.666667 -6 0.333333 -12.3333 -1 -19c-0.666667 -6 -1.66667 -13 -3 -21c-15.6935 -69.6398 -23.5402 -122.008 -23.5402 -157.104c0 -35.6574 8.09972 -53.4861 24.2992 -53.4861c11.2051 0 26.2854 8.53003 45.2411 25.5901l4 -6c-31.3333 -43.3333 -61 -65 -89 -65
c-8.66667 0 -15.5 5.33333 -20.5 16c-3.26087 6.95652 -4.8913 16.3233 -4.8913 28.1002c0 6.28103 0.463768 13.2476 1.3913 20.8998l18 142v2h-1l-1 -1c-10.6667 -10.6667 -25.8333 -26 -45.5 -46s-35.8333 -36.6667 -48.5 -50
c-66.5001 -70.0001 -116.128 -105 -148.883 -105c-6.7461 0 -12.7413 1.64055 -18.1167 5.00015c-12 9.5 -18 26.3125 -18 50.4375c0 8.04167 0.666667 16.8958 2 26.5625l5 36v2h-1l-1 -1l-48 -49c-42 -41.3333 -75 -62.3333 -99 -63
c-21.7026 0 -32.5538 15.8596 -32.5538 47.5787c0 13.1014 1.85128 28.9085 5.55385 47.4213c2.66667 13.3333 5.66667 26 9 38c17.3333 76.6667 34.3333 126 51 148zM259 36z" />
    <glyph glyph-name="n" unicode="n" horiz-adv-x="363" 
d="M120 242c-34.3496 -82.9675 -51.5244 -139.963 -51.5244 -170.988c0 -8.11402 1.1748 -14.4515 3.52439 -19.0125c3.13725 -5.88235 8.3218 -8.82353 15.5536 -8.82353c17.3564 0 46.5052 16.9412 87.4464 50.8235c48 40 82.6667 73 104 99
c32.6667 40 49.3333 59.6667 50 59l30 19h1h2c6 0.666667 7 -8.33333 3 -27c-8.66667 -48 -14.6667 -88.3333 -18 -121c-1.6875 -17.25 -2.53125 -32.2852 -2.53125 -45.1055c0 -32.763 5.51042 -51.0612 16.5312 -54.8945l20 -7
c-0.666667 -3.33333 -3.33333 -5.66667 -8 -7c-11.1746 -3.84127 -20.8859 -5.7619 -29.1338 -5.7619c-7.49811 0 -13.7868 1.5873 -18.8662 4.7619c-11.3208 7.54717 -16.9811 29.6191 -16.9811 66.2157c0 28.0574 3.32704 64.6522 9.98113 109.784
c-36 -37.3333 -65.3333 -66.6667 -88 -88c-71.3333 -63.3333 -126.333 -95 -165 -95c-13.3333 0 -23.3333 7.33333 -30 22c-4 8.66667 -6 19.6667 -6 33c0 13.3333 2 29 6 47c22 84.6667 46 145.333 72 182c17.6544 10.1853 27.1664 15.0645 30.4194 15.0645
c0.774194 0 1.16129 -0.774194 1.16129 -2.32258c0 -6.19355 -6.19355 -24.7742 -18.5806 -55.7419z" />
    <glyph glyph-name="o" unicode="o" horiz-adv-x="272" 
d="M96 163c-1.33333 -4.66667 -2.66667 -8.66667 -4 -12c-0.666667 -2 -1.33333 -4.33333 -2 -7c-2.66667 -12 -4 -23.3067 -4 -33.92c0 -15.92 3 -30.28 9 -43.08c9.33333 -18.6667 22.6667 -28.3333 40 -29h2h2c23.3333 0.666667 44.3333 13 63 37
c19.3333 23.3333 32.3333 47.3333 39 72c0.666667 1.33333 1 3 1 5c3.53153 25.4775 5.2973 45.2281 5.2973 59.252c0 17.1709 -2.64718 25.7563 -7.94153 25.7563c-1.8094 0 -3.92799 -1.00278 -6.35576 -3.00833l-1 -1c-1.33333 -1.33333 -3 -3.33333 -5 -6
c-10 -14 -16.6667 -22.3333 -20 -25c-2.66667 -3.33333 -7 -5 -13 -5h-1h-1c-3.33333 0 -4.66667 1.66667 -4 5v1c0 0.666667 0.333333 1.33333 1 2l1 1c1.33333 2.66667 2.66667 5 4 7c10.6667 12 17.6667 23.6667 21 35v1c0.666667 2.66667 1 5.66667 1 9
c0.666667 6 -4.66667 9.66667 -16 11h-2h-1c-10 0 -22.6667 -6.33333 -38 -19c-32 -27.3333 -53 -56.3333 -63 -87zM212 312h3h3c10.6667 -0.666667 20 -5.33333 28 -14c10 -10 18.6667 -25.6667 26 -47c4.66667 -16.6667 7 -34 7 -52c0 -15.3333 -2 -31.3333 -6 -48
c-0.666667 -2.66667 -1.33333 -5.66667 -2 -9v-1c-5.33333 -20 -13 -38.3333 -23 -55c-32.6667 -56.6667 -73.6667 -85 -123 -85h-5h-5c-38.6667 4.66667 -59.3333 34 -62 88c-0.296296 4.14815 -0.444444 8.2963 -0.444444 12.4444
c0 14.5185 1.81481 29.037 5.44444 43.5556c0.666667 2 1 4 1 6c8 30 23 58.6667 45 86c37.3333 46.6667 73.3333 71.6667 108 75z" />
    <glyph glyph-name="p" unicode="p" horiz-adv-x="337" 
d="M234 188c-17.3333 -6.66667 -30.6667 -13.6667 -40 -21c-16 -12 -25 -21 -27 -27c-1.85714 -8.04762 6.92007 -12.0714 26.3316 -12.0714c1.4932 0 3.04932 0.0238095 4.66837 0.0714286h1h1h4c32.6667 1.33333 60.3333 7 83 17c19.3333 8.66667 34 21 44 37
c4.66667 6.66667 7.66667 13.6667 9 21c0 0.666667 0.333333 1 1 1v1c0.666667 2.83333 1 5.66667 1 8.5c0 8.5 -3 17 -9 25.5c-4 6 -9 11 -15 15c-16.6667 11.3333 -34.6667 17 -54 17c-27.3333 0 -58.3333 -11.3333 -93 -34l-169 -417
c-2.66667 -6.66667 -4.33333 -10.6667 -5 -12c-2.66667 -7.33333 -5.66667 -11 -9 -11c-12 0 -18 0.666667 -18 2c0.666667 1.33333 0.666667 6 0 14v1.5c0 0.333333 0.333333 0.833333 1 1.5v2c2 8 5.33333 18 10 30c28.6667 72.6667 43.3333 110 44 112
c3.33333 16.6667 6.66667 32.3333 10 47c27.3333 118 65 203 113 255c4 12.6667 7.33333 24 10 34c4.66667 4.66667 7.66667 7 9 7l23 2v1c1.33333 0 2.66667 -1.66667 4 -5l-6 -19c0.666667 0 4 1.66667 10 5c28 12.6667 54.3333 19 79 19h1c33.3333 0 60 -10.6667 80 -32
c13.1351 -14.1081 19.7027 -30.8787 19.7027 -50.3119c0 -7.19747 -0.900901 -14.7602 -2.7027 -22.6881v-1c-8.66667 -35.3333 -34.3333 -64 -77 -86c-30.7692 -16.0256 -62.1548 -24.0385 -94.1568 -24.0385c-1.28008 0 -2.56114 0.0128205 -3.8432 0.0384615h-4
c-36.6667 0.666667 -58.6667 11 -66 31c0 0.666667 0.333333 3.33333 1 8c1.33333 5.33333 3.66667 9.66667 7 13c31.3333 30 61.6667 46 91 48h1c2 0 3.33333 -0.666667 4 -2zM121 185c-26.6667 -35.3333 -51 -96 -73 -182z" />
    <glyph glyph-name="q" unicode="q" horiz-adv-x="214" 
d="M268.5 338h0.5c2 0.666667 3.66667 1 5 1c3.33333 0 5 -1.66667 5 -5c0 -0.666667 -0.666667 -1.66667 -2 -3c-1.33333 -2 -15.3333 -29.6667 -42 -83c-68.6667 -135.333 -104.667 -206.333 -108 -213l-52 -100c-11.3333 -23.3333 -25.3333 -54 -42 -92
c-2 -4 -3.33333 -7.33333 -4 -10v-3c0 -2.66667 0.666667 -4 2 -4h1c2 0.666667 5.66667 4.66667 11 12c17.3333 21.3333 26.6667 33.6667 28 37c-6.66667 -19.3333 -13.6667 -34 -21 -44c-16 -24 -29.3333 -36 -40 -36h-3c-7.33333 2 -11.6667 7.33333 -13 16
c-0.666667 3.33333 0 7.66667 2 13c4.66667 20 19.3333 56 44 108c6 13.3333 26 50.3333 60 111c26 47.3333 43 79.6667 51 97c-18 -18.6667 -31 -30 -39 -34c-11.3333 -6.66667 -23.6667 -10.3333 -37 -11h-3c-2.66667 0 -5 0.333333 -7 1
c-10 2.66667 -17.3333 9.66667 -22 21c-2.66023 7.53732 -3.99035 15.5046 -3.99035 23.9018c0 24.1448 10.9968 51.8442 32.9903 83.0982c9.33333 12.6667 17.6667 22.8333 25 30.5c24.0907 25.1857 45.5435 37.7786 64.3583 37.7786
c12.3506 0 23.5644 -5.4262 33.6417 -16.2786c6.65808 -8.47392 9.46934 -16.6731 8.43378 -24.5974c5.28305 9.51622 10.8051 19.7154 16.5662 30.5974c18 34 28.6667 51.6667 32 53s7.66667 2.66667 13 4h1c0.666667 0 1 -0.333333 1 -1h1.5zM178.106 208.057
c-3.28939 -3.92341 -6.65802 -7.60906 -10.1059 -11.057c-10.6667 -10 -18 -16.3333 -22 -19l-8 -4c5.33333 6.66667 8.83333 11.1667 10.5 13.5s4.5 6.5 8.5 12.5c7.33333 12 12 22.3333 14 31c0.666667 3.33333 1 6.33333 1 9c-0.666667 8 -4.66667 13 -12 15
c-2 0.666667 -4 1 -6 1c-5.33333 0 -12.6667 -2.33333 -22 -7c-6.66667 -3.33333 -14.6667 -10 -24 -20c-25.0703 -28.0197 -37.6054 -53.4867 -37.6054 -76.4011c0 -2.9074 0.2018 -5.7737 0.605401 -8.5989c0.666667 -8.66667 6 -13.6667 16 -15h3h1
c10.6667 0 23.3333 6.33333 38 19c16 14 30.6667 31.3333 44 52c1.66556 2.58162 3.36753 5.26727 5.10592 8.05695z" />
    <glyph glyph-name="r" unicode="r" horiz-adv-x="217" 
d="M168 283c18.6667 10 37.6667 15 57 15c6 0 12 -0.5 18 -1.5s12 -2.5 18 -4.5c8 -2.66667 13.8333 -5.5 17.5 -8.5s5.16667 -6.16667 4.5 -9.5c-2 -6 -10 -9 -24 -9h-6h-8c-6 0 -11.8333 -0.333333 -17.5 -1s-11.3333 -1.66667 -17 -3s-11.1667 -3 -16.5 -5
c-16.6667 -6 -30 -13.6667 -40 -23c-12.6667 -12.6667 -22 -24 -28 -34s-16 -29.3333 -30 -58c-6 -14.6667 -15.3333 -40.6667 -28 -78l-19 -57v-1c-4.66667 -2 -9.66667 -3 -15 -3c-4.66667 0 -10 0.666667 -16 2c-0.666667 0 -0.666667 0.666667 0 2
c22 64.6667 37.6667 111.667 47 141c4 14 7 24.6667 9 32c6.66667 28.6667 11 59.6667 13 93l1 1c1.33333 1.33333 2.83333 2.66667 4.5 4s3.5 2.66667 5.5 4s4.33333 2.33333 7 3c1.33333 0.666667 2.83333 1.33333 4.5 2s3 1 4 1h3.5h3c0.666667 0 1.66667 -0.333333 3 -1
v-0.5v-0.5c-1.33333 -20 -2.33333 -33.6667 -3 -41c17.3333 18 33.3333 31 48 39z" />
    <glyph glyph-name="s" unicode="s" horiz-adv-x="215" 
d="M152 221c10 12.6667 16.6667 24 20 34v2c0.989899 3.9596 1.48485 7.52923 1.48485 10.7089c0 11.8102 -6.82828 18.2406 -20.4848 19.2911h-3h-7c-5.33333 -1.33333 -8.66667 -3.33333 -10 -6v-2c2 -16 8.33333 -35.3333 19 -58zM91 49
c8.66667 -8.66667 21.6667 -14 39 -16c1.33333 0 2.66667 -0.333333 4 -1c0.606061 -0.030303 1.20179 -0.0454545 1.78719 -0.0454545c12.2934 0 20.031 6.68182 23.2128 20.0455c0 1.33333 0.333333 2.33333 1 3c0.355556 2.31111 0.533333 4.90667 0.533333 7.78667
c0 18.72 -7.51111 49.4578 -22.5333 92.2133c-1.33333 3.33333 -3 7.66667 -5 13c-2 6 -4.66667 12.6667 -8 20c-8 19.3333 -14 34.3333 -18 45c-5.04167 14.2083 -7.5625 26.526 -7.5625 36.9531c0 4.73958 0.520833 9.08854 1.5625 13.0469
c0 0.666667 0.333333 1.33333 1 2c6.66667 22.6667 20 34.6667 40 36h11c33.0756 -1.08444 49.6133 -13.6351 49.6133 -37.6519c0 -5.51206 -0.871111 -11.6281 -2.61333 -18.3481c-3.33333 -14 -14.6667 -28.3333 -34 -43c-3.33333 -2.66667 -7 -5 -11 -7
c24.3218 -64.5057 36.4828 -113.076 36.4828 -145.712c0 -8.51367 -0.827586 -15.9429 -2.48276 -22.2878c0 -0.666667 -0.333333 -1.33333 -1 -2c-5.33333 -18 -16.3333 -31 -33 -39c-3.33333 -1.33333 -7 -2.66667 -11 -4c-7.33333 -1.33333 -15.3333 -2.33333 -24 -3
c-0.666667 0 -1.33333 0.333333 -2 1c-33.3333 4.66667 -56 18.6667 -68 42c-7.51111 15.6 -11.2667 30.6993 -11.2667 45.2978c0 2.24593 0.0888889 4.48 0.266667 6.70222l2 12c4.66667 19.3333 15.6667 34 33 44c2 1.33333 4.33333 2.66667 7 4c14 6 26 9 36 9
c3.33333 0 6.66667 -0.666667 10 -2c4.66667 -1.33333 7 -2.33333 7 -3l-24 -6c-21.3333 -7.33333 -34.3333 -19 -39 -35c-0.666667 -2 -1 -4.33333 -1 -7c-0.367816 -3.4023 -0.551724 -6.72216 -0.551724 -9.95957c0 -20.2338 7.18391 -37.2473 21.5517 -51.0404z" />
    <glyph glyph-name="t" unicode="t" horiz-adv-x="291" 
d="M259 152v0zM100 103c10 41.3333 34 97 72 167c0.666667 0.666667 0.666667 1.33333 0 2c-28.6667 -2 -52.6667 -7.66667 -72 -17c-2.66667 -1.33333 -5.66667 -3.66667 -9 -7c-4 -4 -8 -6 -12 -6c-9.33333 0 -12.6667 5.33333 -10 16c0 1.33333 0.333333 2.66667 1 4
c7.33333 24.6667 39.3333 41.3333 96 50c3.33333 0.666667 6.66667 1 10 1c2.66667 0.666667 5.33333 1 8 1h2h9h1c28 51.3333 52.6667 93 74 125c0.666667 0.666667 0.666667 1 0 1h-1l-17 -14l-44 -42l6 9l21 30c19.3333 25.3333 31.6667 40.6667 37 46
c34.6667 39.3333 59 59.3333 73 60c2.66667 0 4.66667 -1 6 -3c2 -2 2.66667 -4 2 -6c0 -0.666667 -0.333333 -1.66667 -1 -3c-21.3333 -31.3333 -50 -78 -86 -140c-12.6667 -22 -24 -43.3333 -34 -64c-0.666667 -0.666667 -0.666667 -1.33333 0 -2h3
c33.3333 0 62 -4.33333 86 -13c8 -3.33333 15.6667 -8 23 -14l1 -1c-4.66667 -0.666667 -16.3333 -1.33333 -35 -2c-14.6667 -0.666667 -28.6667 -1.33333 -42 -2l-58 -6c-0.666667 0 -0.666667 -0.333333 0 -1c-8.66667 -14 -18 -30.6667 -28 -50
c-15.3333 -31.3333 -26.3333 -55.6667 -33 -73c-5.33333 -15.3333 -9.66667 -29 -13 -41c-2.88889 -12.4444 -4.33333 -23.2222 -4.33333 -32.3333c0 -18.2222 5.77778 -29.7778 17.3333 -34.6667c3.33333 -1.33333 6.33333 -2 9 -2c14.6667 0 32.3333 11 53 33
c18 20 33.6667 46.6667 47 80v1h1c0.666667 0 0.666667 -0.333333 0 -1c0 -6 -0.666667 -12.6667 -2 -20c-3.33333 -14 -10 -30.3333 -20 -49c-17.3333 -30 -34 -50.6667 -50 -62c-18 -12.6667 -34.6667 -19 -50 -19h-4h-7c-16 2.66667 -26 15.6667 -30 39
c-0.6 5.6 -0.9 11.38 -0.9 17.34c0 13.9067 1.63333 28.7933 4.9 44.66z" />
    <glyph glyph-name="u" unicode="u" horiz-adv-x="330" 
d="M300 282c4.66667 10 10.6667 14.6667 18 14l6 -1c8.66667 -0.666667 11 -6 7 -16c-1.33333 -6 -3 -11.3333 -5 -16c-0.666667 -1.33333 -1.33333 -3 -2 -5l-2 -4c-0.666667 -2 -1 -3.66667 -1 -5l-2 -4c-13.3333 -39.3333 -19.6667 -60.3333 -19 -63
c0 -0.666667 -0.333333 -1 -1 -1c-4 -19.3333 -6.33333 -37 -7 -53c-0.296296 -6.37037 -0.444444 -12.5103 -0.444444 -18.4198c0 -20.6831 1.81481 -38.5432 5.44444 -53.5802c4.66667 -19.3333 11.6667 -37 21 -53c-10.6667 2 -20 4.33333 -28 7
c-19.3333 6.66667 -31 47 -35 121c-59.3333 -68 -116.667 -110 -172 -126c-8.66667 -2.66667 -16.3333 -4 -23 -4c-12.6667 0 -20.3333 5 -23 15c-1.96364 9.70909 -2.94545 20.3286 -2.94545 31.8585c0 58.9307 25.6485 141.645 76.9455 248.141
c0.666667 1.33333 5 4.33333 13 9h1h1c2 0 4 -0.666667 6 -2c3.33333 -1.33333 6.66667 -6.66667 10 -16v-1c0 -0.666667 -0.333333 -1.33333 -1 -2c-0.666667 -1.33333 -1 -3 -1 -5c-12 -26 -23 -52.3333 -33 -79c-16 -44.6667 -25.6667 -76.3333 -29 -95
c-3.62963 -15.5556 -5.44444 -28.6914 -5.44444 -39.4074c0 -3.06173 0.148148 -5.92593 0.444444 -8.59259c0.666667 -6.66667 4.66667 -10 12 -10c6.66667 0 15.6667 2.66667 27 8c20.6667 10.6667 38.5 21.6667 53.5 33s29.8333 25.6667 44.5 43
c14.6667 16.6667 29 37 43 61c15.3333 26.6667 26 46 32 58z" />
    <glyph glyph-name="v" unicode="v" horiz-adv-x="300" 
d="M138 61c-2.66667 -4.66667 -10.6667 -17 -24 -37c-8.66667 -12.6667 -15.3333 -20.3333 -20 -23c-1.33333 -0.666667 -2.66667 -1 -4 -1c-2 0 -4 0.833333 -6 2.5c-2 1.66667 -3.66667 3.5 -5 5.5c-10.1264 15.1895 -15.1895 33.9773 -15.1895 56.3632
c0 2.50071 0.0631833 5.04633 0.18955 7.63684c2 54.6667 5.33333 114 10 178c0 0.666667 0.333333 1.33333 1 2c2.66667 10.6667 8.66667 20.3333 18 29c10.6667 8.66667 17.3333 12.3333 20 11c1.33333 -0.666667 2.33333 -1 3 -1s1 -0.166667 1 -0.5v-1.5
c0 -1.33333 -2 -9.33333 -6 -24c-12.6491 -46.0788 -18.9736 -88.7653 -18.9736 -128.06c0 -22.0482 1.99121 -43.0283 5.97363 -62.9404c0.666667 -3.33333 1.33333 -6.5 2 -9.5c0.666667 -3 1.33333 -5.5 2 -7.5c1.33333 2 2.83333 4.5 4.5 7.5s4.16667 7.16667 7.5 12.5
c79.2052 122.69 132.872 192.69 161 210c8.66667 5.33333 19.6667 8 33 8c30 0 46 -9.33333 48 -28c0.666667 -7.33333 -2.66667 -14 -10 -20s-13.7294 -7.46863 -19.1882 -4.40588c-10.5412 6.27058 -19.8118 8.40588 -27.8118 6.40588
c-51.2353 -13.1373 -104.902 -75.8039 -161 -188z" />
    <glyph glyph-name="w" unicode="w" horiz-adv-x="388" 
d="M380 326c4.66667 0 9 -1.66667 13 -5c10.0833 -19.25 15.125 -40.8633 15.125 -64.8398c0 -10.8984 -1.04167 -22.2852 -3.125 -34.1602c-1.33333 -6 -2.66667 -12.3333 -4 -19c-15.3333 -66 -50 -122 -104 -168c-28.6667 -24.6667 -55.3333 -37.3333 -80 -38
c-14.6667 0 -26.3333 3.66667 -35 11c-19.3333 16 -33.3333 41 -42 75c-31.3333 -35.3333 -55.6667 -53.6667 -73 -55c-16.0444 0 -24.0667 12.9693 -24.0667 38.9078c0 15.017 2.68889 34.3811 8.06667 58.0922c8.66667 38 28 83.6667 58 137v2
c0.666667 2.66667 1.66667 4.66667 3 6c1.33333 2.66667 3.33333 5 6 7c7.33333 6 13.6667 9 19 9c4 0 7.66667 -1.66667 11 -5c1.33333 -2.66667 1.33333 -6.33333 0 -11c-0.666667 -4.66667 -5 -15.6667 -13 -33c-2.66667 -5.33333 -6.83333 -13.8333 -12.5 -25.5
c-5.66667 -11.6667 -10.5 -21.8333 -14.5 -30.5c-6.66667 -16 -13 -33.6667 -19 -53l-2 -10c-2.08333 -8.75 -3.125 -16.1979 -3.125 -22.3438c0 -3.6875 0.375 -6.90625 1.125 -9.65625c1.33333 -2 2.66667 -3 4 -3c3.33333 0 8 2.33333 14 7
c13.3333 11.3333 29.6667 32.3333 49 63c2.66667 0.666667 4.66667 1 6 1h6c0.666667 0 2.16667 -0.166667 4.5 -0.5l3.5 -0.5h2c0.666667 0 1 -0.333333 1 -1c-0.925926 -8.88889 -1.38889 -17.2377 -1.38889 -25.0463c0 -20.3025 3.12963 -36.9537 9.38889 -49.9537
c14 -26.6667 30 -40.3333 48 -41h3c21.3333 1.33333 47 20 77 56c15.3333 18 28 37 38 57c8 16 14.3333 33.3333 19 52v3c4.08333 18.6667 6.125 35.0365 6.125 49.1094c0 2.01042 -0.0416667 3.97396 -0.125 5.89063c-0.666667 6 -2.5 14 -5.5 24s-4.5 15.6667 -4.5 17v9
c2.66667 11.3333 8 17 16 17z" />
    <glyph glyph-name="x" unicode="x" horiz-adv-x="324" 
d="M368 315c1.33333 0.666667 2.33333 1 3 1c1.33333 0.666667 2.66667 1 4 1c4 0 5.66667 -2.66667 5 -8c-1.33333 -4 -6.5 -9.5 -15.5 -16.5s-15.8333 -11.8333 -20.5 -14.5c-67.3333 -32 -125.333 -67.3333 -174 -106c6.66667 -22 14.5 -41.3333 23.5 -58
c9 -16.6667 17.5 -30.3333 25.5 -41c8 -10.6667 20.6667 -26.6667 38 -48l1 -1c1.33333 -3.33333 1.66667 -6 1 -8c0 -0.666667 -0.333333 -1 -1 -1c-1.33333 -3.33333 -3.33333 -5.33333 -6 -6c-0.666667 0 -1.33333 -0.333333 -2 -1c-2.66667 0 -6 1 -10 3
c-4.66667 2 -9.33333 4.66667 -14 8c-8 5.33333 -16.6667 13 -26 23c-5.33333 6 -9.33333 10.3333 -12 13s-6.66667 7.5 -12 14.5s-9.83333 13.6667 -13.5 20s-8 14.3333 -13 24s-9.5 20.1667 -13.5 31.5c-24.6667 -20.6667 -50 -45 -76 -73
c-18 -20 -27.3333 -30.3333 -28 -31h-1c-0.666667 0 -1 0.666667 -1 2c0.666667 7.33333 1.66667 14 3 20c2 8 4.33333 14.6667 7 20c17.3333 28 45.6667 61 85 99c-12 48.6667 -19 80 -21 94c0 2.66667 0.333333 5 1 7c0.666667 3.33333 2 6.33333 4 9
c1.33333 2 3.16667 3.5 5.5 4.5s4.83333 1.5 7.5 1.5h1c6.66667 0 11.6667 -1.33333 15 -4c3.33333 -10 6.5 -22.8333 9.5 -38.5c3 -15.6667 6.83333 -30.5 11.5 -44.5c38 26 72.6667 47 104 63c31.3333 16 66.3333 29.6667 105 41z" />
    <glyph glyph-name="y" unicode="y" horiz-adv-x="314" 
d="M331.749 285.608c-2.46289 1.67969 -6.33691 2.87826 -11.6221 3.5957c-1.23112 0.839844 -1.80208 1.59017 -1.71289 2.25098c10.4141 7.33268 17.0319 11.4805 19.8535 12.4434c6.30404 1.83529 11.7682 2.43913 16.3926 1.81152
c1.98177 -0.26888 3.91895 -0.867839 5.81152 -1.79688c5.58178 -3.0039 9.48779 -8.4453 9.48779 -16.6889c0 -7.65808 -2.76123 -18.9691 -8.28369 -33.9332c-24.0124 -57.9642 -59.7246 -107.95 -107.137 -149.956c-46.6621 -41.4349 -89.224 -62.5703 -127.686 -63.4063
c-0.0898438 -0.660807 -6.12109 -17.8392 -18.0938 -51.5352c-11.9733 -33.696 -20.1162 -58.9974 -24.4287 -75.9043c-3.16158 -14.0806 -4.74236 -26.7944 -4.74236 -38.1413c0 -19.169 4.51145 -34.437 13.5344 -45.804
c4.56771 -6.00195 6.38704 -9.94889 5.45801 -11.8408c-0.179688 -1.32161 -1.59082 -1.80306 -4.2334 -1.44434c-0.660156 0.0898438 -1.32064 0.179688 -1.98145 0.269531c-7.83789 1.73633 -15.0765 5.40951 -21.7158 11.0195
c-10.8151 9.54102 -17.4258 17.8385 -19.832 24.8926c-2.61857 8.18699 -3.92785 17.6434 -3.92785 28.3691c0 8.62376 0.846393 18.0681 2.53918 28.333c7.78516 32.582 22.3177 77.7044 43.5977 135.367c-12.4616 2.36328 -22.4769 5.4043 -30.0459 9.12305
c-7.56901 3.7181 -13.3519 8.2028 -17.3486 13.4541c-3.99674 5.25195 -6.77832 12.0208 -8.34473 20.3066c-0.768062 4.86465 -1.15209 9.93913 -1.15209 15.2235c0 17.1207 4.03117 36.444 12.0935 57.9699c7.49284 20.5124 19.0225 43.5042 34.5889 68.9756
c0.179036 1.32161 0.688477 2.59798 1.52832 3.8291c4.25586 11.5326 11.6969 19.2692 22.3232 23.21c4.98307 2.01432 9.45638 2.7526 13.4199 2.21484c5.94596 -0.806641 10.8724 -4.16602 14.7793 -10.0781c2.85482 -3.7513 4.53939 -8.68945 5.05371 -14.8145
c0.21224 -3.39258 -0.236003 -6.69564 -1.34473 -9.90918c-0.929036 -1.89193 -1.90332 -4.11458 -2.92285 -6.66797c-2.42969 -3.03385 -6.97005 -4.26758 -13.6211 -3.70117c-6.65104 0.565755 -10.7718 -0.0527344 -12.3623 -1.85547
c-15.0846 -26.8822 -24.6654 -45.4287 -28.7422 -55.6396l-0.134766 -0.991211c-4.95685 -14.0011 -7.43527 -26.116 -7.43527 -36.3446c0 -12.2822 3.57348 -21.8447 10.7204 -28.6876c9.19206 -6.62956 19.0729 -10.6615 29.6426 -12.0957
c3.96419 -0.53776 8.30306 -0.790039 13.0166 -0.756836c16.2135 0.490885 33.2503 4.57031 51.1104 12.2383c30.5573 12 65.0973 40.9518 103.62 86.8555c19.1712 22.291 33.8975 46.5309 44.1787 72.7197c0.929688 1.89258 1.52897 3.82975 1.79785 5.81152
c4.19923 11.9133 6.29885 20.5311 6.29885 25.8535c0 2.99617 -0.665372 4.948 -1.99612 5.85548z" />
    <glyph glyph-name="z" unicode="z" horiz-adv-x="381" 
d="M305.292 298.354c19.6934 4.6849 35.306 8.30859 46.8379 10.8711c11.5319 2.56315 19.2933 3.70996 23.2842 3.44043l0.998047 -0.0673828c3.99089 -0.26888 6.91667 -1.46842 8.77734 -3.59863s2.61165 -5.85612 2.25293 -11.1777
c-0.0898437 -1.33008 -0.51237 -2.6377 -1.26758 -3.92285c-2.53385 -7.84766 -8.83822 -17.111 -18.9131 -27.79c-64.3971 -63.1413 -135.352 -119.493 -212.864 -169.054c97.1833 -44.7292 168.582 -67.0938 214.196 -67.0938c20.4386 0 35.7002 4.49026 45.7849 13.4708
l1.6582 -5.12402l-91.4473 -62.9863c-2.84049 -2.48112 -4.23828 -3.389 -4.19336 -2.72363l-84.3115 42.7725c-18.7507 9.28385 -31.7171 15.1702 -38.8994 17.6592c-42.8678 18.2604 -71.8164 29.9023 -86.8457 34.9258
c-8.34115 -4.78255 -19.001 -11.7474 -31.9795 -20.8945s-22.6182 -15.8467 -28.9189 -20.0986c-8.73633 -0.746745 -14.1247 -1.38542 -16.165 -1.91602l-1.99609 0.134766c-2.66016 0.179688 -6.27344 1.09147 -10.8398 2.73535l-9.77539 3.66699
c-1.24089 1.41992 -1.81641 2.79492 -1.72656 4.125c0.0449219 0.665365 0.422526 1.30827 1.13281 1.92871c18.9915 14.0866 52.957 37.1855 101.896 69.2969c100.719 66.7044 167.656 117.981 200.812 153.831c-10.112 -1.32227 -35.859 -6.60124 -77.2412 -15.8369
c-32.194 -6.96836 -58.3118 -10.4525 -78.3532 -10.4525c-4.86383 0 -9.36978 0.20521 -13.5179 0.615631c-2.99316 0.202148 -2.99316 0.202148 -5.98633 0.404297c-8.60221 1.24805 -14.1888 2.62695 -16.7598 4.13672c-6.22514 6.57653 -9.3377 15.5031 -9.3377 26.7796
c0 3.41086 0.284769 7.03672 0.854306 10.8776c0.0442708 0.664714 0.0888672 1.32975 0.133789 1.99512c0.845052 2.61589 1.6224 4.23405 2.33203 4.85449c8.95312 -5.94987 18.0186 -10.2367 27.1963 -12.8604c1.95052 -0.799479 4.58887 -1.31152 7.91504 -1.53613
c3.14479 -0.212133 7.02281 -0.318199 11.634 -0.318199c7.09248 0 15.9195 0.250923 26.4812 0.752769c19.5137 2.02409 58.568 11.4163 117.163 28.1768z" />
    <glyph glyph-name="nbsp" unicode="&#xa0;" horiz-adv-x="232" 
 />
    <glyph glyph-name="h.ss01" horiz-adv-x="325" 
d="M282 589c13.3333 13.3333 25 20.3333 35 21h2c9.33333 0 16 -4 20 -12c4.66667 -9.33333 8.16667 -19.8333 10.5 -31.5c1.48485 -7.42424 2.22727 -14.646 2.22727 -21.6653c0 -4.01102 -0.242424 -7.95592 -0.727273 -11.8347c-0.666667 -6 -1.66667 -12 -3 -18
c-6 -27.3333 -20.6667 -56.6667 -44 -88c-10.6667 -14.6667 -23.8333 -29.5 -39.5 -44.5c-15.6667 -15 -29 -26.6667 -40 -35s-27.1667 -20.1667 -48.5 -35.5l-1 -1c-8 -17.3333 -16 -35 -24 -53c-36 -81.3333 -58 -140.667 -66 -178l-2 -6
c-2.66667 -13.3333 -0.666667 -20 6 -20c15.3333 0 61.3333 47.3333 138 142c0.666667 0.666667 2.66667 3.66667 6 9c5.33333 8 11.3333 12 18 12c2.66667 0 5.33333 -0.666667 8 -2c3.33333 -1.33333 4.33333 -8 3 -20
c-0.694444 -8.47222 -1.04167 -16.7564 -1.04167 -24.8524c0 -30.765 5.01389 -58.8142 15.0417 -84.1476c18.75 -46.25 28.125 -73.1641 28.125 -80.7422c0 -7.1446 -7.26346 -10.6004 -17.125 -11.2578c-0.666667 0 -3.66667 1.33333 -9 4c-6 2 -9.33333 3.66667 -10 5
c-22 52 -35 99 -39 141c0 2 -1 3 -3 3c-0.666667 0 -1.33333 -0.166667 -2 -0.5s-1 -0.833333 -1 -1.5c-40.6667 -49.3333 -75.6667 -85.3333 -105 -108c-28.6667 -22 -50 -33.3333 -64 -34c-4.66667 0 -9 3.66667 -13 11c-1.11111 2 -1.66667 5.25926 -1.66667 9.77778
c0 9.03704 2.22222 23.1111 6.66667 42.2222c0.666667 1.33333 1 2.66667 1 4c11.3333 46.6667 38 115.667 80 207c0.666667 1.33333 0.333333 2.33333 -1 3c-0.666667 0.666667 -1 0.333333 -1 -1l-42 -28l17 24c2.66667 4.66667 4 8.66667 4 12
c0.666667 2.66667 1 4.66667 1 6c4.66667 3.33333 11 8.33333 19 15c10 8 17.3333 13.3333 22 16l1 2c28.6667 66.6667 55.6667 125 81 175c9.33333 18 15.8333 30.8333 19.5 38.5s8.66667 16.1667 15 25.5s12.8333 17.3333 19.5 24zM314 567c-2 2.66667 -4.33333 4 -7 4
c-7.33333 0 -17.6667 -11.6667 -31 -35c-4.66667 -8.66667 -11.6667 -24 -21 -46c-4 -9.33333 -12.5 -27.8333 -25.5 -55.5s-23.5 -50.5 -31.5 -68.5c-0.666667 -1.33333 -0.333333 -2 1 -2c0.666667 -0.666667 1 -0.666667 1 0c72 60.6667 112.667 111.333 122 152
c1.48485 6.15152 2.22727 12.0668 2.22727 17.7459c0 12.1694 -3.40909 23.2541 -10.2273 33.2541z" />
    <glyph glyph-name="s.ss01" horiz-adv-x="215" 
d="M164 311c0.666667 0 1.66667 -0.333333 3 -1c20.6667 -1.33333 36.3333 -6.66667 47 -16c7.14286 -6.66667 10.7143 -14.8639 10.7143 -24.5918c0 -3.89116 -0.571429 -8.02721 -1.71429 -12.4082c0 -1.33333 -0.333333 -2.33333 -1 -3
c-2 -7.33333 -7.66667 -14.6667 -17 -22s-19 -13 -29 -17v4c10.6667 12.6667 16.6667 21 18 25c0 0.666667 0.166667 1.33333 0.5 2l0.5 1c2 7.33333 0 13.6667 -6 19s-13.6667 8.66667 -23 10h-3h-4h-3c-5.33333 -0.666667 -8.66667 -2.33333 -10 -5v-2
c1.33333 -15.3333 7 -33.3333 17 -54c2.66667 -6 4.33333 -10 5 -12c0.666667 -2.66667 2.66667 -7.83333 6 -15.5s6.16667 -14.6667 8.5 -21s5.16667 -14.6667 8.5 -25s5.66667 -19.5 7 -27.5s2.33333 -17.3333 3 -28c0.666667 -9.33333 0.333333 -17.3333 -1 -24
c0 -1.33333 -0.333333 -2.66667 -1 -4c-2 -7.33333 -5 -15.6667 -9 -25c-12 -20.6667 -32.6667 -31 -62 -31h-8c-22.6667 1.33333 -42.6667 8.66667 -60 22c-15.3333 12 -23 24.3333 -23 37c0 2.66667 0.333333 6 1 10c0 1.33333 0.333333 2.66667 1 4
c4.66667 17.3333 16 30.6667 34 40l6 4c10 4 19.6667 5.66667 29 5h4c3.33333 0 6.33333 -0.666667 9 -2c4.66667 -1.33333 7 -2.33333 7 -3l-24 -5c-19.3333 -5.33333 -31 -15.3333 -35 -30v-2c0 -1.33333 -0.333333 -3 -1 -5c-0.666667 -5.33333 1.5 -11.3333 6.5 -18
c5 -6.66667 11.6667 -12.6667 20 -18c8.33333 -5.33333 17.1667 -9 26.5 -11c4 -1.33333 8 -2 12 -2c4.66667 0 9.66667 1.33333 15 4c8.66667 4 15.3333 11 20 21c1.33333 2.66667 2 5.66667 2 9c1.28205 5.38462 1.92308 11.4596 1.92308 18.2249
c0 10.8245 -1.64103 23.4162 -4.92308 37.7751c-3.33333 14.6667 -10.6667 34.3333 -22 59s-18.6667 41 -22 49c-5.55556 16.1111 -8.33333 30.1389 -8.33333 42.0833c0 2.38889 0.111111 4.69444 0.333333 6.91667v4c1.33333 6.66667 5.66667 12.6667 13 18
c8 6.66667 17.3333 11 28 13c2 0.666667 4.33333 1 7 1h1z" />
    <glyph glyph-name="a.ss01" horiz-adv-x="264" 
d="M230 317h6c14.6667 0 25.6667 -5.33333 33 -16c8.04762 -14.2381 12.0714 -27.0391 12.0714 -38.4031c0 -5.47456 -1.31374 -10.8085 -2.07143 -14.5969c-2 -8 -4.66667 -12.6667 -8 -14h-1c-2 0 -3.33333 3.33333 -4 10c-2 24.6667 -13.3333 37 -34 37
c-6 0 -13 -1.33333 -21 -4c-34 -9.33333 -62.3333 -30.6667 -85 -64c-26 -38 -42.6667 -72 -50 -102c-2.38095 -10.9524 -3.57143 -21.3946 -3.57143 -31.3265c0 -3.97279 0.190476 -7.86395 0.571429 -11.6735c1.33333 -10 5 -18.6667 11 -26s13.3333 -11.6667 22 -13h3
c14 0 29.6667 9.33333 47 28l10 11c17.3333 22.6667 36 70 56 142c6 -0.666667 11.6667 -4.66667 17 -12c4 -6.66667 5.33333 -13.3333 4 -20c0 -1.33333 -0.333333 -2.66667 -1 -4c-2 -6.66667 -3.66667 -13 -5 -19c-5.33333 -22 -8 -41.6667 -8 -59
c0 -20 2.33333 -36.3333 7 -49c3.33333 -8.66667 9 -17.6667 17 -27c4.66667 -5.33333 12 -9.33333 22 -12c7.33333 -2 10.6667 -3.66667 10 -5c0 -1.33333 -2.33333 -2.33333 -7 -3c-2.66667 -0.666667 -5.66667 -1 -9 -1h-5c-22.6667 4 -38 11.6667 -46 23
c-8.66667 12.6667 -13.6667 24.6667 -15 36c-0.666667 4 -1.33333 8.33333 -2 13c-2.66667 -4.66667 -5.66667 -9 -9 -13v-1c-2 -3.33333 -4.33333 -6.33333 -7 -9c-1.33333 -1.33333 -2.83333 -3 -4.5 -5s-3.33333 -3.83333 -5 -5.5s-3.16667 -3.5 -4.5 -5.5
c-21.3529 -21.3529 -43.9619 -32.0294 -67.827 -32.0294c-0.723183 0 -1.44752 0.00980392 -2.17301 0.0294118h-3c-15.3333 0.666667 -27.6667 6.5 -37 17.5c-9.33333 11 -15.3333 24.5 -18 40.5c-0.6 4.4 -0.9 8.95 -0.9 13.65c0 10.9667 1.63333 22.75 4.9 35.35
c8 34.6667 27 74.6667 57 120c15.3333 22.6667 34.5 42.5 57.5 59.5s45.8333 27.1667 68.5 30.5z" />
    <glyph glyph-name="a.ss02" horiz-adv-x="318" 
d="M196 272c-23.3333 -3.33333 -45.8333 -18.3333 -67.5 -45c-21.6667 -26.6667 -37.8333 -55 -48.5 -85c-1.33333 -4.66667 -2.33333 -9 -3 -13c-2.9641 -12.7282 -4.44615 -24.1568 -4.44615 -34.2857c0 -28.5993 11.8154 -46.8374 35.4462 -54.7143
c4 -1.33333 8.33333 -2 13 -2c22 0 47.6667 17 77 51c12 14 19 25.6667 21 35c2.66667 10.6667 1 16.6667 -5 18l-3 1c-3.33333 -0.666667 -7 -1.33333 -11 -2c-6 -0.666667 -10.3333 -1.66667 -13 -3c1.33333 2.66667 7 10 17 22c14.6667 17.3333 23 28.3333 25 33
c3.33333 8 7.33333 21 12 39c0.666667 2.66667 1 5.33333 1 8c0.948148 4.14815 1.42222 7.9065 1.42222 11.2751c0 14.5554 -8.85124 21.833 -26.5537 21.833c-1.24568 0 -2.53518 -0.036036 -3.86852 -0.108108c-4.66667 0 -10.3333 -0.333333 -17 -1zM140 274
c34 26.6667 61.3333 40.3333 82 41h5c21.3333 0 35.6667 -9.33333 43 -28c4.87619 -11.581 7.31429 -24.2765 7.31429 -38.0865c0 -16.3995 -3.4381 -34.3706 -10.3143 -53.9135c-12.5952 -36.1429 -18.8929 -67.2251 -18.8929 -93.2468
c0 -37.3355 12.9643 -64.2532 38.8929 -80.7532c-7.33333 -3.33333 -14 -5 -20 -5c-8.66667 0 -15.6667 4 -21 12l-23 33c-0.666667 1.33333 -2 2 -4 2c-1.33333 0 -3 -0.666667 -5 -2l-23 -20c-14 -12 -28 -21.3333 -42 -28c-16 -8 -30.3333 -12 -43 -12
c-0.545455 -0.0151515 -1.08815 -0.0227273 -1.6281 -0.0227273c-23.2176 0 -41.3416 14.0076 -54.3719 42.0227c-6 13.2 -9 27.36 -9 42.48c0 10.08 1.33333 20.5867 4 31.52c6.66667 27.3333 17.8333 55.3333 33.5 84c15.6667 28.6667 36.1667 53 61.5 73zM219 63v0z" />
    <glyph glyph-name="g.ss01" horiz-adv-x="270" 
d="M219 237c7.33333 1.33333 13.8333 5 19.5 11s9.83333 12.6667 12.5 20c0.666667 1.33333 1 2.66667 1 4c1.33333 6 1 11.3333 -1 16c-3.33333 8 -8 12 -14 12h-1c-8.66667 0 -15 -3.33333 -19 -10c-1.33333 -3.33333 -2.66667 -7 -4 -11
c-0.761905 -3.80952 -1.14286 -7.67347 -1.14286 -11.5918c0 -9.79592 2.38095 -19.932 7.14286 -30.4082zM274 316c4.7619 -6.19048 7.14286 -14.2517 7.14286 -24.1837c0 -3.97279 -0.380952 -8.2449 -1.14286 -12.8163c-0.666667 -2.66667 -1 -5.33333 -1 -8
c-2.66667 -12.6667 -8 -24.3333 -16 -35s-20.6667 -20.6667 -38 -30v-17c0 -11.3333 0.166667 -29.8333 0.5 -55.5c0.333333 -25.6667 0.833333 -50.8333 1.5 -75.5c0.156863 -9.64706 0.235294 -19.0265 0.235294 -28.1384c0 -68.3391 -4.41176 -121.626 -13.2353 -159.862
c-8 -33.3333 -19 -55 -33 -65c-8.66667 -6 -17.6667 -9 -27 -9c-26 4.66667 -50.3333 14.6667 -73 30c-22.6667 15.3333 -40.8333 36 -54.5 62c-9.18579 17.4754 -13.7787 35.5532 -13.7787 54.2333c0 9.11225 1.0929 18.3678 3.27869 27.7667
c2 7.33333 4.33333 14.6667 7 22c9.33333 22.6667 23.3333 34 42 34h1c9.33333 0 13 -4.66667 11 -14c-1.33333 -5.33333 -6 -12.6667 -14 -22c-7.33333 -10 -12.3333 -20 -15 -30c-2 -8.66667 -2 -17.3333 0 -26c4 -18.6667 13 -35.1667 27 -49.5
c14 -14.3333 28.8333 -26.1667 44.5 -35.5c15.6667 -9.33333 27.8333 -14 36.5 -14c3.33333 0 6.66667 1.33333 10 4c8 6.66667 14 19 18 37c5.37778 24.4444 8.06667 59.2859 8.06667 104.524c0 16.4504 -0.355556 34.2756 -1.06667 53.4756c-2 47.3333 -4 98.6667 -6 154
c0 10 -0.666667 18.6667 -2 26c-3.6 14.4 -5.4 27.48 -5.4 39.24c0 7.84 0.8 15.0933 2.4 21.76c4.66667 20 14.3333 35 29 45c9.09091 6.06061 18.7328 9.09091 28.9256 9.09091c1.01928 0 2.04408 -0.030303 3.07438 -0.0909091h1c15.3333 0 26 -4.33333 32 -13z" />
    <glyph glyph-name="e.ss01" horiz-adv-x="238" 
d="M242 249v1c1.33333 6 -5.66667 9.66667 -21 11h-3c-15.3333 0 -33 -9.33333 -53 -28c-22 -20 -35.3333 -38.6667 -40 -56c0 -0.666667 -0.333333 -1.33333 -1 -2h6c26 0 54 13.3333 84 40c16 14 25.3333 25.3333 28 34zM228 70c0 -2 -0.333333 -3.66667 -1 -5
c-4 -18 -14.6667 -33.6667 -32 -47c-16.6667 -12 -32.3333 -18 -47 -18h-7c-25.3333 3.33333 -43.6667 20.3333 -55 51c-6.64368 17.5862 -9.96552 35.7451 -9.96552 54.4768c0 13.2224 1.65517 26.7301 4.96552 40.5232c0 0.666667 0.333333 1 1 1
c-2.66667 0.666667 -7.83333 3.33333 -15.5 8c-7.66667 4.66667 -12 8 -13 10s-1.16667 4 -0.5 6c1.33333 6 9 13.3333 23 22h1c0.666667 0 2 -0.666667 4 -2s4.33333 -3 7 -5s4.33333 -3.33333 5 -4c11.3333 24.6667 24.6667 45 40 61c34.6667 36 68 54.6667 100 56h4
c24.1699 0 36.2549 -9.24145 36.2549 -27.7243c0 -3.43868 -0.418301 -7.19723 -1.2549 -11.2757v-1c-2 -10 -9.33333 -23.3333 -22 -40c-10.6667 -15.3333 -23 -28.6667 -37 -40c-31.3333 -26 -61.3333 -39 -90 -39h-8c-0.666667 -1.33333 -1 -2.66667 -1 -4
c-2.46154 -10.4615 -3.69231 -20.355 -3.69231 -29.6805c0 -20.9822 6.23077 -39.0888 18.6923 -54.3195c10 -12 21 -18 33 -18h2c11.3333 0 21.3333 2.66667 30 8c9.33333 6.66667 20.6667 16 34 28z" />
    <glyph glyph-name="e.ss02" 
d="M220 254c1.33333 6.66667 -7 10 -25 10s-38.3333 -11 -61 -33c-22.6667 -22 -36 -42 -40 -60c0 -0.666667 -0.333333 -1.33333 -1 -2c31.3333 0 64.3333 16 99 48c16.6667 15.3333 26 27.6667 28 37zM269 78v-1c-5.33333 -23.3333 -20 -42 -44 -56s-48 -21 -72 -21
c-70.6728 1.32099 -106.009 37.324 -106.009 108.009c0 50.5574 17.0569 93.0211 50.0093 127.991c35.3333 38.6667 71 60 107 64c4.6087 0.521739 8.8828 0.782609 12.8223 0.782609c23.1919 0 34.7879 -9.04091 34.7879 -27.1227
c0 -2.39471 -0.20339 -4.948 -0.610169 -7.65987c-1.33333 -10.6667 -7.66667 -24.6667 -19 -42c-10.6667 -16 -23.3333 -30 -38 -42c-35.3333 -30.6667 -71 -46 -107 -46c-1.77778 -8.44444 -2.66667 -16.6667 -2.66667 -24.6667c0 -16 3.55556 -31.1111 10.6667 -45.3333
c10.6667 -21.3333 32.3333 -32 65 -32c1.13043 -0.0144928 2.25347 -0.0217391 3.36909 -0.0217391c50.2032 0 85.4135 14.6739 105.631 44.0217z" />
    <glyph glyph-name="e.ss03" 
d="M220 254c1.33333 6.66667 -7 10 -25 10s-38.3333 -11 -61 -33c-22.6667 -22 -36 -42 -40 -60c0 -0.666667 -0.333333 -1.33333 -1 -2c31.3333 0 64.3333 16 99 48c16.6667 15.3333 26 27.6667 28 37zM269 78v-1c-5.33333 -23.3333 -20 -42 -44 -56s-48 -21 -72 -21
c-70.6728 1.32099 -106.009 37.324 -106.009 108.009c0 50.5574 17.0569 93.0211 50.0093 127.991c35.3333 38.6667 71 60 107 64c4.6087 0.521739 8.8828 0.782609 12.8223 0.782609c23.1919 0 34.7879 -9.04091 34.7879 -27.1227
c0 -2.39471 -0.20339 -4.948 -0.610169 -7.65987c-1.33333 -10.6667 -7.66667 -24.6667 -19 -42c-10.6667 -16 -23.3333 -30 -38 -42c-35.3333 -30.6667 -71 -46 -107 -46c-1.77778 -8.44444 -2.66667 -16.6667 -2.66667 -24.6667c0 -16 3.55556 -31.1111 10.6667 -45.3333
c10.6667 -21.3333 32.3333 -32 65 -32c1.13043 -0.0144928 2.25347 -0.0217391 3.36909 -0.0217391c50.2032 0 85.4135 14.6739 105.631 44.0217z" />
    <glyph glyph-name="o.ss01" horiz-adv-x="312" 
d="M236 295c3.33333 14.6667 7.33333 24.3333 12 29c24 -28 41.6667 -61 53 -99c6.42222 -21.9111 9.63333 -44.4644 9.63333 -67.66c0 -17.7378 -1.87778 -35.8511 -5.63333 -54.34c-19.3333 -61.3333 -64.6667 -95.3333 -136 -102h-6c-33.3333 0 -59.3333 8.66667 -78 26
c-19.3333 18.6667 -31 41.6667 -35 69c-0.75 5.75 -1.125 11.5 -1.125 17.25c0 9.58333 1.04167 19.1667 3.125 28.75c2.66667 11.3333 7.33333 23 14 35c30 57.3333 69 86 117 86c7.33333 0 15.3333 -0.666667 24 -2c14.6667 -2.66667 26.3333 -16 35 -40
c0.666667 -0.666667 1 -1.33333 1 -2c-2.66667 0 -9.66667 1.33333 -21 4c-12 3.33333 -24.3333 5 -37 5s-24.3333 -2.16667 -35 -6.5s-19.6667 -10.5 -27 -18.5c-12.6667 -14 -22.3333 -30.3333 -29 -49c-1.33333 -4.66667 -2.66667 -9 -4 -13
c-1.51515 -6.36364 -2.27273 -12.6584 -2.27273 -18.8843c0 -7.47107 1.09091 -14.843 3.27273 -22.1157c5.33333 -17.3333 13 -31 23 -41s22.6667 -16.3333 38 -19c5.33333 -0.666667 10.6667 -1 16 -1c10 0 19.6667 1.33333 29 4c36.6667 10.6667 60 28.6667 70 54
c2.66667 6.66667 5 13.6667 7 21c2.37037 10.3704 3.55556 21.2675 3.55556 32.6914c0 14.2798 -1.85185 29.3827 -5.55556 45.3086c-9.33333 34.6667 -23 60.6667 -41 78c1.33333 4.66667 2.66667 11 4 19zM168 1v0zM305 103v0zM168 -0zM304 103z" />
    <glyph glyph-name="o.ss02" horiz-adv-x="284" 
d="M91 164c-1.33333 -4.66667 -2.66667 -9 -4 -13l-2 -6c-0.666667 -1.33333 -1 -2.66667 -1 -4c-2.46914 -10.6173 -3.7037 -20.6859 -3.7037 -30.2058c0 -16.1838 3.5679 -30.7819 10.7037 -43.7942c10.6667 -19.3333 25.6667 -29.6667 45 -31h2h3
c26.6667 0 50.6667 11.3333 72 34c22 23.3333 36.6667 47.3333 44 72c0.666667 1.33333 1 3 1 5c0 1.33333 0.333333 2.33333 1 3c2.08333 9.58333 3.125 19.4271 3.125 29.5313c0 6.0625 -0.375 12.2187 -1.125 18.4687c-4 22 -8.33333 33 -13 33
c0 0.666667 -0.333333 0.666667 -1 0l-1 -1c-0.666667 -0.666667 -1.33333 -1 -2 -1c-1.33333 -0.666667 -3 -2.66667 -5 -6c-11.3333 -13.3333 -18.6667 -21.3333 -22 -24c-2.66667 -2.66667 -6.66667 -4 -12 -4h-1.5h-1.5h-1c-3.33333 0 -4.66667 1.33333 -4 4
c0 0.666667 0.333333 1.66667 1 3l1 1c1.33333 2.66667 2.66667 5 4 7c12.6667 12 20.6667 23.3333 24 34v2c0 0.666667 0.333333 1 1 1c0.666667 2.66667 1 5.33333 1 8c0.666667 6 -5.66667 10 -19 12h-2h-1.5h-1.5c-11.3333 0 -25.3333 -6 -42 -18
c-36.6667 -26 -60.6667 -54.3333 -72 -85zM223 308c3.33333 10.6667 5.33333 16 6 16h1.5c0.333333 0 0.833333 -0.333333 1.5 -1c12 -0.666667 22.6667 -5.66667 32 -15c10.6667 -11.3333 20.3333 -28.3333 29 -51c4.74074 -15.4074 7.11111 -31.6049 7.11111 -48.5926
c0 -2.12346 -0.037037 -4.25926 -0.111111 -6.40741c0 -14 -2 -28.6667 -6 -44c-0.666667 -2 -1 -4 -1 -6c-0.666667 -2.66667 -1.66667 -6 -3 -10c-6 -21.3333 -14.6667 -40.3333 -26 -57c-36 -56.6667 -80.3333 -85 -133 -85h-5h-6c-1.33333 0 -3 0.333333 -5 1
c-21.3333 3.33333 -37.8333 12.5 -49.5 27.5c-11.6667 15 -18.5 35.8333 -20.5 62.5c-0.333333 4.33333 -0.5 8.64583 -0.5 12.9375c0 12.875 1.5 25.5625 4.5 38.0625c0.666667 1.33333 1 2.66667 1 4l2 6c8.66667 29.3333 25.3333 57.6667 50 85
c42 45.3333 82.3333 69 121 71z" />
    <glyph glyph-name="r.ss01" horiz-adv-x="217" 
d="M165 268c18.6667 10 37.3333 15 56 15c6 0 12 -0.5 18 -1.5s12 -2.5 18 -4.5c8 -2.66667 14 -5.66667 18 -9s5.66667 -6.66667 5 -10c-2 -6 -10 -9 -24 -9h-7h-8c-6 0 -11.8333 -0.333333 -17.5 -1s-11.3333 -1.5 -17 -2.5s-10.8333 -2.5 -15.5 -4.5
c-16.6667 -6 -30 -13.3333 -40 -22c-12.6667 -12 -22 -22.6667 -28 -32s-15.6667 -27.6667 -29 -55c-6 -14 -15 -38.3333 -27 -73l-18 -54c-4.66667 -2 -9.66667 -3 -15 -3c-4.66667 0 -10 0.666667 -16 2c-0.666667 0 -1 0.333333 -1 1c21.3333 61.3333 36.6667 106 46 134
c4 13.3333 6.66667 23.6667 8 31c6 27.3333 10.3333 56.3333 13 87v1c1.33333 1.33333 2.83333 2.66667 4.5 4s3.66667 2.5 6 3.5s4.83333 2.16667 7.5 3.5c1.33333 0.666667 2.66667 1.16667 4 1.5l4 1c1.33333 0.333333 2.5 0.5 3.5 0.5s2 -0.166667 3 -0.5
s1.83333 -0.833333 2.5 -1.5c-1.33333 -19.3333 -2.33333 -33 -3 -41c18 18 34.3333 31 49 39z" />
    <glyph glyph-name="t.ss01" horiz-adv-x="291" 
d="M100 103c10 41.3333 34 97 72 167c0.666667 0.666667 0.666667 1 0 1c-28.6667 -2 -52.6667 -7.66667 -72 -17c-2.66667 -1.33333 -5.66667 -3.66667 -9 -7c-4 -4 -8 -6 -12 -6c-9.33333 0 -12.6667 5.66667 -10 17c0 1.33333 0.333333 2.33333 1 3
c7.33333 24.6667 39.3333 41.3333 96 50c3.33333 0.666667 6.66667 1 10 1c2.66667 0.666667 5.33333 1 8 1h2h9h1c28 51.3333 52.6667 93.3333 74 126c0.666667 0.666667 0.666667 1 0 1h-1l-17 -15l-44 -41l6 9l21 30c19.3333 25.3333 31.3333 40.6667 36 46
c34.6667 39.3333 59.3333 59.3333 74 60c2.66667 0 4.66667 -1 6 -3c2 -2 2.66667 -4.33333 2 -7c0 -0.666667 -0.333333 -1.33333 -1 -2c-21.3333 -31.3333 -50 -78.3333 -86 -141c-12.6667 -22 -24.3333 -43.3333 -35 -64c-0.666667 -0.666667 -0.333333 -1 1 -1h3
c33.3333 0 62 -4.66667 86 -14c8 -3.33333 15.6667 -8 23 -14l1 -1c-4.66667 -0.666667 -16.3333 -1.33333 -35 -2c-14.6667 -0.666667 -28.6667 -1.33333 -42 -2l-58 -6h-1c-8.66667 -14 -18 -31 -28 -51c-15.3333 -31.3333 -26 -55.3333 -32 -72
c-5.33333 -15.3333 -9.66667 -29 -13 -41c-2.88889 -12.4444 -4.33333 -23.2222 -4.33333 -32.3333c0 -18.2222 5.77778 -29.7778 17.3333 -34.6667c3.33333 -1.33333 6.33333 -2 9 -2c14.6667 0 32.3333 11 53 33c18 20 33.3333 46.3333 46 79l1 2h1
c0.666667 0 0.666667 -0.333333 0 -1c0 -6 -0.666667 -12.6667 -2 -20c-3.33333 -14 -10 -30.6667 -20 -50c-17.3333 -30 -34 -50.6667 -50 -62c-17.1 -12.0333 -32.9967 -18.05 -47.69 -18.05c-0.773333 0 -1.54333 0.0166667 -2.31 0.05h-4h-7
c-16 2.66667 -26 15.6667 -30 39c-0.6 5.6 -0.9 11.38 -0.9 17.34c0 13.9067 1.63333 28.7933 4.9 44.66z" />
    <glyph glyph-name="m.ss01" horiz-adv-x="529" 
d="M96 272c4 5.33333 7.33333 7.66667 10 7c6.66667 0 9 -7.66667 7 -23c-2 -15.3333 -4 -24.6667 -6 -28c-22.5195 -72.4156 -33.7792 -122.604 -33.7792 -150.566c0 -14.2549 2.92641 -22.733 8.77922 -25.4343c1.14706 -0.552288 2.4728 -0.828431 3.97722 -0.828431
c22.1034 0 82.7777 59.6095 182.023 178.828c17.3333 21.3333 31.6667 32.6667 43 34h1c8 -2 8.33333 -8.66667 1 -20c-2 -3.33333 -8.33333 -13.6667 -19 -31c-15.3333 -25.3333 -28.6667 -62 -40 -110c-2 -9.33333 -3.66667 -18 -5 -26
c-0.666667 -4.66667 -1.16667 -8.83333 -1.5 -12.5c-0.333333 -3.66667 -0.333333 -7 0 -10s0.5 -5.5 0.5 -7.5c0.666667 -2.66667 2 -5 4 -7c1.33333 -1.33333 3.33333 -2 6 -2h1c27.3333 3.33333 109.333 74.3333 246 213l18 20c3.33333 3.33333 6 5.33333 8 6h1
c1.33333 0 2 -0.666667 2 -2c0.666667 -0.666667 1 -1.33333 1 -2c0.666667 -5.33333 0.333333 -11.6667 -1 -19c-0.666667 -5.33333 -1.33333 -11.6667 -2 -19c-1.33333 -8 -3 -17.3333 -5 -28s-4.33333 -22.6667 -7 -36
c-9.48148 -48.5926 -14.2222 -96.1317 -14.2222 -142.617c0 -5.8107 0.0740741 -11.6049 0.222222 -17.3827v-15l-2 -2h-1c-2.66667 2 -6 6 -10 12c-11.2941 18.3529 -16.9412 42.519 -16.9412 72.4983c0 12.4913 0.980392 25.9919 2.94118 40.5017l9 70
c0 0.666667 -0.333333 1.33333 -1 2h-0.5c-0.333333 0 -0.5 -0.333333 -0.5 -1c-10.6667 -10.6667 -25.6667 -25.3333 -45 -44c-19.3333 -18.6667 -35.3333 -34.3333 -48 -47c-68.6667 -66.6667 -118 -100 -148 -100c-6.66667 0 -12.6667 1.66667 -18 5
c-12.8762 9.90476 -19.3143 25.8797 -19.3143 47.9249c0 7.63102 0.771429 15.9894 2.31429 25.0751l5 35v2h-1l-1 -1l-47 -46c-41.3333 -40 -74.3333 -60.3333 -99 -61c-22.0417 0 -33.0625 15.498 -33.0625 46.4941c0 12.1289 1.6875 26.6309 5.0625 43.5059
c2.66667 12.6667 5.33333 24.6667 8 36c16.6667 72.6667 33 119.333 49 140zM259 36z" />
    <glyph glyph-name="d.ss01" horiz-adv-x="338" 
d="M288 332c24 60.6667 50.6667 118.833 80 174.5c29.3333 55.6667 57 100.167 83 133.5c24 30.6667 42.6667 46.3333 56 47c1.33333 0 2.66667 -0.333333 4 -1c3.28205 -2.87179 4.92308 -7.88955 4.92308 -15.0533c0 -4.47732 -0.641026 -9.7929 -1.92308 -15.9467
c-3.33333 -14.6667 -10.6667 -34 -22 -58c-23.3333 -50.6667 -50.6667 -102.833 -82 -156.5s-62 -107.5 -92 -161.5c-28.6667 -52 -45 -86.3333 -49 -103c0 -0.666667 -0.333333 -1.33333 -1 -2c-3.33333 -17.3333 -5 -30.6667 -5 -40c0 -9.33333 2.66667 -19.8333 8 -31.5
c5.33333 -11.6667 15 -21.8333 29 -30.5c4 -2.66667 5.83333 -4.83333 5.5 -6.5c-0.333333 -1.66667 -3.16667 -3.16667 -8.5 -4.5c-3.33333 -0.666667 -6.66667 -1 -10 -1c-10 0 -20 3.33333 -30 10c-14 9.33333 -21.6667 31.3333 -23 66l-25 -31
c-18 -22.6667 -32.3333 -39 -43 -49c-12.6667 -12 -23.3333 -21.5 -32 -28.5c-8.66667 -7 -20 -13.5 -34 -19.5c-9.33333 -4 -18 -6.33333 -26 -7c-4 0 -7.66667 0.666667 -11 2c-16.6667 8.09524 -25 25.3741 -25 51.8367c0 10.585 1.33333 22.6395 4 36.1633
c0.666667 3.33333 1.33333 6.33333 2 9c6 26.6667 15 50 27 70c17.3333 29.3333 38.3333 54.3333 63 75c24.6667 20.6667 50.3333 32.3333 77 35c18.6667 -0.666667 35 -11.3333 49 -32c6.66667 23.3333 16 51.3333 28 84zM489 649c-26.6667 -30.6667 -56 -75.3333 -88 -134
c-32 -58.6667 -57.3333 -109.667 -76 -153c-14.6667 -34 -22.6667 -55 -24 -63c-0.666667 -2 -0.666667 -3.33333 0 -4c118.667 205.333 181 322 187 350c0.666667 1.33333 1 2.66667 1 4zM232 200c0.166667 1.75 0.25 3.46354 0.25 5.14062
c0 11.7396 -4.08333 21.6927 -12.25 29.8594c-6 6.66667 -12 9.66667 -18 9c-6 0 -11 -0.666667 -15 -2c-10.6667 -4 -23.1667 -12.5 -37.5 -25.5s-26.1667 -26.1667 -35.5 -39.5c-16.6667 -22.6667 -28.6667 -49.6667 -36 -81c0 -0.666667 -0.333333 -1.33333 -1 -2
c-3.21905 -13.619 -4.82857 -24.7548 -4.82857 -33.4073c0 -14.6427 4.60952 -22.1736 13.8286 -22.5927c6 0 14.3333 3.66667 25 11c30.6667 20.6667 62.3333 54.6667 95 102l19 33c4 8 6.33333 13.3333 7 16z" />
    <glyph glyph-name="z.ss01" horiz-adv-x="384" 
d="M301 307c19.3333 6 34.6667 10.6667 46 14s19 5 23 5h1c4 0 7 -1 9 -3s3 -5.66667 3 -11c0 -1.33333 -0.333333 -2.66667 -1 -4c-2 -8 -7.66667 -17.6667 -17 -29c-60 -67.3333 -127 -128.333 -201 -183c14 -5.33333 41.6667 -16.6667 83 -34
c41.3333 -17.3333 73.6667 -31.3333 97 -42c13.3333 -6 20.3333 -9.33333 21 -10c1.33333 -1.33333 2 -2.33333 2 -3c0 -1.33333 -2.33333 -2 -7 -2h-7c-3.33333 0 -6 -0.333333 -8 -1c-14 -2 -25.3333 -3 -34 -3c-6 0 -10.6667 0.666667 -14 2
c-12 3.33333 -27.5 9 -46.5 17s-32.1667 13 -39.5 15c-44 15.3333 -73.6667 25 -89 29c-8 -5.33333 -18.1667 -13 -30.5 -23c-12.3333 -10 -21.5 -17.3333 -27.5 -22c-8.66667 -1.33333 -14 -2.33333 -16 -3h-2c-2.66667 0 -6.33333 0.666667 -11 2l-10 3
c-1.33333 1.33333 -2 2.66667 -2 4c0 0.666667 0.333333 1.33333 1 2c18 15.3333 50.3333 40.6667 97 76c96 73.3333 159.333 129 190 167c-10 -2 -35.3333 -9 -76 -21c-37.1481 -10.7037 -66.2685 -16.0556 -87.3611 -16.0556
c-1.24074 0 -2.4537 0.0185185 -3.63889 0.0555556h-6c-8.66667 0.666667 -14.3333 1.66667 -17 3c-7.51111 6.93333 -11.2667 17.1215 -11.2667 30.5644c0 2.06815 0.0888889 4.21333 0.266667 6.43556v2c0.666667 2.66667 1.33333 4.33333 2 5
c9.33333 -5.33333 18.6667 -9 28 -11c2 -0.666667 4.66667 -1 8 -1c8 0 20.6667 1 38 3c19.3333 3.33333 57.6667 15.3333 115 36z" />
    <glyph glyph-name="i.ss01" horiz-adv-x="114" 
d="M113 251c3.50725 0 5.26087 -4.04096 5.26087 -12.1229c0 -8.81664 -2.08696 -22.4423 -6.26087 -40.8771c-2.66667 -12 -6.33333 -26.3333 -11 -43c-4 -12.6667 -7.33333 -24.6667 -10 -36c-5.35714 -23.5714 -8.03571 -42.551 -8.03571 -56.9388
c0 -12.4694 2.0119 -21.4898 6.03571 -27.0612c2 -2 2.66667 -5 2 -9c-0.666667 -3.33333 -2.66667 -7.33333 -6 -12c-6 -8.66667 -11.6667 -13.3333 -17 -14h-1c-6 0.666667 -12.3333 10 -19 28c-2.66667 9.33333 -4 19.4167 -4 30.25c0 10.8333 1.33333 22.4167 4 34.75
c0.666667 2 1 3.66667 1 5c2.66667 10 6.33333 23 11 39c4.66667 15.3333 9.33333 33 14 53v1c4.66667 20.6667 11.6667 36 21 46c8.66667 9.33333 14.6667 14 18 14zM48 28v0zM104 359c2 0.666667 6.66667 1 14 1s16.5 -5.16667 27.5 -15.5
c9.30769 -8.74359 13.9615 -16.8905 13.9615 -24.4408c0 -7.51505 -3.60095 -9.48544 -13.4615 -16.0592c-8 -4.66667 -13 -7 -15 -7c-2.66667 0 -11 8 -25 24c-0.666667 3.33333 -1.5 7.83333 -2.5 13.5s-1.66667 9.66667 -2 12s-0.166667 4.83333 0.5 7.5v1
c0 2 0.666667 3.33333 2 4z" />
    <glyph glyph-name="i.ss02" horiz-adv-x="108" 
d="M115 286c2.04167 0 3.0625 -2.48828 3.0625 -7.46484c0 -6.39844 -1.6875 -16.9102 -5.0625 -31.5352c-2 -10 -5 -21.6667 -9 -35c-2.66667 -10.6667 -5.33333 -20.6667 -8 -30c-7.84314 -33.7255 -11.7647 -63.8754 -11.7647 -90.4498
c0 -18.6021 1.92157 -35.4521 5.76471 -50.5502c3.33333 -14 4.33333 -23.3333 3 -28c-1.33333 -4.66667 -5.66667 -8.33333 -13 -11c-4 -1.33333 -8 -2 -12 -2c-3.33333 0 -7 0.666667 -11 2c-7.33333 2.66667 -11.8333 15 -13.5 37
c-0.490196 6.47059 -0.735294 13.1719 -0.735294 20.1038c0 16.6367 1.41176 34.6021 4.23529 53.8962c2 18.6667 5 37.3333 9 56c2 9.33333 4.66667 19 8 29c8 28 17.5 49.6667 28.5 65c11 15.3333 18.5 23 22.5 23zM111 367c-0.666667 4 -0.666667 7.33333 0 10
c0.666667 4 2.66667 8 6 12s8.66667 6 16 6c4 0 8.66667 -0.666667 14 -2s8 -5.66667 8 -13c0 -6 -2 -17 -6 -33c-0.666667 -2.66667 -1.33333 -5.66667 -2 -9c-7.33333 -11.3333 -13.3333 -17.3333 -18 -18c-4.66667 0 -8.66667 5.33333 -12 16z" />
    <glyph glyph-name="l.ss01" horiz-adv-x="296" 
d="M182 408l95 169c11.333 20.667 17 31.333 17 32c0.666992 1.33301 1.33301 2.33301 2 3l2 2c1.33301 1.33301 2.66699 2.33301 4 3l4 2c10.667 3.33301 18.333 1 23 -7c0.666992 -0.666992 1 -1.33301 1 -2v-5v-2l-16 -25c-7.33301 -12 -15.333 -25.333 -24 -40
s-17.833 -30.667 -27.5 -48s-19.833 -36 -30.5 -56c-79.333 -148.667 -126.667 -256.333 -142 -323c-3.55566 -15.4072 -5.33301 -28.3125 -5.33301 -38.7158c0 -13.0039 2.77734 -22.0986 8.33301 -27.2842c6.66699 -7.33301 15.667 -9 27 -5c28 10 59.667 25 95 45l7 4
c3.33301 1.33301 5.83301 2.5 7.5 3.5s2.83301 1.5 3.5 1.5c5.33301 0 7.33301 -3.33301 6 -10c0 -0.666992 -0.166992 -1.16699 -0.5 -1.5s-0.5 -0.833008 -0.5 -1.5c-0.666992 -1.33301 -1.33301 -2.33301 -2 -3s-1.16699 -1.5 -1.5 -2.5s-0.833008 -1.83301 -1.5 -2.5
s-1.33301 -1.66699 -2 -3c-1.33301 -2 -4.5 -4.66699 -9.5 -8l-19.5 -13c-4 -2.66699 -8.5 -5.33301 -13.5 -8s-10.5 -6 -16.5 -10c-18 -10 -33.333 -17.333 -46 -22c-13.5 -5.40039 -25.4473 -8.09961 -35.8428 -8.09961c-12.7051 0 -23.0908 4.0332 -31.1572 12.0996
c-7.33301 7.33301 -11.333 19 -12 35c-0.0742188 1.77734 -0.111328 3.60449 -0.111328 5.48145c0 15.0127 2.37012 33.1855 7.11133 54.5186c12.667 46 32.333 98.667 59 158s49.667 106.667 69 142zM330 603v0z" />
    <glyph glyph-name="n.ss01" horiz-adv-x="363" 
d="M120 242c-34.3496 -82.9675 -51.5244 -139.963 -51.5244 -170.988c0 -8.11402 1.1748 -14.4515 3.52439 -19.0125c3.13725 -5.88235 8.3218 -8.82353 15.5536 -8.82353c17.3564 0 46.5052 16.9412 87.4464 50.8235c48 40 82.6667 73 104 99
c32.6667 40 49.3333 59.6667 50 59l30 19h1h2c6 0.666667 7 -8.33333 3 -27c-8.66667 -48 -14.6667 -88.3333 -18 -121c-1.6875 -17.25 -2.53125 -32.2852 -2.53125 -45.1055c0 -32.763 5.51042 -51.0612 16.5312 -54.8945l20 -7
c-0.666667 -3.33333 -3.33333 -5.66667 -8 -7c-11.1746 -3.84127 -20.8859 -5.7619 -29.1338 -5.7619c-7.49811 0 -13.7868 1.5873 -18.8662 4.7619c-11.3208 7.54717 -16.9811 29.6191 -16.9811 66.2157c0 28.0574 3.32704 64.6522 9.98113 109.784
c-36 -37.3333 -65.3333 -66.6667 -88 -88c-71.3333 -63.3333 -126.333 -95 -165 -95c-13.3333 0 -23.3333 7.33333 -30 22c-4 8.66667 -6 19.6667 -6 33c0 13.3333 2 29 6 47c22 84.6667 46 145.333 72 182c17.6544 10.1853 27.1664 15.0645 30.4194 15.0645
c0.774194 0 1.16129 -0.774194 1.16129 -2.32258c0 -6.19355 -6.19355 -24.7742 -18.5806 -55.7419z" />
    <glyph glyph-name="n.ss02" horiz-adv-x="363" 
d="M120 242c-34.3496 -82.9675 -51.5244 -139.963 -51.5244 -170.988c0 -8.11402 1.1748 -14.4515 3.52439 -19.0125c3.13725 -5.88235 8.3218 -8.82353 15.5536 -8.82353c17.3564 0 46.5052 16.9412 87.4464 50.8235c48 40 82.6667 73 104 99
c32.6667 40 49.3333 59.6667 50 59l30 19h1h2c6 0.666667 7 -8.33333 3 -27c-8.66667 -48 -14.6667 -88.3333 -18 -121c-1.6875 -17.25 -2.53125 -32.2852 -2.53125 -45.1055c0 -32.763 5.51042 -51.0612 16.5312 -54.8945l20 -7
c-0.666667 -3.33333 -3.33333 -5.66667 -8 -7c-11.1746 -3.84127 -20.8859 -5.7619 -29.1338 -5.7619c-7.49811 0 -13.7868 1.5873 -18.8662 4.7619c-11.3208 7.54717 -16.9811 29.6191 -16.9811 66.2157c0 28.0574 3.32704 64.6522 9.98113 109.784
c-36 -37.3333 -65.3333 -66.6667 -88 -88c-71.3333 -63.3333 -126.333 -95 -165 -95c-13.3333 0 -23.3333 7.33333 -30 22c-4 8.66667 -6 19.6667 -6 33c0 13.3333 2 29 6 47c22 84.6667 46 145.333 72 182c17.6544 10.1853 27.1664 15.0645 30.4194 15.0645
c0.774194 0 1.16129 -0.774194 1.16129 -2.32258c0 -6.19355 -6.19355 -24.7742 -18.5806 -55.7419z" />
    <glyph glyph-name="glyph87" unicode="-" horiz-adv-x="233" 
d="M120 243c18 3.33333 39 6 63 8c6.66667 0.666667 15.6667 1 27 1c14.6667 0.666667 24.5 -2 29.5 -8s3.83333 -12 -3.5 -18s-18.3333 -9.33333 -33 -10c-11.3333 0 -20 -0.333333 -26 -1c-23.3333 -1.33333 -42.6667 -3.66667 -58 -7
c-6.66667 -1.44928 -12.4512 -2.17391 -17.3535 -2.17391c-6.37303 0 -11.2552 1.22464 -14.6465 3.67391c-6 4.33333 -5.83333 10.1667 0.5 17.5s17.1667 12.6667 32.5 16z" />
    <glyph glyph-name="Uacute" unicode="&#xda;" horiz-adv-x="489" 
 />
    <glyph glyph-name="udieresis" unicode="&#xfc;" horiz-adv-x="384" 
d="M153.132 341.698c0 15.1983 33.2258 22.7974 99.6775 22.7974c6.44798 0 13.2088 -0.0715485 20.2824 -0.214645c27.6149 -1.48937 44.6801 -3.3957 51.1957 -5.71901c6.51563 -2.32331 11.2105 -5.04323 14.0847 -8.15978
c5.77251 -6.25937 5.25459 -11.9753 -1.55378 -17.1478c-6.80837 -5.17253 -14.6951 -7.36277 -23.6602 -6.57074c-8.96508 0.792035 -14.4507 1.27056 -16.457 1.43558c-2.00624 0.165022 -4.01649 0.323405 -6.03075 0.47515
c-2.01426 0.151745 -4.03253 0.296879 -6.05482 0.435401c-12.1361 0.831297 -24.0517 1.24695 -35.7467 1.24695c-19.0545 0 -37.5234 -1.10337 -55.4068 -3.3101c-2.10411 -0.0662586 -4.11547 -0.0993879 -6.03407 -0.0993879
c-12.9628 0 -21.6914 1.51231 -26.1858 4.53694c-5.48928 3.69418 -8.11048 6.54961 -8.11048 10.2941zM193.431 327.966zM193.509 326.967zM300 282c4.66699 10 10.667 14.667 18 14l6 -1c8.66699 -0.666992 11 -6 7 -16c-1.33301 -6 -3 -11.333 -5 -16
c-0.666992 -1.33301 -1.33301 -3 -2 -5l-2 -4c-0.666992 -2 -1 -3.66699 -1 -5l-2 -4c-13.333 -39.333 -19.667 -60.333 -19 -63c0 -0.666992 -0.333008 -1 -1 -1c-4 -19.333 -6.33301 -37 -7 -53c-0.295898 -6.37012 -0.444336 -12.5107 -0.444336 -18.4199
c0 -20.6826 1.81445 -38.543 5.44434 -53.5801c4.66699 -19.333 11.667 -37 21 -53c-10.667 2 -20 4.33301 -28 7c-19.333 6.66699 -31 47 -35 121c-59.333 -68 -116.667 -110 -172 -126c-8.66699 -2.66699 -16.333 -4 -23 -4c-12.667 0 -20.333 5 -23 15
c-1.96387 9.70898 -2.94531 20.3281 -2.94531 31.8584c0 58.9307 25.6484 141.645 76.9453 248.142c0.666992 1.33301 5 4.33301 13 9h1h1c2 0 4 -0.666992 6 -2c3.33301 -1.33301 6.66699 -6.66699 10 -16v-1c0 -0.666992 -0.333008 -1.33301 -1 -2
c-0.666992 -1.33301 -1 -3 -1 -5c-12 -26 -23 -52.333 -33 -79c-16 -44.667 -25.667 -76.333 -29 -95c-3.62988 -15.5557 -5.44434 -28.6914 -5.44434 -39.4072c0 -3.06152 0.148438 -5.92578 0.444336 -8.59277c0.666992 -6.66699 4.66699 -10 12 -10
c6.66699 0 15.667 2.66699 27 8c20.667 10.667 38.5 21.667 53.5 33s29.833 25.667 44.5 43c14.667 16.667 29 37 43 61c15.333 26.667 26 46 32 58z" />
    <glyph glyph-name="Adieresis" unicode="&#xc4;" horiz-adv-x="508" 
d="M430.641 726.623c-0.405599 2.32161 -0.320312 4.41178 0.255859 6.27051c0.575521 1.85872 1.64225 3.46191 3.2002 4.80957c3.01367 2.60677 8.39388 5.79525 16.1406 9.56543c7.75846 3.77604 34.069 8.30436 78.9316 13.585
c44.8158 5.27474 87.875 9.11458 129.178 11.5195c2.18229 0.119141 4.25391 0.141927 6.21484 0.0683594c1.96029 -0.0735677 3.8125 -0.246745 5.55664 -0.519531s3.37598 -0.644206 4.89551 -1.11426c1.52018 -0.469401 2.93066 -1.04069 4.23145 -1.71387
c1.30078 -0.672526 2.48861 -1.44564 3.56348 -2.31934c4.43685 -3.64974 6.06738 -7.11589 4.8916 -10.3984c-1.17643 -3.2832 -5.06966 -6.29557 -11.6797 -9.03711c-4.20703 -1.74544 -11.3721 -2.8877 -21.4951 -3.42676
c-10.1003 -0.537109 -19.8711 -1.11393 -29.3125 -1.73047c-9.44206 -0.616536 -18.5518 -1.27246 -27.3291 -1.96777c-8.77734 -0.695312 -17.2249 -1.43001 -25.3428 -2.2041s-15.9036 -1.58724 -23.3574 -2.43945
c-7.45378 -0.852865 -14.5771 -1.74479 -21.3701 -2.67578c-6.79297 -0.93099 -13.2539 -1.90104 -19.3828 -2.91016c-6.12956 -1.00977 -11.9277 -2.05827 -17.3945 -3.14551c-5.46745 -1.08789 -10.6029 -2.21452 -15.4062 -3.37988
c-4.80339 -1.16602 -9.27539 -2.37077 -13.416 -3.61426c-6.95487 -2.13991 -12.7711 -3.20986 -17.4487 -3.20986c-8.25131 0 -12.9595 3.32939 -14.1245 9.98818zM165 193v12l5 8l1 1c48 3.33301 90 9.33301 126 18c22 22.667 33.667 36 35 40
c10.667 27.333 20.333 54 29 80c44 132.667 95.333 233 154 301c26.667 30 47.5 45 62.5 45c10.0742 0 15.1123 -7.51855 15.1123 -22.5547c0 -7.35156 -1.2041 -16.5 -3.6123 -27.4453c-8 -32 -17.667 -59.667 -29 -83c-28.667 -58.667 -53.333 -103 -74 -133
c-34.667 -51.333 -74.333 -107 -119 -167c-2.66699 -8 -4.66699 -15.333 -6 -22c12.667 2 30 5.33301 52 10l62 13c17.333 3.33301 26.667 5 28 5c26.0166 -1.95117 39.0244 -5.48926 39.0244 -10.6123c0 -4.21973 -69.4453 -21.8896 -192.024 -51.3877
c-7.33301 -26 -14.333 -54 -21 -84s-12.667 -57.667 -18 -83s-9.33301 -38.667 -12 -40l-15 -2c-5.33301 0 -8 1.66699 -8 5c0.666992 6.66699 2 16.333 4 29s3.66699 22.667 5 30c1.64062 12.3076 2.46191 23.7314 2.46191 34.2725
c0 6.58789 -0.321289 12.8301 -0.961914 18.7275c-1.66699 15.333 -9.5 28 -23.5 38c-45.333 -44 -74.333 -71.333 -87 -82c-76 -62 -133.667 -93 -173 -93c-14 0 -26.333 7.33301 -37 22c0 1.33301 0.333008 2.33301 1 3c2.66699 0.666992 4.66699 1.33301 6 2l15 -1
c54 0 129.333 48 226 144l23 23c-18.9473 11.3682 -40.2881 17.0527 -64.0225 17.0527c-1.31836 0 -2.64453 -0.0175781 -3.97754 -0.0527344c-3.33301 0 -4.66699 1 -4 3zM387 337c7.33301 10 18.333 25.667 33 47s30 43.667 46 67s35.5 57.667 58.5 103
s36.167 75.333 39.5 90c4 16 3.66699 24 -1 24c-5.33301 0 -12 -5 -20 -15c-40.667 -51.333 -73 -105.333 -97 -162c-26.667 -63.333 -46.333 -114.667 -59 -154zM261 195l7 6l-11 -1c-3.33301 0 -6 -0.333008 -8 -1c4.66699 -1.33301 8.66699 -2.66699 12 -4zM317 203
l-7 -1l-24 -24c8 -8 14 -16 18 -24c1.33301 6 3.33301 13 6 21c3.33301 12.667 5.66699 22 7 28z" />
    <glyph glyph-name="adieresis" unicode="&#xe4;" horiz-adv-x="333" 
d="M204.721 344.247c-16.7957 1.86656 -28.3827 6.14579 -34.7609 12.8377c-5.64216 6.03995 -5.10264 11.5012 1.61854 16.3836c5.56684 4.2864 13.8278 6.42959 24.7828 6.42959c3.64842 0 7.59564 -0.237709 11.8417 -0.713128
c10.3649 -1.3276 24.4057 -1.99141 42.1224 -1.99141c10.5924 0 22.4988 0.237281 35.7192 0.711844c1.91823 0.0621677 3.99531 0.23192 6.23126 0.509257c2.4361 0.391741 4.61112 0.568252 6.52505 0.529533c1.02253 0.0180979 2.06022 0.0698063 3.11306 0.155125
s2.0998 0.202863 3.14089 0.352634c1.91106 0.365968 4.11801 0.544635 6.62085 0.536c2.16151 0.0082646 4.2742 0.17851 6.33806 0.510735l0.0752593 0.00920335c3.91967 0.329102 7.7317 0.45437 11.4361 0.375804l9.86731 -0.893293l8.05566 -2.17986
l0.0911447 -0.0383539c1.32817 -0.637933 2.51562 -1.24824 3.56238 -1.83093c1.04675 -0.582685 1.97661 -1.15257 2.78958 -1.70966c6.40015 -4.7262 6.83985 -10.0798 1.3191 -16.0609c-3.79875 -4.05732 -15.2074 -8.03047 -34.226 -11.9195
c-16.226 -3.79142 -35.3598 -5.68713 -57.4012 -5.68713c-17.7377 0 -37.3584 1.22768 -58.8622 3.68305zM288 206c0 -1.33301 -0.666992 -2 -2 -2h-1c0 6.66699 -4.66699 22 -14 46c-6.66699 17.333 -19.667 26 -39 26c-5.33301 0 -11 -0.666992 -17 -2
c-14 -2.66699 -29 -9 -45 -19c-2.66699 -1.33301 -5.33301 -2.83301 -8 -4.5s-5 -3.5 -7 -5.5c-13.333 -10.667 -24 -21.333 -32 -32c-15.333 -20 -26.333 -41.333 -33 -64c-1.33301 -4.66699 -2.33301 -9 -3 -13c-3.22656 -13.7871 -4.83984 -26.2822 -4.83984 -37.4883
c0 -14.2607 2.61328 -26.4316 7.83984 -36.5117c1.33301 -3.33301 4.33301 -7.33301 9 -12c6.66699 -6.66699 14.333 -10.333 23 -11c4.66699 0 9.33301 1 14 3c24.667 8.66699 49.667 27.667 75 57c24.667 29.333 40.333 56.333 47 81
c1.33301 5.33301 4.66699 9.66699 10 13c5.33301 2.66699 10.333 4 15 4c5.33301 0 9.33301 -1 12 -3c0.666992 -0.666992 1 -1.16699 1 -1.5v-0.5v-1c-5.33301 -12 -9.66699 -22.667 -13 -32c-0.666992 -2.66699 -1.66699 -4.66699 -3 -6c-6.66699 -16.667 -11 -30 -13 -40
l-2 -4v-3c-2.38086 -11.9043 -3.57129 -21.4287 -3.57129 -28.5713c0 -2.85742 0.19043 -5.33301 0.571289 -7.42871c0.666992 -2.66699 1 -5.66699 1 -9c0.666992 -2.66699 1 -5.33301 1 -8c0.666992 -2 1.33301 -4.33301 2 -7c4 -12.667 7.33301 -23 10 -31
s4 -13.667 4 -17v-1v-3c-0.666992 -2.66699 -2.33301 -4.66699 -5 -6c-1.33301 -0.666992 -2.66699 -1.16699 -4 -1.5s-3 0.166992 -5 1.5c-4 2 -9 5.33301 -15 10c-6.66699 5.33301 -12 19.333 -16 42s-6.66699 34 -8 34c-18 -16.667 -27.333 -25.333 -28 -26
c-29.333 -29.333 -58.667 -44.333 -88 -45c-41.333 2 -63.333 26 -66 72c-0.0830078 2.5 -0.125 4.99512 -0.125 7.48438c0 17.4268 2.04199 34.5986 6.125 51.5156c4.66699 21.333 12.667 42.333 24 63c9.33301 16 19.333 29.667 30 41c38 41.333 80.333 63 127 65h3h5
c4 -0.666992 8.33301 -1.33301 13 -2c4 -1.33301 7.66699 -3 11 -5c19.7529 -10.3701 29.6299 -28.0566 29.6299 -53.0586c0 -8.75098 -1.20996 -18.3984 -3.62988 -28.9414z" />
    <glyph glyph-name="Odieresis" unicode="&#xd6;" horiz-adv-x="437" 
d="M548.85 770.059c0.26237 -5.23112 -2.5625 -9.91178 -8.47461 -14.042c-5.81836 -4.0638 -22.1081 -8.75065 -48.8691 -14.0605c-26.6712 -5.29232 -51.3691 -12.0303 -74.0938 -20.2139c-18.4484 -6.64306 -31.8551 -9.96458 -40.2199 -9.96458
c-1.99556 0 -3.70417 0.189041 -5.12584 0.567123c-7.66797 2.03906 -9.52246 7.23926 -5.56348 15.6006c1.92383 4.06315 4.70768 7.62337 8.35156 10.6807c3.64388 3.05729 8.13672 5.61035 13.4785 7.65918c10.6009 4.0651 30.3522 9.94792 59.2539 17.6484
c15.5221 4.13607 28.7399 7.57292 39.6533 10.3105c10.9134 2.73828 19.6286 4.80143 26.1455 6.18945c6.51758 1.38867 10.8008 2.09049 12.8496 2.10547c14.7878 0.721354 22.3258 -3.4388 22.6143 -12.4805zM402.012 718.604zM399 673c51.333 0 84.667 -22 100 -66
c3.62988 -10.3701 5.44434 -21.749 5.44434 -34.1357c0 -3.53906 -0.148438 -7.16016 -0.444336 -10.8643c-8 -76.667 -34.667 -163.667 -80 -261c-30 -63.333 -66.667 -122.333 -110 -177c-28 -35.333 -53 -61.667 -75 -79c-37.333 -29.333 -67.333 -44 -90 -44
c-21.333 0 -39.333 8 -54 24c-16.9316 20.3174 -25.3965 52.5947 -25.3965 96.8301c0 25.4365 2.79883 54.8262 8.39648 88.1699c1.33301 8.66699 3 17.333 5 26c20.667 90.667 74.333 185.667 161 285c32.667 36.667 63.333 62.333 92 77c12.667 8 23.167 12 31.5 12
s14.5 -1 18.5 -3c7.33301 -4.66699 12.667 -12 16 -22c1.33301 -3.33301 1 -7.33301 -1 -12c-2 -10 -8.33301 -23.333 -19 -40c-15.333 -23.333 -25.333 -35 -30 -35c-0.666992 0.666992 -0.5 3 0.5 7s2.83301 10 5.5 18c6 14.667 10 25.667 12 33v3
c0.666992 6.66699 -3.33301 10 -12 10h-4c-11.333 -0.666992 -27.833 -10.333 -49.5 -29s-40.833 -39 -57.5 -61c-66.667 -86 -108.333 -165 -125 -237c-8 -36 -12.5 -64.5 -13.5 -85.5c-0.142578 -3 -0.213867 -6.00977 -0.213867 -9.03027
c0 -18.123 2.57129 -36.6123 7.71387 -55.4697c8 -28.667 19.667 -44.667 35 -48c1.9375 -0.387695 3.98438 -0.581055 6.13867 -0.581055c16.373 0 38.9932 11.1934 67.8613 33.5811c39.333 30 80 78.667 122 146c32.667 52 62.333 120 89 204c10.667 34 19 62.667 25 86
l3 14c2.17773 10.8887 3.2666 21.0518 3.2666 30.4893c0 31.0068 -11.7559 54.1777 -35.2666 69.5107c-11.333 8 -27.5 12 -48.5 12s-35.5 -2.5 -43.5 -7.5s-14.167 -9.66699 -18.5 -14s-7.5 -8.5 -9.5 -12.5c-9.33301 -14.667 -16 -24 -20 -28
c0 1.33301 0.333008 3.66699 1 7c1.33301 4.66699 4 11.667 8 21l12 28c4.66699 11.333 15.333 20.667 32 28c16 8 34 12 54 12zM312 605v0zM386 607v0z" />
    <glyph glyph-name="odieresis" unicode="&#xf6;" horiz-adv-x="312" 
d="M142.896 368.284c23.8421 16.8601 47.4409 25.2902 70.7962 25.2902c2.06045 0 4.119 -0.065612 6.17567 -0.196836c23.3407 -0.930035 39.6893 -1.87909 49.0458 -2.84717c11.6985 -0.623321 20.4746 -4.25017 26.3282 -10.8806
c6.06949 -5.98023 5.39061 -11.1919 -2.03664 -15.6351c-5.29353 -3.88789 -14.6974 -5.12118 -28.2117 -3.69988c-17.0772 1.93421 -29.4563 2.90131 -37.1373 2.90131c-2.17748 0 -3.97739 -0.0777237 -5.39972 -0.233171
c-14.4339 -1.73959 -26.6109 -4.16017 -36.531 -7.26176c-9.92016 -3.10159 -17.5334 -6.84542 -22.8399 -11.2315c-9.97654 -8.71295 -18.8379 -12.825 -26.5841 -12.3361c-3.88459 0.286875 -6.69363 1.44642 -8.42711 3.47865
c-1.73348 2.03222 -2.27003 4.83913 -1.60964 8.42072c0.694889 3.11683 1.77057 6.09491 3.22703 8.93424c1.45646 2.83933 3.28428 5.53129 5.48346 8.07588c2.19918 2.54459 4.7727 4.95161 7.72055 7.22108zM96 163c-1.33301 -4.66699 -2.66699 -8.66699 -4 -12
c-0.666992 -2 -1.33301 -4.33301 -2 -7c-2.66699 -12 -4 -23.3066 -4 -33.9199c0 -15.9199 3 -30.2803 9 -43.0801c9.33301 -18.667 22.667 -28.333 40 -29h2h2c23.333 0.666992 44.333 13 63 37c19.333 23.333 32.333 47.333 39 72c0.666992 1.33301 1 3 1 5
c3.53125 25.4775 5.29688 45.2285 5.29688 59.252c0 17.1709 -2.64648 25.7568 -7.94141 25.7568c-1.80957 0 -3.92773 -1.00293 -6.35547 -3.00879l-1 -1c-1.33301 -1.33301 -3 -3.33301 -5 -6c-10 -14 -16.667 -22.333 -20 -25c-2.66699 -3.33301 -7 -5 -13 -5h-1h-1
c-3.33301 0 -4.66699 1.66699 -4 5v1c0 0.666992 0.333008 1.33301 1 2l1 1c1.33301 2.66699 2.66699 5 4 7c10.667 12 17.667 23.667 21 35v1c0.666992 2.66699 1 5.66699 1 9c0.666992 6 -4.66699 9.66699 -16 11h-2h-1c-10 0 -22.667 -6.33301 -38 -19
c-32 -27.333 -53 -56.333 -63 -87zM212 312h3h3c10.667 -0.666992 20 -5.33301 28 -14c10 -10 18.667 -25.667 26 -47c4.66699 -16.667 7 -34 7 -52c0 -15.333 -2 -31.333 -6 -48c-0.666992 -2.66699 -1.33301 -5.66699 -2 -9v-1c-5.33301 -20 -13 -38.333 -23 -55
c-32.667 -56.667 -73.667 -85 -123 -85h-5h-5c-38.667 4.66699 -59.333 34 -62 88c-0.295898 4.14844 -0.444336 8.2959 -0.444336 12.4443c0 14.5186 1.81445 29.0371 5.44434 43.5557c0.666992 2 1 4 1 6c8 30 23 58.667 45 86c37.333 46.667 73.333 71.667 108 75z" />
    <glyph glyph-name="zero" unicode="0" horiz-adv-x="392" 
d="M323 667h2c2.66667 -2 3.66667 -5.66667 3 -11s-2 -10 -4 -14c-2 -4.66667 -5.33333 -10.3333 -10 -17c-4 -7.33333 -6.66667 -11.3333 -8 -12c-2 -4 -4.33333 -8.33333 -7 -13s-5.66667 -9.66667 -9 -15s-6 -9.66667 -8 -13c-1.33333 -2 -1 -3.33333 1 -4
c1.33333 -0.666667 2.66667 -0.333333 4 1c4 5.33333 7 9.66667 9 13c13.3333 18.6667 27 33.3333 41 44c15.3333 12 31.6667 21 49 27c18.2963 6.25926 33.9846 9.38889 47.0648 9.38889c5.03086 0 9.67593 -0.462963 13.9352 -1.38889c4.66667 -0.666667 9 -2 13 -4
c12 -7.33333 19.3333 -18 22 -32c2.66667 -12.4444 4 -25.9259 4 -40.4444c0 -7.25926 -0.333333 -14.7778 -1 -22.5556c-2 -19.3333 -7.33333 -46.6667 -16 -82c-7.33333 -29.3333 -16.6667 -57.6667 -28 -85c-12.6667 -30.6667 -29 -64 -49 -100
c-24.6667 -42.6667 -50 -82 -76 -118c-20 -27.3333 -40.6667 -53 -62 -77c-15.3333 -15.3333 -28.6667 -28 -40 -38c-5.33333 -5.33333 -11.1667 -10.5 -17.5 -15.5s-13.8333 -10.5 -22.5 -16.5c-8 -5.33333 -15.5 -9.83333 -22.5 -13.5s-13.8333 -6.5 -20.5 -8.5
c-10 -2.66667 -18 -4 -24 -4c-11.3333 0 -21.3333 3.33333 -30 10c-9.33333 7.33333 -16.3333 17.3333 -21 30c-4 11.3333 -6 22 -6 32c0 13.3333 1 24.3333 3 33c7.33333 40.6667 20 86 38 136c10 27.3333 22.3333 58.6667 37 94c4.66667 11.3333 19.3333 45 44 101
c20 40.6667 38.6667 76.6667 56 108c16 28.6667 30.6667 53.3333 44 74c12.6667 17.3333 23.3333 29 32 35c8.66667 6.66667 15 10 19 10zM272 622v0zM254 100v0zM460 657v0zM272 622zM254 100zM460 658zM419 623h-2c-22.6667 -0.666667 -46 -11 -70 -31
c-10.6667 -9.33333 -21.6667 -22 -33 -38c-13.3636 -19.0909 -20.0455 -35.4483 -20.0455 -49.0723c0 -12.1708 3.4284 -21.5925 12.0455 -30.9277c6 -6 15.3333 -12.6667 28 -20c10.6667 -6 23.6667 -11.6667 39 -17c12 -4 24.6667 -7.66667 38 -11
c2 -0.666667 3.33333 0 4 2c10 24.6667 19 55 27 91c4.26667 18.6667 6.4 34.9867 6.4 48.96c0 3.49333 -0.133333 6.84 -0.4 10.04c0 14.6667 -3.33333 26.6667 -10 36c-4.66667 6 -11 9 -19 9zM250 515c-0.666667 -1.33333 -1.66667 -3 -3 -5s-2.33333 -3.66667 -3 -5
c-4 -7.33333 -16.6667 -32.6667 -38 -76c-17.3333 -35.3333 -32.3333 -68.6667 -45 -100c-13.3333 -32 -25 -62.6667 -35 -92c-10 -29.3333 -18 -57.3333 -24 -84c-7.38462 -33.2308 -11.0769 -57.0888 -11.0769 -71.574c0 -4.35386 1.13244 -7.5926 2.07692 -10.426
c4.66667 -14.6667 12.6667 -22 24 -22c20.6667 0 48 15.6667 82 47c30.6667 28.6667 61 63.3333 91 104c18 24 35.6667 50 53 78c12.6667 20 27.3333 47.3333 44 82c7.33333 16 13 29.6667 17 41c0.666667 2 0.333333 3.33333 -1 4c-23.3333 4 -42 8 -56 12
c-19.3333 5.33333 -35 12 -47 20c-16.6667 10 -28.6667 21 -36 33c-6.66667 11.3333 -10 23.3333 -10 36c0 2.66667 0.333333 5.33333 1 8c0.666667 2 -0.333333 3 -3 3c-0.666667 0 -1.33333 -0.666667 -2 -2z" />
    <glyph glyph-name="one" unicode="1" horiz-adv-x="425" 
d="M452 618l9 8l9 9l8 7l5 5l9 8l8 4l12 4l8 -3l5 -12l-2 -19l-5 -15l-10 -24l-12 -25l-33 -67l-21 -44l-18 -37l-14 -29l-6 -12l-7 -15l-9 -19l-8 -19l-8 -16l-5 -12l-22 -48l-18 -42l-15 -38l-16 -49l-6 -29l-4 -27l-4 -21l-5 -13l-5 -9l-5 -6l-5 -5h-1l-5 3l-3 5l-7 23
v38l8 41l20 59l13 35l17 39l19 44l7 15l9 18l10 22l10 21l8 17l5 11l7 14l10 19l11 23l14 29l6 11v1l1 1l2 5l11 24l4 14v4l-4 1l-6 -2l-7 -6l-8 -6l-9 -8l-8 -7l-2 -3l-135 -120l-81 -69l-35 -23l-36 -16l-11 -3l-9 -2l-4 1l-2 2l17 23l32 27l36 28l44 37l53 46l52 46
l41 38l32 29l35 34z" />
    <glyph glyph-name="two" unicode="2" horiz-adv-x="459" 
d="M330 660c10.6667 0 19.6667 -1 27 -3c33.3333 -9.33333 53.6667 -33.6667 61 -73l3 -26c0.166667 -3.83333 0.25 -7.64583 0.25 -11.4375c0 -11.375 -0.75 -22.5625 -2.25 -33.5625c-0.666667 -5.33333 -1.66667 -10.3333 -3 -15c-2.66667 -10 -5.66667 -20.3333 -9 -31
c-5.33333 -15.3333 -11.3333 -29.8333 -18 -43.5s-14.6667 -29.5 -24 -47.5c-28 -50 -74.6667 -111 -140 -183c-10.6667 -12 -22.3333 -24.6667 -35 -38c-2.66667 -2.66667 -5.83333 -6 -9.5 -10s-7.16667 -7.66667 -10.5 -11l-11 -11l-11 -11
c-2.66667 -2.66667 -8 -7.66667 -16 -15c-8 -7.33333 -14 -13.3333 -18 -18c-5.33333 -6 -8.66667 -10.6667 -10 -14c0 -0.666667 -0.333333 -1.33333 -1 -2c-1.33333 -6 0.333333 -9.33333 5 -10c6 -1.33333 16.3333 -2.33333 31 -3c16 0 65.3333 2.66667 148 8
c8 0 15.6667 0.333333 23 1c40 0 69.6667 -3.33333 89 -10c13.3333 -4 23.3333 -10 30 -18c6 -6.66667 9 -11.6667 9 -15v-2c-0.666667 -3.33333 -2.66667 -6.66667 -6 -10c-3.33333 -3.33333 -9.66667 -5 -19 -5h-6c-10 0 -20.3333 1.66667 -31 5
c-9.33333 3.33333 -17.3333 5.66667 -24 7c-6.66667 1.33333 -14 2 -22 2h-27h-14h-10c-14.6667 0 -38.5 -1 -71.5 -3s-59.5 -3 -79.5 -3h-2c-14.6667 0 -29.5 1.5 -44.5 4.5s-24.1667 6.83333 -27.5 11.5c-7.33333 9.33333 -9.66667 19 -7 29
c1.33333 5.33333 3.66667 11 7 17c3.33333 4.66667 9 11.6667 17 21c7.33333 8.66667 12 13.3333 14 14l1 1c2 2 13.3333 13.6667 34 35l42 42c12 12.6667 23.6667 25 35 37c61.3333 68 105.333 125 132 171l15 30c4 8.66667 8.33333 18.3333 13 29s8.66667 21 12 31
c1.33333 4.66667 2.5 9.5 3.5 14.5s2.16667 10.1667 3.5 15.5c1.2 6.4 1.8 12.8 1.8 19.2c0 4.26667 -0.266667 8.53333 -0.8 12.8c-2.66667 36.6667 -15 59.3333 -37 68c-8 2 -15.3333 3 -22 3c-20 0 -40.3333 -6.66667 -61 -20c-26.6667 -19.3333 -47 -37.3333 -61 -54
c-2.66667 -3.33333 -7.33333 -9.66667 -14 -19c-20.6667 -28.6667 -32.6667 -43 -36 -43c-1.33333 0 -1.33333 5 0 15l2 10c2 9.33333 5.66667 19.6667 11 31c18.6667 36.6667 44.3333 68.3333 77 95c26 21.3333 57.3333 32 94 32zM159 533v0zM421 558v0zM418 584v0z
M158 533zM422 559zM419 584zM423 559zM420 585z" />
    <glyph glyph-name="three" unicode="3" horiz-adv-x="521" 
d="M503 270zM501 130zM375 19zM293 425zM502 269zM500 131zM374 21zM292 426zM342 374c22.6667 -9.33333 38 -15.6667 46 -19c46.6667 -20.6667 84 -50 112 -88c12.6984 -21.5873 19.0476 -41.3605 19.0476 -59.3197c0 -9.78156 -1.04121 -18.1578 -4.04762 -28.6803
c-3.33333 -14.6667 -9 -30.6667 -17 -48c-23.3333 -41.3333 -64.6667 -77.6667 -124 -109c-30 -12.6667 -59 -19 -87 -19c-12.6667 0 -25 1.33333 -37 4c-31.3333 6 -53.6667 20 -67 42c-14.5606 22.5455 -21.8409 46.5801 -21.8409 72.1038
c0 10.7035 1.2803 21.6689 3.84091 32.8962v2c5.33333 23.3333 11.3333 40.3333 18 51c6 10.6667 10.6667 16.6667 14 18c2 0.666667 3.66667 1 5 1s2.66667 -0.333333 4 -1c2.66667 -1.33333 5 -7.33333 7 -18c0.666667 -3.77778 1 -7.77778 1 -12
c0 -8.44444 -1.33333 -17.7778 -4 -28c0 -0.666667 -0.333333 -1.33333 -1 -2v-3c-2.04167 -8.75 -3.0625 -17.5 -3.0625 -26.25c0 -11.25 1.6875 -22.5 5.0625 -33.75c6 -20.6667 18 -36 36 -46c14.6667 -6 30 -9 46 -9c21.3333 0 44 5 68 15l1 1
c45.3333 22.6667 77 48.6667 95 78c8 15.3333 13.3333 28.3333 16 39c0.666667 2.66667 1.33333 5.66667 2 9c0.166667 1.75 0.25 3.51042 0.25 5.28125c0 12.3958 -4.08333 25.3021 -12.25 38.7188l-1 1c-22.6667 33.3333 -64.6667 63 -126 89c-4 2 -9 4.16667 -15 6.5
s-10.6667 4.16667 -14 5.5c-30.6667 13.3333 -48.6667 21.3333 -54 24c-17.3333 10 -28.3333 21.3333 -33 34c-1.33333 4 -1.33333 8.33333 0 13c1.33333 6.66667 5.33333 14.3333 12 23c3.33333 4.66667 13.3333 14 30 28c4.66667 4 10 8.66667 16 14c4.66667 4 11 9 19 15
c6 4.66667 11.3333 9 16 13c5.33333 4 10.6667 9 16 15c13.3333 12.6667 21.3333 23.6667 24 33c0.666667 2.66667 1 5 1 7c-0.666667 15.3333 -12.3333 26.6667 -35 34c-12.8333 4.08333 -28.9844 6.125 -48.4531 6.125c-2.78125 0 -5.63021 -0.0416667 -8.54688 -0.125
c-11.3333 0 -23.3333 -0.333333 -36 -1c-8 -0.666667 -15.6667 -1.33333 -23 -2c-18 0 -30.3333 3.33333 -37 10c-2.66667 2.66667 -3.66667 4.66667 -3 6v1c1.33333 3.33333 7.66667 7.66667 19 13c13.3333 6 34.3333 10.6667 63 14c8.66667 1.33333 17.6667 1.66667 27 1
c20 0 40.6667 -2.33333 62 -7c30 -7.33333 50.3333 -20.6667 61 -40c3.28205 -6.15385 4.92308 -13.1913 4.92308 -21.1124c0 -4.95069 -0.641026 -10.2465 -1.92308 -15.8876c-2 -9.33333 -6 -19.6667 -12 -31c-4.66667 -8.66667 -10.3333 -17 -17 -25
s-12.6667 -14.3333 -18 -19s-14.6667 -12.3333 -28 -23s-24 -19.3333 -32 -26c-6 -4.66667 -9.5 -9.33333 -10.5 -14s0.166667 -9 3.5 -13c4.66667 -4 10.6667 -7.66667 18 -11c6.66667 -3.33333 14.6667 -6.66667 24 -10c8 -2.66667 13.3333 -4.66667 16 -6z" />
    </font>
</defs>
</svg>
