<?xml version="1.0" encoding="UTF-8" standalone="no"?>
<svg
   xmlns:dc="http://purl.org/dc/elements/1.1/"
   xmlns:cc="http://creativecommons.org/ns#"
   xmlns:rdf="http://www.w3.org/1999/02/22-rdf-syntax-ns#"
   xmlns:svg="http://www.w3.org/2000/svg"
   xmlns="http://www.w3.org/2000/svg"
   xmlns:sodipodi="http://sodipodi.sourceforge.net/DTD/sodipodi-0.dtd"
   xmlns:inkscape="http://www.inkscape.org/namespaces/inkscape"
   version="1.1"
   viewBox="0 -205 426 1024"
   id="svg6"
   sodipodi:docname="n.ss01_Aenniway-Regular.svg"
   inkscape:version="0.92.2 (unknown)">
  <metadata
     id="metadata12">
    <rdf:RDF>
      <cc:Work
         rdf:about="">
        <dc:format>image/svg+xml</dc:format>
        <dc:type
           rdf:resource="http://purl.org/dc/dcmitype/StillImage" />
      </cc:Work>
    </rdf:RDF>
  </metadata>
  <defs
     id="defs10" />
  <sodipodi:namedview
     pagecolor="#ffffff"
     bordercolor="#666666"
     borderopacity="1"
     objecttolerance="10"
     gridtolerance="10"
     guidetolerance="10"
     inkscape:pageopacity="0"
     inkscape:pageshadow="2"
     inkscape:window-width="1920"
     inkscape:window-height="1153"
     id="namedview8"
     showgrid="false"
     inkscape:zoom="0.32593203"
     inkscape:cx="853.8275"
     inkscape:cy="482.28767"
     inkscape:window-x="0"
     inkscape:window-y="21"
     inkscape:window-maximized="1"
     inkscape:current-layer="svg6" />
  <g
     transform="matrix(1 0 0 -1 0 819)"
     id="g4">
    <path
       fill="currentColor"
       d="M74.7344 242.384q-33.7344 -157.384 -4.5625 -190.725q26.8281 -29.6592 109.008 42.75q68.1924 59.5495 95.4014 98.375q41.6554 59.5539 41.7334 59.6016l29.9736 18.3125l1.27441 0.458008l2.66602 0.118164q9.77148 0.725586 10.958 -26.8604 q3.81348 -72.4141 10.8135 -121.414q13.9364 -91.5822 44 -100l25 -7q0 -5 -7 -7q-34 -11 -55.9893 -0.816406q-41.0107 19.8164 -56.0752 175.577q-47.9355 -55.7607 -79.3311 -87.415q-98.843 -95.3308 -166.657 -95.4609q-22.9473 0.115234 -41.8506 22.2891 q-21.0967 25.8262 -20.8242 80.1855q4.72754 126.641 34.8271 181.748q26.9004 14.8926 30.7939 14.9902q8.10645 1.90234 -4.15918 -57.7139z"
       id="path2" />
  </g>
  <path
     d="m 624.59961,575.27197 c -22.4896,104.92267 -24.01043,168.49766 -4.5625,190.725 15.71591,22.48466 34.60922,-46.47043 73.85814,-104.85635 35.1379,-52.27045 55.86494,-71.04945 94.39374,-92.32513 28.14414,-15.54128 71.62354,-36.46308 93.80494,-22.43379 8.4092,5.57469 9.7544,7.2324 10.958,26.8604 1.2036,19.628 6.1468,88.7474 10.8135,121.414 9.2909,61.05479 23.9576,94.38812 44,99.99999 l 25,7 c 0,3.33334 -2.3333,5.66667 -7,7 -22.6667,7.33334 -41.3298,7.60547 -55.9893,0.81641 -37.6456,-20.26178 -53.0521,-117.22019 -55.7186,-223.006 -75.62131,21.48723 -99.68724,53.58384 -133.60989,109.77189 -33.92265,56.18805 -49.52547,120.44628 -94.7348,120.53301 -15.2982,-0.0768 -29.2484,-7.50652 -41.8506,-22.2891 -14.06447,-17.21747 -21.00587,-43.94597 -20.8242,-80.1855 3.15169,-84.42733 14.76073,-145.01 34.8271,-181.748 17.9336,-9.9284 28.19823,-14.92513 30.7939,-14.9902 5.4043,-1.26822 4.01791,17.96974 -4.15918,57.7139 z"
     id="path2-3"
     inkscape:connector-curvature="0"
     style="fill:currentColor"
     sodipodi:nodetypes="ccsaczcscccczccccccc" />
  <path
     d="m 1101.343,570.66204 c -22.4896,104.92267 -24.0104,168.49766 -4.5625,190.725 15.7159,22.48466 28.6092,-46.47043 67.8582,-104.85635 35.1379,-52.27045 62.1374,-74.09063 96.3937,-92.32513 34.2563,-18.2345 59.1523,-30.43328 87.0253,-19.99311 9.4214,3.5289 15.7205,9.40189 17.7376,24.41972 2.0172,15.01783 6.1469,88.7474 10.8135,121.414 9.291,61.05479 23.9576,94.38812 44,99.99999 l 25,7 c 0,3.33334 -2.3333,5.66667 -7,7 -22.6666,7.33334 -41.3297,7.60547 -55.9893,0.81641 -36.7265,-19.76714 -52.2866,-112.5319 -55.5003,-215.27528 -0.08,-2.57099 -0.6792,-4.05998 -2.2317,-5.04611 -2.9781,-1.89166 -7.817,-0.75565 -10.5815,0.23917 -59.1954,21.30181 -87.99,51.96831 -121.015,106.84811 -34.465,57.27279 -45.5254,120.44628 -90.7347,120.53301 -15.2982,-0.0768 -29.2484,-7.50652 -41.8506,-22.2891 -14.0645,-17.21747 -21.0059,-43.94597 -20.8242,-80.1855 3.1516,-84.42733 14.7607,-145.01 34.8271,-181.748 17.9336,-9.9284 28.1982,-14.92513 30.7939,-14.9902 5.4043,-1.26822 4.0179,17.96974 -4.1592,57.7139 z"
     id="path2-6"
     inkscape:connector-curvature="0"
     style="fill:currentColor"
     sodipodi:nodetypes="ccszazcscccsassccccccc" />
</svg>
